SplineFontDB: 3.0
FontName: ArchitectsDaughter
FullName: Architects Daughter
FamilyName: Architects Daughter
Weight: Book
Copyright: Copyright (c) 2010, Kimberly Geswein (kimberlygeswein.com)
Version: 1.000 2010 initial release
ItalicAngle: 0
UnderlinePosition: 0
UnderlineWidth: 0
Ascent: 819
Descent: 205
sfntRevision: 0x00010000
LayerCount: 2
Layer: 0 1 "Back"  1
Layer: 1 1 "Fore"  0
XUID: [1021 496 529952750 5164025]
FSType: 0
OS2Version: 3
OS2_WeightWidthSlopeOnly: 0
OS2_UseTypoMetrics: 1
CreationTime: 1297265765
ModificationTime: 1299378270
PfmFamily: 17
TTFWeight: 400
TTFWidth: 5
LineGap: 0
VLineGap: 0
Panose: 2 0 0 0 0 0 0 0 0 0
OS2TypoAscent: 947
OS2TypoAOffset: 0
OS2TypoDescent: -404
OS2TypoDOffset: 0
OS2TypoLinegap: 0
OS2WinAscent: 947
OS2WinAOffset: 0
OS2WinDescent: 404
OS2WinDOffset: 0
HheadAscent: 947
HheadAOffset: 0
HheadDescent: -404
HheadDOffset: 0
OS2SubXSize: 717
OS2SubYSize: 666
OS2SubXOff: 0
OS2SubYOff: 143
OS2SupXSize: 717
OS2SupYSize: 666
OS2SupXOff: 0
OS2SupYOff: 488
OS2StrikeYSize: 51
OS2StrikeYPos: 256
OS2Vendor: '    '
OS2CodePages: 00000193.00000000
OS2UnicodeRanges: a000002f.5000004a.00000000.00000000
MarkAttachClasses: 1
DEI: 91125
TtTable: prep
PUSHW_1
 0
CALL
SVTCA[y-axis]
PUSHW_3
 1
 4
 7
CALL
PUSHW_1
 0
DUP
RCVT
RDTG
ROUND[Black]
RTG
WCVTP
EndTTInstrs
TtTable: fpgm
PUSHW_1
 0
FDEF
MPPEM
PUSHW_1
 9
LT
IF
PUSHB_2
 1
 1
INSTCTRL
EIF
PUSHW_1
 511
SCANCTRL
PUSHW_1
 132
SCVTCI
PUSHW_2
 9
 3
SDS
SDB
ENDF
PUSHW_1
 1
FDEF
DUP
DUP
RCVT
ROUND[Black]
WCVTP
PUSHB_1
 1
ADD
ENDF
PUSHW_1
 2
FDEF
PUSHW_1
 1
LOOPCALL
POP
ENDF
PUSHW_1
 3
FDEF
DUP
GC[cur]
PUSHB_1
 3
CINDEX
GC[cur]
GT
IF
SWAP
EIF
DUP
ROLL
DUP
ROLL
MD[grid]
ABS
ROLL
DUP
GC[cur]
DUP
ROUND[Grey]
SUB
ABS
PUSHB_1
 4
CINDEX
GC[cur]
DUP
ROUND[Grey]
SUB
ABS
GT
IF
SWAP
NEG
ROLL
EIF
MDAP[rnd]
DUP
PUSHB_1
 0
GTEQ
IF
ROUND[Black]
DUP
PUSHB_1
 0
EQ
IF
POP
PUSHB_1
 64
EIF
ELSE
ROUND[Black]
DUP
PUSHB_1
 0
EQ
IF
POP
PUSHB_1
 64
NEG
EIF
EIF
MSIRP[no-rp0]
ENDF
PUSHW_1
 4
FDEF
DUP
GC[cur]
PUSHB_1
 4
CINDEX

StartChar: exclam
Encoding: 33 33 4
Width: 129
VWidth: 768
Flags: HW
LayerCount: 2
Fore
SplineSet
59 63 m 1,0,1
 67 63 67 63 76.5 62.5 c 128,-1,2
 86 62 86 62 95 60 c 128,-1,3
 104 58 104 58 110 53 c 128,-1,4
 116 48 116 48 116 39 c 1,5,6
 110 19 110 19 97.5 8 c 128,-1,7
 85 -3 85 -3 71 -5.5 c 128,-1,8
 57 -8 57 -8 45 -3.5 c 128,-1,9
 33 1 33 1 28.5 10.5 c 128,-1,10
 24 20 24 20 30.5 33.5 c 128,-1,11
 37 47 37 47 59 63 c 1,0,1
104 844 m 1,12,13
 102 835 102 835 100.5 806.5 c 128,-1,14
 99 778 99 778 98.5 736 c 128,-1,15
 98 694 98 694 98 643 c 128,-1,16
 98 592 98 592 98 539 c 128,-1,17
 98 486 98 486 97 434 c 128,-1,18
 96 382 96 382 94.5 338.5 c 128,-1,19
 93 295 93 295 90.5 263 c 128,-1,20
 88 231 88 231 83 218 c 1,21,-1
 20 218 l 1,22,23
 20 295 20 295 23.5 373 c 128,-1,24
 27 451 27 451 30.5 528.5 c 128,-1,25
 34 606 34 606 37.5 684 c 128,-1,26
 41 762 41 762 41 841 c 1,27,-1
 104 844 l 1,12,13
EndSplineSet
EndChar

StartChar: quotedbl
Encoding: 34 34 5
Width: 227
VWidth: 768
Flags: HW
LayerCount: 2
Fore
SplineSet
138 583 m 0,0,1
 138 595 138 595 137 614 c 128,-1,2
 136 633 136 633 138.5 653.5 c 128,-1,3
 141 674 141 674 148 691 c 128,-1,4
 155 708 155 708 170 716 c 1,5,-1
 187 700 l 1,6,-1
 187 514 l 1,7,-1
 202 482 l 1,8,9
 200 480 200 480 196 478 c 128,-1,10
 192 476 192 476 187 473.5 c 128,-1,11
 182 471 182 471 177 469 c 128,-1,12
 172 467 172 467 170 467 c 0,13,14
 160 467 160 467 154 475.5 c 128,-1,15
 148 484 148 484 144.5 496.5 c 128,-1,16
 141 509 141 509 139.5 523.5 c 128,-1,17
 138 538 138 538 137.5 551 c 128,-1,18
 137 564 137 564 137.5 573 c 128,-1,19
 138 582 138 582 138 583 c 0,0,1
52 576 m 0,20,21
 52 588 52 588 51 607 c 128,-1,22
 50 626 50 626 52.5 646.5 c 128,-1,23
 55 667 55 667 61.5 684 c 128,-1,24
 68 701 68 701 84 709 c 1,25,-1
 100 694 l 1,26,-1
 100 507 l 1,27,-1
 116 476 l 1,28,29
 114 474 114 474 109.5 471.5 c 128,-1,30
 105 469 105 469 100 466.5 c 128,-1,31
 95 464 95 464 90.5 462 c 128,-1,32
 86 460 86 460 84 460 c 0,33,34
 74 460 74 460 68 468 c 128,-1,35
 62 476 62 476 58 489 c 128,-1,36
 54 502 54 502 52.5 516.5 c 128,-1,37
 51 531 51 531 51 544 c 128,-1,38
 51 557 51 557 51.5 566 c 128,-1,39
 52 575 52 575 52 576 c 0,20,21
EndSplineSet
EndChar

StartChar: numbersign
Encoding: 35 35 6
Width: 612
VWidth: 768
Flags: HW
LayerCount: 2
Fore
SplineSet
81 318 m 0,0,1
 81 330 81 330 87.5 335.5 c 128,-1,2
 94 341 94 341 103.5 343.5 c 128,-1,3
 113 346 113 346 124.5 345 c 128,-1,4
 136 344 136 344 146.5 342 c 128,-1,5
 157 340 157 340 164.5 338.5 c 128,-1,6
 172 337 172 337 175 337 c 1,7,-1
 175 420 l 1,8,9
 169 420 169 420 153.5 422 c 128,-1,10
 138 424 138 424 121 426.5 c 128,-1,11
 104 429 104 429 88 431.5 c 128,-1,12
 72 434 72 434 66 436 c 1,13,14
 53 443 53 443 52.5 451.5 c 128,-1,15
 52 460 52 460 66 467 c 1,16,17
 72 469 72 469 88 471 c 128,-1,18
 104 473 104 473 121 475.5 c 128,-1,19
 138 478 138 478 153.5 480 c 128,-1,20
 169 482 169 482 175 482 c 1,21,-1
 175 591 l 2,22,23
 175 598 175 598 178.5 601 c 128,-1,24
 182 604 182 604 187 606 c 128,-1,25
 192 608 192 608 197 608 c 128,-1,26
 202 608 202 608 206 608 c 256,27,28
 210 608 210 608 215 608 c 128,-1,29
 220 608 220 608 225 606 c 128,-1,30
 230 604 230 604 233.5 601 c 128,-1,31
 237 598 237 598 237 591 c 2,32,-1
 237 488 l 1,33,-1
 331 498 l 1,34,-1
 331 622 l 1,35,-1
 378 622 l 1,36,-1
 409 498 l 1,37,-1
 574 498 l 1,38,39
 574 478 574 478 563.5 467 c 128,-1,40
 553 456 553 456 537 451.5 c 128,-1,41
 521 447 521 447 501.5 447.5 c 128,-1,42
 482 448 482 448 464 450 c 128,-1,43
 446 452 446 452 431 455 c 128,-1,44
 416 458 416 458 409 458 c 1,45,-1
 409 362 l 1,46,47
 438 362 438 362 464 364 c 2,48,-1
 572 374 l 2,49,50
 599 377 599 377 627 377 c 1,51,-1
 627 358 l 2,52,53
 627 348 627 348 612.5 341 c 128,-1,54
 598 334 598 334 576 330 c 128,-1,55
 554 326 554 326 527 323 c 128,-1,56
 500 320 500 320 476 318 c 128,-1,57
 452 316 452 316 433.5 314.5 c 128,-1,58
 415 313 415 313 409 311 c 1,59,60
 407 281 407 281 405.5 259.5 c 128,-1,61
 404 238 404 238 397 224 c 128,-1,62
 390 210 390 210 374.5 203 c 128,-1,63
 359 196 359 196 331 196 c 1,64,-1
 331 290 l 1,65,66
 281 294 281 294 259.5 288 c 128,-1,67
 238 282 238 282 234 271 c 128,-1,68
 230 260 230 260 236 246 c 128,-1,69
 242 232 242 232 245 219 c 128,-1,70
 248 206 248 206 242 197 c 128,-1,71
 236 188 236 188 206 186 c 1,72,-1
 198 186 l 2,73,74
 192 186 192 186 190 187 c 1,75,76
 188 225 188 225 179.5 247 c 128,-1,77
 171 269 171 269 158.5 281.5 c 128,-1,78
 146 294 146 294 132.5 298.5 c 128,-1,79
 119 303 119 303 107.5 305 c 128,-1,80
 96 307 96 307 88.5 308.5 c 128,-1,81
 81 310 81 310 81 318 c 0,0,1
318 452 m 0,82,83
 310 452 310 452 297 450.5 c 128,-1,84
 284 449 284 449 270 447 c 128,-1,85
 256 445 256 445 246.5 442 c 128,-1,86
 237 439 237 439 237 436 c 2,87,-1
 237 337 l 1,88,89
 258 337 258 337 277.5 337.5 c 128,-1,90
 297 338 297 338 312.5 344 c 128,-1,91
 328 350 328 350 337 364 c 128,-1,92
 346 378 346 378 346 405 c 0,93,94
 346 421 346 421 345 430.5 c 128,-1,95
 344 440 344 440 341 444.5 c 128,-1,96
 338 449 338 449 332.5 450.5 c 128,-1,97
 327 452 327 452 318 452 c 0,82,83
EndSplineSet
EndChar

StartChar: dollar
Encoding: 36 36 7
Width: 534
VWidth: 768
Flags: HW
LayerCount: 2
Fore
SplineSet
242 174 m 1,0,1
 215 166 215 166 197.5 165 c 128,-1,2
 180 164 180 164 164 164 c 128,-1,3
 148 164 148 164 146 164 c 0,4,5
 144 165 144 165 142 171 c 128,-1,6
 140 177 140 177 138.5 184.5 c 128,-1,7
 137 192 137 192 135.5 199 c 128,-1,8
 134 206 134 206 133 207 c 1,9,10
 137 215 137 215 152.5 219.5 c 128,-1,11
 168 224 168 224 186.5 227 c 128,-1,12
 205 230 205 230 221.5 231 c 128,-1,13
 238 232 238 232 244 233 c 1,14,-1
 244 358 l 1,15,-1
 223 358 l 2,16,17
 204 358 204 358 178 359.5 c 128,-1,18
 152 361 152 361 122.5 365.5 c 128,-1,19
 93 370 93 370 68.5 378.5 c 128,-1,20
 44 387 44 387 27 401.5 c 128,-1,21
 10 416 10 416 10 436 c 1,22,23
 5 462 5 462 13.5 484 c 128,-1,24
 22 506 22 506 39 524 c 128,-1,25
 56 542 56 542 79.5 556.5 c 128,-1,26
 103 571 103 571 127.5 581.5 c 128,-1,27
 152 592 152 592 174.5 598.5 c 0,28,29
 197 606 197 606 214 608 c 1,30,-1
 214 825 l 1,31,-1
 260 825 l 1,32,-1
 291 638 l 1,33,-1
 478 638 l 1,34,-1
 478 599 l 1,35,-1
 308 575 l 1,36,-1
 307 397 l 1,37,-1
 519 397 l 1,38,39
 522 357 522 357 511 328.5 c 128,-1,40
 500 300 500 300 481.5 280.5 c 128,-1,41
 463 261 463 261 439 248.5 c 128,-1,42
 415 236 415 236 392 226.5 c 128,-1,43
 369 217 369 217 350 208 c 128,-1,44
 331 199 331 199 322 187 c 1,45,46
 323 178 323 178 325.5 156 c 128,-1,47
 328 134 328 134 330 109 c 128,-1,48
 332 84 332 84 334.5 62 c 128,-1,49
 337 40 337 40 338 32 c 1,50,-1
 338 22 l 2,51,52
 338 13 338 13 327 8 c 128,-1,53
 316 3 316 3 301 0.5 c 128,-1,54
 286 -2 286 -2 272 -3 c 128,-1,55
 258 -4 258 -4 252 -4 c 1,56,-1
 242 174 l 1,0,1
86 442 m 256,57,58
 86 423 86 423 97.5 415 c 128,-1,59
 109 407 109 407 125.5 404.5 c 128,-1,60
 142 402 142 402 160 403 c 128,-1,61
 178 404 178 404 190 404 c 2,62,-1
 217 404 l 2,63,64
 226 404 226 404 233.5 404.5 c 0,65,66
 240 405 240 405 244 405 c 1,67,-1
 229 544 l 2,68,69
 229 546 229 546 221.5 547 c 128,-1,70
 214 548 214 548 210 548 c 0,71,72
 192 548 192 548 170 539 c 128,-1,73
 148 530 148 530 129.5 514.5 c 128,-1,74
 111 499 111 499 98.5 480 c 128,-1,75
 86 461 86 461 86 442 c 256,57,58
448 350 m 1,76,77
 441 360 441 360 424.5 362.5 c 128,-1,78
 408 365 408 365 388 363.5 c 128,-1,79
 368 362 368 362 348 356.5 c 128,-1,80
 328 351 328 351 316 346 c 1,81,-1
 322 265 l 1,82,83
 335 269 335 269 356 276 c 128,-1,84
 377 283 377 283 397.5 293.5 c 128,-1,85
 418 304 418 304 433 318.5 c 128,-1,86
 448 333 448 333 448 350 c 1,76,77
EndSplineSet
EndChar

StartChar: percent
Encoding: 37 37 8
Width: 659
VWidth: 768
Flags: HW
LayerCount: 2
Fore
SplineSet
107 22 m 0,0,1
 106 36 106 36 124 46 c 1,2,-1
 420 561 l 2,3,4
 424 568 424 568 429 571 c 128,-1,5
 434 574 434 574 440 571 c 128,-1,6
 446 568 446 568 452.5 558.5 c 0,7,8
 459 550 459 550 467 530 c 1,9,-1
 164 -1 l 1,10,11
 156 -1 156 -1 146.5 -0.5 c 128,-1,12
 137 0 137 0 128 2 c 128,-1,13
 119 4 119 4 113 8.5 c 128,-1,14
 107 13 107 13 107 22 c 0,0,1
482 61 m 0,15,16
 460 62 460 62 447 74.5 c 128,-1,17
 434 87 434 87 429 105.5 c 128,-1,18
 424 124 424 124 427 145.5 c 128,-1,19
 430 167 430 167 441 184.5 c 128,-1,20
 452 202 452 202 470 212 c 128,-1,21
 488 222 488 222 514 219 c 1,22,23
 526 219 526 219 546 218.5 c 128,-1,24
 566 218 566 218 585 213 c 128,-1,25
 604 208 604 208 619 198.5 c 128,-1,26
 634 189 634 189 638 171 c 0,27,28
 643 143 643 143 626.5 122.5 c 128,-1,29
 610 102 610 102 583.5 88 c 128,-1,30
 557 74 557 74 528.5 67.5 c 128,-1,31
 500 61 500 61 482 61 c 0,15,16
580 178 m 1,32,33
 560 178 560 178 542 175.5 c 128,-1,34
 524 173 524 173 510 165.5 c 128,-1,35
 496 158 496 158 488 143 c 128,-1,36
 480 128 480 128 480 104 c 1,37,38
 500 104 500 104 518 107 c 128,-1,39
 536 110 536 110 550 118.5 c 128,-1,40
 564 127 564 127 572 141.5 c 128,-1,41
 580 156 580 156 580 178 c 1,32,33
14 382 m 0,42,43
 14 407 14 407 30 428.5 c 128,-1,44
 46 450 46 450 69 466 c 128,-1,45
 92 482 92 482 119 491 c 128,-1,46
 146 500 146 500 166 500 c 0,47,48
 178 500 178 500 190.5 498 c 128,-1,49
 203 496 203 496 213 490.5 c 128,-1,50
 223 485 223 485 229 475.5 c 128,-1,51
 235 466 235 466 235 451 c 0,52,53
 235 429 235 429 216 408.5 c 128,-1,54
 197 388 197 388 170.5 373.5 c 128,-1,55
 144 359 144 359 115.5 350.5 c 0,56,57
 88 342 88 342 68 342 c 0,58,59
 59 342 59 342 49.5 344 c 128,-1,60
 40 346 40 346 32 351 c 128,-1,61
 24 356 24 356 19 363.5 c 128,-1,62
 14 371 14 371 14 382 c 0,42,43
155 439 m 1,63,64
 147 439 147 439 136.5 436 c 128,-1,65
 126 433 126 433 116 427.5 c 128,-1,66
 106 422 106 422 99 414 c 128,-1,67
 92 406 92 406 92 397 c 0,68,69
 92 396 92 396 92.5 393 c 128,-1,70
 93 390 93 390 93 389 c 2,71,-1
 155 420 l 1,72,-1
 155 439 l 1,63,64
EndSplineSet
EndChar

StartChar: ampersand
Encoding: 38 38 9
Width: 643
VWidth: 768
Flags: HW
LayerCount: 2
Fore
SplineSet
98 0 m 1,0,1
 91 -1 91 -1 74 3.5 c 128,-1,2
 57 8 57 8 40 15 c 128,-1,3
 23 22 23 22 12 33 c 128,-1,4
 1 44 1 44 7 56 c 1,5,-1
 177 327 l 1,6,7
 157 361 157 361 144 386 c 128,-1,8
 131 411 131 411 124 434 c 128,-1,9
 117 457 117 457 114 481 c 0,10,11
 111 506 111 506 111 536 c 1,12,13
 114 586 114 586 132 626.5 c 128,-1,14
 150 667 150 667 175 694 c 128,-1,15
 200 721 200 721 227.5 733.5 c 128,-1,16
 255 746 255 746 277.5 740 c 128,-1,17
 300 734 300 734 314 708.5 c 128,-1,18
 328 683 328 683 325 635 c 128,-1,19
 322 587 322 587 298.5 514.5 c 0,20,21
 276 442 276 442 224 343 c 1,22,23
 224 330 224 330 236.5 311.5 c 128,-1,24
 249 293 249 293 268.5 273.5 c 128,-1,25
 288 254 288 254 311 234.5 c 128,-1,26
 334 215 334 215 355 200 c 128,-1,27
 376 185 376 185 393.5 175.5 c 128,-1,28
 411 166 411 166 418 166 c 1,29,30
 448 183 448 183 466.5 197 c 128,-1,31
 485 211 485 211 498 223.5 c 128,-1,32
 511 236 511 236 520.5 248 c 128,-1,33
 530 260 530 260 541 274 c 128,-1,34
 552 288 552 288 567.5 305.5 c 0,35,36
 583 322 583 322 608 346 c 1,37,38
 610 346 610 346 615 344 c 128,-1,39
 620 342 620 342 626 338.5 c 128,-1,40
 632 335 632 335 636 331.5 c 128,-1,41
 640 328 640 328 640 327 c 1,42,43
 638 324 638 324 630.5 310 c 128,-1,44
 623 296 623 296 603.5 272 c 128,-1,45
 584 248 584 248 549 214.5 c 0,46,47
 514 182 514 182 457 140 c 1,48,49
 503 117 503 117 528.5 103 c 128,-1,50
 554 89 554 89 566 82.5 c 128,-1,51
 578 76 578 76 580.5 74 c 128,-1,52
 583 72 583 72 583 71 c 0,53,54
 583 62 583 62 578.5 57 c 128,-1,55
 574 52 574 52 568 49 c 128,-1,56
 562 46 562 46 555 45.5 c 128,-1,57
 548 45 548 45 542 45 c 0,58,59
 522 45 522 45 505 53 c 128,-1,60
 488 61 488 61 471.5 70.5 c 128,-1,61
 455 80 455 80 438.5 87.5 c 128,-1,62
 422 95 422 95 403 95 c 1,63,64
 374 80 374 80 338.5 62 c 128,-1,65
 303 44 303 44 264 28.5 c 128,-1,66
 225 13 225 13 183 4 c 128,-1,67
 141 -5 141 -5 98 0 c 1,0,1
207 280 m 1,68,69
 197 269 197 269 179 246.5 c 128,-1,70
 161 224 161 224 142.5 196 c 128,-1,71
 124 168 124 168 107.5 139 c 128,-1,72
 91 110 91 110 82.5 87 c 128,-1,73
 74 64 74 64 76.5 51 c 128,-1,74
 79 38 79 38 98 42 c 1,75,76
 137 42 137 42 170.5 47 c 128,-1,77
 204 52 204 52 235 62.5 c 128,-1,78
 266 73 266 73 297 88.5 c 128,-1,79
 328 104 328 104 363 124 c 1,80,-1
 207 280 l 1,68,69
155 521 m 0,81,82
 155 501 155 501 157 484.5 c 128,-1,83
 159 468 159 468 163 452 c 128,-1,84
 167 436 167 436 174.5 421 c 128,-1,85
 182 406 182 406 192 389 c 1,86,87
 216 403 216 403 232.5 433.5 c 128,-1,88
 249 464 249 464 259 500.5 c 128,-1,89
 269 537 269 537 273.5 573.5 c 128,-1,90
 278 610 278 610 278 634 c 0,91,92
 278 645 278 645 279 654.5 c 128,-1,93
 280 664 280 664 277.5 671 c 128,-1,94
 275 678 275 678 269 682 c 128,-1,95
 263 686 263 686 250 686 c 0,96,97
 224 686 224 686 206 668 c 128,-1,98
 188 650 188 650 176.5 625 c 128,-1,99
 165 600 165 600 160 571.5 c 128,-1,100
 155 543 155 543 155 521 c 0,81,82
EndSplineSet
EndChar

StartChar: quotesingle
Encoding: 39 39 10
Width: 155
VWidth: 768
Flags: HW
LayerCount: 2
Fore
SplineSet
78 576 m 1,0,1
 98 583 98 583 108 577.5 c 128,-1,2
 118 572 118 572 120 558 c 128,-1,3
 122 544 122 544 117.5 525 c 128,-1,4
 113 506 113 506 105.5 485.5 c 128,-1,5
 98 465 98 465 89 446 c 128,-1,6
 80 427 80 427 70 414 c 1,7,-1
 26 411 l 1,8,-1
 78 576 l 1,0,1
EndSplineSet
EndChar

StartChar: parenleft
Encoding: 40 40 11
Width: 285
VWidth: 768
Flags: HW
LayerCount: 2
Fore
SplineSet
14 338 m 0,0,1
 14 358 14 358 18.5 388 c 128,-1,2
 23 418 23 418 31 455.5 c 128,-1,3
 39 493 39 493 50.5 533.5 c 128,-1,4
 62 574 62 574 77 613 c 128,-1,5
 92 652 92 652 109.5 688 c 128,-1,6
 127 724 127 724 146.5 751 c 128,-1,7
 166 778 166 778 188 794 c 128,-1,8
 210 810 210 810 233 810 c 0,9,10
 243 810 243 810 251.5 808 c 128,-1,11
 260 806 260 806 264 794 c 1,12,13
 228 743 228 743 197 695.5 c 128,-1,14
 166 648 166 648 142 598 c 128,-1,15
 118 548 118 548 105 493 c 128,-1,16
 92 438 92 438 92 374 c 0,17,18
 92 327 92 327 107 283 c 128,-1,19
 122 239 122 239 139.5 197.5 c 128,-1,20
 157 156 157 156 172 115 c 128,-1,21
 187 74 187 74 187 32 c 0,22,23
 187 25 187 25 183 21.5 c 128,-1,24
 179 18 179 18 174 16 c 128,-1,25
 169 14 169 14 163.5 14 c 128,-1,26
 158 14 158 14 155 14 c 0,27,28
 129 14 129 14 108.5 34 c 128,-1,29
 88 54 88 54 72.5 85 c 128,-1,30
 57 116 57 116 45.5 154.5 c 128,-1,31
 34 193 34 193 27.5 229 c 128,-1,32
 21 265 21 265 17.5 294.5 c 128,-1,33
 14 324 14 324 14 338 c 0,0,1
EndSplineSet
EndChar

StartChar: parenright
Encoding: 41 41 12
Width: 337
VWidth: 768
Flags: HW
LayerCount: 2
Fore
SplineSet
104 15 m 1,0,1
 120 55 120 55 144 89 c 128,-1,2
 168 123 168 123 190.5 157 c 128,-1,3
 213 191 213 191 229 228 c 0,4,5
 245 264 245 264 245 310 c 0,6,7
 245 385 245 385 227.5 441.5 c 128,-1,8
 210 498 210 498 180.5 544 c 128,-1,9
 151 590 151 590 111 630.5 c 0,10,11
 71 672 71 672 26 716 c 0,12,13
 26 717 26 717 25.5 722 c 0,14,15
 25 726 25 726 25 730 c 0,16,17
 25 751 25 751 35.5 757.5 c 128,-1,18
 46 764 46 764 66 764 c 0,19,20
 108 764 108 764 142.5 740 c 128,-1,21
 177 716 177 716 204 677 c 128,-1,22
 231 638 231 638 251 588.5 c 128,-1,23
 271 539 271 539 283.5 489.5 c 128,-1,24
 296 440 296 440 302.5 395 c 128,-1,25
 309 350 309 350 309 318 c 0,26,27
 309 298 309 298 303 267 c 128,-1,28
 297 236 297 236 285.5 200.5 c 128,-1,29
 274 165 274 165 257.5 129.5 c 128,-1,30
 241 94 241 94 220 65 c 128,-1,31
 199 36 199 36 173.5 18 c 128,-1,32
 148 0 148 0 120 0 c 0,33,34
 116 0 116 0 110 5.5 c 128,-1,35
 104 11 104 11 104 15 c 1,0,1
EndSplineSet
EndChar

StartChar: asterisk
Encoding: 42 42 13
Width: 487
VWidth: 768
Flags: HW
LayerCount: 2
Fore
SplineSet
211 246 m 1,0,1
 195 232 195 232 179.5 211 c 128,-1,2
 164 190 164 190 148.5 170 c 128,-1,3
 133 150 133 150 114 136 c 0,4,5
 94 122 94 122 70 122 c 0,6,7
 66 122 66 122 60.5 128 c 128,-1,8
 55 134 55 134 55 137 c 1,9,10
 64 153 64 153 77 177.5 c 128,-1,11
 90 202 90 202 104 230 c 128,-1,12
 118 258 118 258 130 286.5 c 128,-1,13
 142 315 142 315 148 340 c 0,14,15
 148 341 148 341 148.5 343.5 c 128,-1,16
 149 346 149 346 149 348 c 0,17,18
 149 362 149 362 139.5 371.5 c 128,-1,19
 130 381 130 381 115.5 389.5 c 128,-1,20
 101 398 101 398 85.5 407 c 128,-1,21
 70 416 70 416 57.5 428 c 128,-1,22
 45 440 45 440 39 456 c 128,-1,23
 33 472 33 472 39 495 c 1,24,25
 62 494 62 494 79.5 488 c 128,-1,26
 97 482 97 482 110.5 474 c 128,-1,27
 124 466 124 466 135 457 c 128,-1,28
 146 448 146 448 157.5 442 c 128,-1,29
 169 436 169 436 181.5 433 c 128,-1,30
 194 430 194 430 211 434 c 1,31,-1
 288 635 l 2,32,33
 291 643 291 643 297 647 c 128,-1,34
 303 651 303 651 310.5 653 c 128,-1,35
 318 655 318 655 326 655.5 c 128,-1,36
 334 656 334 656 340 656 c 1,37,38
 340 627 340 627 336 600 c 128,-1,39
 332 573 332 573 326 546.5 c 128,-1,40
 320 520 320 520 315.5 493 c 128,-1,41
 311 466 311 466 311 436 c 1,42,43
 336 436 336 436 358 441 c 128,-1,44
 380 446 380 446 402 452.5 c 128,-1,45
 424 459 424 459 446.5 464 c 128,-1,46
 469 469 469 469 493 469 c 1,47,48
 493 439 493 439 478.5 422.5 c 128,-1,49
 464 406 464 406 443 396 c 128,-1,50
 422 386 422 386 397.5 380 c 128,-1,51
 373 374 373 374 352 364.5 c 128,-1,52
 331 355 331 355 316.5 339 c 128,-1,53
 302 323 302 323 302 295 c 0,54,55
 302 275 302 275 307.5 256.5 c 128,-1,56
 313 238 313 238 319 219 c 128,-1,57
 325 200 325 200 330 181.5 c 128,-1,58
 335 163 335 163 335 143 c 0,59,60
 335 127 335 127 321.5 120.5 c 128,-1,61
 308 114 308 114 288 106 c 1,62,63
 269 115 269 115 261.5 134.5 c 128,-1,64
 254 154 254 154 249 175.5 c 128,-1,65
 244 197 244 197 237 217 c 128,-1,66
 230 237 230 237 211 246 c 1,0,1
EndSplineSet
EndChar

StartChar: plus
Encoding: 43 43 14
Width: 503
VWidth: 768
Flags: HW
LayerCount: 2
Fore
SplineSet
229 46 m 1,0,1
 227 66 227 66 225 92 c 128,-1,2
 223 118 223 118 219.5 146 c 128,-1,3
 216 174 216 174 210.5 201 c 128,-1,4
 205 228 205 228 197 250 c 1,5,6
 177 250 177 250 158.5 245 c 128,-1,7
 140 240 140 240 120.5 234.5 c 128,-1,8
 101 229 101 229 81.5 223.5 c 128,-1,9
 62 218 62 218 40 218 c 0,10,11
 29 218 29 218 19.5 223 c 128,-1,12
 10 228 10 228 10 242 c 0,13,14
 10 253 10 253 24 259 c 128,-1,15
 38 265 38 265 59 268 c 128,-1,16
 80 271 80 271 104 272.5 c 128,-1,17
 128 274 128 274 149 276 c 128,-1,18
 170 278 170 278 183.5 282.5 c 128,-1,19
 197 287 197 287 197 296 c 2,20,-1
 197 452 l 2,21,22
 197 459 197 459 201 462 c 128,-1,23
 205 465 205 465 210 467 c 128,-1,24
 215 469 215 469 220.5 469.5 c 128,-1,25
 226 470 226 470 230 470 c 0,26,27
 246 470 246 470 251 464 c 128,-1,28
 256 458 256 458 260 436 c 0,29,30
 262 429 262 429 264 411.5 c 128,-1,31
 266 394 266 394 269 374 c 128,-1,32
 272 354 272 354 273.5 336.5 c 128,-1,33
 275 319 275 319 276 312 c 1,34,-1
 482 312 l 1,35,36
 482 298 482 298 469.5 289 c 128,-1,37
 457 280 457 280 437 276 c 128,-1,38
 417 272 417 272 393.5 270.5 c 128,-1,39
 370 269 370 269 347 268.5 c 128,-1,40
 324 268 324 268 305 267.5 c 128,-1,41
 286 267 286 267 276 265 c 1,42,43
 272 243 272 243 275 215 c 128,-1,44
 278 187 278 187 282.5 158 c 128,-1,45
 287 129 287 129 290.5 100 c 0,46,47
 294 70 294 70 291 46 c 1,48,49
 287 42 287 42 277 38 c 128,-1,50
 267 34 267 34 257 32.5 c 128,-1,51
 247 31 247 31 239 33.5 c 128,-1,52
 231 36 231 36 229 46 c 1,0,1
EndSplineSet
EndChar

StartChar: comma
Encoding: 44 44 15
Width: 171
VWidth: 768
Flags: HW
LayerCount: 2
Fore
SplineSet
45 81 m 1,0,1
 51 93 51 93 58 95 c 128,-1,2
 65 97 65 97 76 97 c 0,3,4
 83 97 83 97 89.5 95 c 128,-1,5
 96 93 96 93 101 89 c 128,-1,6
 106 85 106 85 108 79 c 0,7,8
 110 72 110 72 107 64 c 0,9,10
 102 52 102 52 94 37.5 c 128,-1,11
 86 23 86 23 76.5 7.5 c 128,-1,12
 67 -8 67 -8 57.5 -22 c 128,-1,13
 48 -36 48 -36 41 -46 c 0,14,15
 39 -50 39 -50 32.5 -57 c 128,-1,16
 26 -64 26 -64 17 -70 c 128,-1,17
 8 -76 8 -76 -2 -79 c 128,-1,18
 -12 -82 -12 -82 -21 -78 c 1,19,-1
 45 81 l 1,0,1
EndSplineSet
EndChar

StartChar: hyphen
Encoding: 45 45 16
Width: 297
VWidth: 768
Flags: HW
LayerCount: 2
Fore
SplineSet
28 226 m 0,0,1
 28 239 28 239 39 244 c 0,2,3
 50 248 50 248 61 250 c 0,4,5
 104 256 104 256 144.5 263.5 c 0,6,7
 186 271 186 271 230 275 c 1,8,9
 249 275 249 275 261.5 268.5 c 128,-1,10
 274 262 274 262 278.5 253.5 c 128,-1,11
 283 245 283 245 277.5 235.5 c 128,-1,12
 272 226 272 226 255 221 c 1,13,-1
 75 202 l 2,14,15
 69 202 69 202 60.5 203 c 128,-1,16
 52 204 52 204 45 206.5 c 128,-1,17
 38 209 38 209 33 213.5 c 128,-1,18
 28 218 28 218 28 226 c 0,0,1
EndSplineSet
EndChar

StartChar: period
Encoding: 46 46 17
Width: 135
VWidth: 768
Flags: HW
LayerCount: 2
Fore
SplineSet
43 -1 m 1,0,1
 24 1 24 1 22 12 c 128,-1,2
 20 23 20 23 26 35 c 128,-1,3
 32 47 32 47 44.5 56 c 0,4,5
 58 65 58 65 68 62 c 1,6,7
 88 62 88 62 94.5 54 c 128,-1,8
 101 46 101 46 101 31 c 0,9,10
 101 20 101 20 95.5 13.5 c 128,-1,11
 90 7 90 7 81.5 4 c 128,-1,12
 73 1 73 1 62.5 0 c 128,-1,13
 52 -1 52 -1 43 -1 c 1,0,1
EndSplineSet
EndChar

StartChar: slash
Encoding: 47 47 18
Width: 436
VWidth: 768
Flags: HW
LayerCount: 2
Fore
SplineSet
20 39 m 1,0,1
 22 45 22 45 38.5 73.5 c 128,-1,2
 55 102 55 102 82 144.5 c 128,-1,3
 109 187 109 187 143 239.5 c 128,-1,4
 177 292 177 292 212.5 346.5 c 128,-1,5
 248 401 248 401 282 453.5 c 128,-1,6
 316 506 316 506 344 547.5 c 128,-1,7
 372 589 372 589 389.5 615.5 c 128,-1,8
 407 642 407 642 410 646 c 1,9,10
 418 642 418 642 412 617 c 128,-1,11
 406 592 406 592 389.5 552.5 c 128,-1,12
 373 513 373 513 347.5 463 c 128,-1,13
 322 413 322 413 292 359 c 128,-1,14
 262 305 262 305 228 250.5 c 128,-1,15
 194 196 194 196 160.5 148 c 128,-1,16
 127 100 127 100 95 61 c 128,-1,17
 63 22 63 22 37 0 c 1,18,19
 30 0 30 0 26 5 c 128,-1,20
 22 10 22 10 21 16.5 c 128,-1,21
 20 23 20 23 20 29 c 2,22,-1
 20 39 l 1,0,1
EndSplineSet
EndChar

StartChar: zero
Encoding: 48 48 19
Width: 606
VWidth: 768
Flags: HW
LayerCount: 2
Fore
SplineSet
36 178 m 0,0,1
 38 216 38 216 48 261 c 128,-1,2
 58 306 58 306 75.5 350 c 128,-1,3
 93 394 93 394 117.5 435 c 128,-1,4
 142 476 142 476 174 507.5 c 128,-1,5
 206 539 206 539 246 558 c 128,-1,6
 286 577 286 577 334 577 c 0,7,8
 397 577 397 577 442.5 552.5 c 128,-1,9
 488 528 488 528 518 488 c 128,-1,10
 548 448 548 448 562.5 397 c 128,-1,11
 577 346 577 346 577 291 c 0,12,13
 577 220 577 220 553.5 165.5 c 128,-1,14
 530 111 530 111 487 74 c 128,-1,15
 444 37 444 37 385 17.5 c 128,-1,16
 326 -2 326 -2 256 -2 c 0,17,18
 222 -2 222 -2 182 9 c 128,-1,19
 142 20 142 20 108.5 41.5 c 128,-1,20
 75 63 75 63 54 97 c 128,-1,21
 33 131 33 131 36 178 c 0,0,1
91 172 m 0,22,23
 91 132 91 132 106.5 107 c 128,-1,24
 122 82 122 82 148 68.5 c 128,-1,25
 174 55 174 55 206 50 c 128,-1,26
 238 45 238 45 271 45 c 0,27,28
 400 45 400 45 465 111.5 c 128,-1,29
 530 178 530 178 530 301 c 1,30,31
 532 415 532 415 475 475.5 c 128,-1,32
 418 536 418 536 310 530 c 1,33,34
 279 535 279 535 251.5 515.5 c 128,-1,35
 224 496 224 496 199.5 463 c 128,-1,36
 175 430 175 430 155 388 c 128,-1,37
 135 346 135 346 120.5 304.5 c 128,-1,38
 106 263 106 263 98.5 227.5 c 128,-1,39
 91 192 91 192 91 172 c 0,22,23
EndSplineSet
EndChar

StartChar: one
Encoding: 49 49 20
Width: 123
VWidth: 768
Flags: HW
LayerCount: 2
Fore
SplineSet
41 499 m 1,0,1
 39 520 39 520 48.5 525.5 c 128,-1,2
 58 531 58 531 71 531 c 0,3,4
 81 531 81 531 90.5 528.5 c 128,-1,5
 100 526 100 526 104 514 c 1,6,-1
 88 32 l 2,7,8
 87 23 87 23 79 16.5 c 128,-1,9
 71 10 71 10 61.5 7 c 128,-1,10
 52 4 52 4 42 6 c 128,-1,11
 32 8 32 8 26 15 c 1,12,13
 27 33 27 33 28 71.5 c 128,-1,14
 29 110 29 110 30.5 157.5 c 128,-1,15
 32 205 32 205 33.5 257.5 c 128,-1,16
 35 310 35 310 36.5 357.5 c 128,-1,17
 38 405 38 405 39 443 c 128,-1,18
 40 481 40 481 41 499 c 1,0,1
EndSplineSet
EndChar

StartChar: two
Encoding: 50 50 21
Width: 549
VWidth: 768
Flags: HW
LayerCount: 2
Fore
SplineSet
36 46 m 1,0,1
 68 74 68 74 107 116.5 c 128,-1,2
 146 159 146 159 182.5 206.5 c 128,-1,3
 219 254 219 254 248.5 302.5 c 128,-1,4
 278 351 278 351 289.5 392.5 c 128,-1,5
 301 434 301 434 290.5 462.5 c 128,-1,6
 280 491 280 491 237 500 c 1,7,8
 210 500 210 500 189.5 492 c 128,-1,9
 169 484 169 484 152 472 c 128,-1,10
 135 460 135 460 120.5 446 c 128,-1,11
 106 432 106 432 90 420 c 128,-1,12
 74 408 74 408 56 400 c 128,-1,13
 38 392 38 392 15 392 c 1,14,15
 16 423 16 423 40 452.5 c 128,-1,16
 64 482 64 482 100 504 c 128,-1,17
 136 526 136 526 178 538.5 c 128,-1,18
 220 551 220 551 257 547.5 c 128,-1,19
 294 544 294 544 320 521.5 c 0,20,21
 346 500 346 500 351 452 c 1,22,23
 351 400 351 400 333.5 349 c 128,-1,24
 316 298 316 298 288.5 250 c 128,-1,25
 261 202 261 202 227 158.5 c 0,26,27
 192 115 192 115 160 77 c 1,28,29
 204 73 204 73 248 85.5 c 128,-1,30
 292 98 292 98 334.5 113.5 c 128,-1,31
 377 129 377 129 419.5 143 c 128,-1,32
 462 157 462 157 504 157 c 0,33,34
 515 157 515 157 525.5 151.5 c 128,-1,35
 536 146 536 146 536 132 c 256,36,37
 536 118 536 118 526 108 c 128,-1,38
 516 98 516 98 501 92 c 128,-1,39
 486 86 486 86 468.5 83.5 c 128,-1,40
 451 81 451 81 435 79.5 c 128,-1,41
 419 78 419 78 407.5 78 c 128,-1,42
 396 78 396 78 394 77 c 0,43,44
 386 75 386 75 364.5 69 c 128,-1,45
 343 63 343 63 314 54.5 c 128,-1,46
 285 46 285 46 251.5 37.5 c 128,-1,47
 218 29 218 29 185 22.5 c 128,-1,48
 152 16 152 16 122 12 c 128,-1,49
 92 8 92 8 71 9.5 c 128,-1,50
 50 11 50 11 39.5 19.5 c 128,-1,51
 29 28 29 28 36 46 c 1,0,1
EndSplineSet
EndChar

StartChar: three
Encoding: 51 51 22
Width: 488
VWidth: 768
Flags: HW
LayerCount: 2
Fore
SplineSet
139 23 m 1,0,1
 192 37 192 37 235.5 59 c 128,-1,2
 279 81 279 81 310.5 107.5 c 128,-1,3
 342 134 342 134 361 161 c 128,-1,4
 380 188 380 188 383 210 c 128,-1,5
 386 232 386 232 374 247.5 c 128,-1,6
 362 263 362 263 330.5 265.5 c 128,-1,7
 299 268 299 268 248.5 255 c 128,-1,8
 198 242 198 242 126 207 c 1,9,-1
 93 249 l 1,10,11
 111 258 111 258 138 271 c 128,-1,12
 165 284 165 284 195 299.5 c 128,-1,13
 225 315 225 315 255.5 332.5 c 128,-1,14
 286 350 286 350 311.5 367 c 128,-1,15
 337 384 337 384 354.5 400.5 c 128,-1,16
 372 417 372 417 376 430.5 c 128,-1,17
 380 444 380 444 368 454 c 128,-1,18
 356 464 356 464 323 470 c 1,19,20
 282 470 282 470 243 461 c 128,-1,21
 204 452 204 452 165.5 442 c 128,-1,22
 127 432 127 432 88.5 424 c 128,-1,23
 50 416 50 416 10 416 c 1,24,25
 10 421 10 421 10 428.5 c 128,-1,26
 10 436 10 436 12 444 c 128,-1,27
 14 452 14 452 18 458 c 128,-1,28
 22 464 22 464 31 467 c 1,29,30
 71 477 71 477 114.5 488 c 128,-1,31
 158 499 158 499 202 508 c 128,-1,32
 246 517 246 517 287 521.5 c 128,-1,33
 328 526 328 526 362 524 c 128,-1,34
 396 522 396 522 419.5 510.5 c 0,35,36
 443 500 443 500 452 476 c 1,37,38
 452 451 452 451 438 427.5 c 128,-1,39
 424 404 424 404 403.5 383 c 128,-1,40
 383 362 383 362 361 344 c 128,-1,41
 339 326 339 326 323 311 c 1,42,43
 385 310 385 310 418 295 c 128,-1,44
 451 280 451 280 460.5 257 c 128,-1,45
 470 234 470 234 461 204.5 c 128,-1,46
 452 175 452 175 429 145 c 128,-1,47
 406 115 406 115 374 86.5 c 128,-1,48
 342 58 342 58 306.5 37 c 128,-1,49
 271 16 271 16 235 5.5 c 0,50,51
 200 -5 200 -5 170 -1 c 1,52,53
 160 -1 160 -1 149.5 4 c 128,-1,54
 139 9 139 9 139 23 c 1,0,1
EndSplineSet
EndChar

StartChar: four
Encoding: 52 52 23
Width: 653
VWidth: 768
Flags: HW
LayerCount: 2
Fore
SplineSet
353 183 m 1,0,-1
 285 183 l 2,1,2
 257 183 257 183 229.5 183.5 c 128,-1,3
 202 184 202 184 172 184 c 2,4,-1
 105 184 l 2,5,6
 99 184 99 184 92.5 184.5 c 128,-1,7
 86 185 86 185 80.5 187.5 c 128,-1,8
 75 190 75 190 71.5 194.5 c 128,-1,9
 68 199 68 199 68 207 c 1,10,11
 106 255 106 255 142 303.5 c 128,-1,12
 178 352 178 352 211 395.5 c 128,-1,13
 244 439 244 439 274 472.5 c 128,-1,14
 304 506 304 506 330 523.5 c 128,-1,15
 356 541 356 541 375.5 538.5 c 128,-1,16
 395 536 395 536 408.5 506.5 c 128,-1,17
 422 477 422 477 428 417.5 c 128,-1,18
 434 358 434 358 430 262 c 1,19,-1
 638 265 l 1,20,21
 638 261 638 261 637 253 c 128,-1,22
 636 245 636 245 634 237.5 c 128,-1,23
 632 230 632 230 629 224 c 128,-1,24
 626 218 626 218 621 217 c 2,25,-1
 447 202 l 1,26,27
 440 184 440 184 436.5 158 c 128,-1,28
 433 132 433 132 430.5 103 c 128,-1,29
 428 74 428 74 427.5 45.5 c 128,-1,30
 427 17 427 17 427 -6 c 1,31,32
 421 -6 421 -6 409 -8.5 c 128,-1,33
 397 -11 397 -11 384.5 -13 c 128,-1,34
 372 -15 372 -15 362 -13.5 c 128,-1,35
 352 -12 352 -12 350 -3 c 1,36,-1
 353 183 l 1,0,-1
353 452 m 1,37,38
 333 424 333 424 303.5 397 c 128,-1,39
 274 370 274 370 246 343.5 c 128,-1,40
 218 317 218 317 195 289.5 c 128,-1,41
 172 262 172 262 166 233 c 1,42,43
 211 232 211 232 257.5 238 c 128,-1,44
 304 244 304 244 353 249 c 1,45,-1
 353 452 l 1,37,38
EndSplineSet
EndChar

StartChar: five
Encoding: 53 53 24
Width: 679
VWidth: 768
Flags: HW
LayerCount: 2
Fore
SplineSet
117 30 m 256,0,1
 117 50 117 50 131.5 66 c 128,-1,2
 146 82 146 82 166 82 c 1,3,-1
 166 66 l 1,4,5
 188 66 188 66 216.5 67 c 128,-1,6
 245 68 245 68 274.5 72 c 128,-1,7
 304 76 304 76 332.5 84 c 128,-1,8
 361 92 361 92 382.5 107 c 128,-1,9
 404 122 404 122 417.5 145 c 128,-1,10
 431 168 431 168 431 202 c 0,11,12
 431 234 431 234 414.5 253 c 128,-1,13
 398 272 398 272 373 281.5 c 128,-1,14
 348 291 348 291 319 293.5 c 128,-1,15
 290 296 290 296 266 296 c 0,16,17
 240 296 240 296 215.5 288.5 c 128,-1,18
 191 281 191 281 167.5 272 c 128,-1,19
 144 263 144 263 120.5 255.5 c 128,-1,20
 97 248 97 248 72 248 c 2,21,-1
 57 248 l 2,22,23
 49 248 49 248 42 250 c 128,-1,24
 35 252 35 252 30.5 256.5 c 128,-1,25
 26 261 26 261 26 271 c 0,26,27
 26 273 26 273 26 276.5 c 0,28,-1
 26 280 l 0,29,30
 28 290 28 290 30 312 c 128,-1,31
 32 334 32 334 35 362 c 128,-1,32
 38 390 38 390 41.5 420.5 c 128,-1,33
 45 451 45 451 48.5 478.5 c 128,-1,34
 52 506 52 506 54 528 c 128,-1,35
 56 550 56 550 58 561 c 1,36,37
 62 573 62 573 70 575 c 128,-1,38
 78 577 78 577 88 577 c 0,39,40
 106 577 106 577 112 570 c 128,-1,41
 118 563 118 563 118.5 552.5 c 128,-1,42
 119 542 119 542 116.5 528.5 c 128,-1,43
 114 515 114 515 114 503 c 1,44,45
 180 503 180 503 245 517 c 128,-1,46
 310 531 310 531 375 548 c 128,-1,47
 440 565 440 565 504 579 c 128,-1,48
 568 593 568 593 634 593 c 0,49,50
 644 593 644 593 652.5 591 c 0,51,52
 660 589 660 589 664 576 c 1,53,54
 661 565 661 565 651.5 557 c 128,-1,55
 642 549 642 549 620 542 c 128,-1,56
 598 535 598 535 561 526.5 c 128,-1,57
 524 518 524 518 464.5 506 c 128,-1,58
 405 494 405 494 320.5 476 c 128,-1,59
 236 458 236 458 120 431 c 1,60,-1
 120 311 l 1,61,62
 151 314 151 314 189 320 c 128,-1,63
 227 326 227 326 267.5 330 c 128,-1,64
 308 334 308 334 346.5 332.5 c 128,-1,65
 385 331 385 331 416.5 318.5 c 128,-1,66
 448 306 448 306 468.5 280.5 c 0,67,68
 490 255 490 255 494 211 c 1,69,70
 494 171 494 171 479 140.5 c 128,-1,71
 464 110 464 110 438.5 86 c 128,-1,72
 413 62 413 62 379.5 46 c 128,-1,73
 346 30 346 30 310 19.5 c 128,-1,74
 274 9 274 9 237 4.5 c 128,-1,75
 200 0 200 0 166 0 c 0,76,77
 140 0 140 0 128.5 5 c 128,-1,78
 117 10 117 10 117 30 c 256,0,1
EndSplineSet
EndChar

StartChar: six
Encoding: 54 54 25
Width: 602
VWidth: 768
Flags: HW
LayerCount: 2
Fore
SplineSet
20 274 m 1,0,1
 20 311 20 311 32.5 351.5 c 128,-1,2
 45 392 45 392 66.5 431 c 128,-1,3
 88 470 88 470 118 504.5 c 128,-1,4
 148 539 148 539 183 565.5 c 128,-1,5
 218 592 218 592 256 607.5 c 128,-1,6
 294 623 294 623 333 623 c 0,7,8
 347 623 347 623 355.5 618.5 c 128,-1,9
 364 614 364 614 363 591 c 1,10,11
 307 581 307 581 258.5 550 c 128,-1,12
 210 519 210 519 174.5 474.5 c 128,-1,13
 139 430 139 430 118.5 375.5 c 128,-1,14
 98 321 98 321 98 264 c 0,15,16
 98 250 98 250 105 223.5 c 128,-1,17
 112 197 112 197 123.5 171.5 c 128,-1,18
 135 146 135 146 150.5 127 c 128,-1,19
 166 108 166 108 184 108 c 1,20,21
 199 120 199 120 218.5 140 c 128,-1,22
 238 160 238 160 262 182.5 c 128,-1,23
 286 205 286 205 314.5 228 c 128,-1,24
 343 251 343 251 374.5 270 c 128,-1,25
 406 289 406 289 441 300.5 c 128,-1,26
 476 312 476 312 513 313 c 0,27,28
 529 313 529 313 542 305 c 128,-1,29
 555 297 555 297 563.5 284.5 c 128,-1,30
 572 272 572 272 576.5 256 c 128,-1,31
 581 240 581 240 581 225 c 1,32,33
 573 165 573 165 544.5 121 c 128,-1,34
 516 77 516 77 475 48.5 c 128,-1,35
 434 20 434 20 383.5 7 c 128,-1,36
 333 -6 333 -6 281.5 -3 c 128,-1,37
 230 0 230 0 182.5 19 c 128,-1,38
 135 38 135 38 98.5 72 c 128,-1,39
 62 106 62 106 40 156.5 c 128,-1,40
 18 207 18 207 20 274 c 1,0,1
488 250 m 0,41,42
 469 250 469 250 446 240 c 128,-1,43
 423 230 423 230 399.5 213 c 128,-1,44
 376 196 376 196 352 175.5 c 128,-1,45
 328 155 328 155 307.5 135.5 c 128,-1,46
 287 116 287 116 271 98.5 c 128,-1,47
 255 81 255 81 246 71 c 1,48,49
 280 65 280 65 326 71.5 c 128,-1,50
 372 78 372 78 414 97 c 128,-1,51
 456 116 456 116 486.5 146 c 128,-1,52
 517 176 517 176 520 218 c 1,53,54
 520 250 520 250 488 250 c 0,41,42
EndSplineSet
EndChar

StartChar: seven
Encoding: 55 55 26
Width: 591
VWidth: 768
Flags: HW
LayerCount: 2
Fore
SplineSet
428 448 m 1,0,1
 378 448 378 448 327 446 c 2,2,-1
 227 440 l 2,3,4
 177 437 177 437 127 435.5 c 128,-1,5
 77 434 77 434 26 436 c 1,6,7
 16 440 16 440 13 445.5 c 128,-1,8
 10 451 10 451 10 459 c 256,9,10
 10 467 10 467 13 472.5 c 128,-1,11
 16 478 16 478 26 482 c 1,12,13
 92 480 92 480 157 487 c 128,-1,14
 222 494 222 494 286 504 c 128,-1,15
 350 514 350 514 414 522.5 c 128,-1,16
 478 531 478 531 542 531 c 0,17,18
 557 531 557 531 565 522.5 c 0,19,20
 574 514 574 514 572 499 c 1,21,22
 530 453 530 453 488.5 396 c 128,-1,23
 447 339 447 339 416.5 276.5 c 128,-1,24
 386 214 386 214 371.5 147.5 c 128,-1,25
 357 81 357 81 369 15 c 1,26,-1
 291 0 l 1,27,28
 291 3 291 3 290.5 11 c 128,-1,29
 290 19 290 19 289.5 27.5 c 128,-1,30
 289 36 289 36 288.5 43.5 c 128,-1,31
 288 51 288 51 288 55 c 0,32,33
 286 93 286 93 294.5 129.5 c 128,-1,34
 303 166 303 166 317 202 c 128,-1,35
 331 238 331 238 347.5 271.5 c 128,-1,36
 364 305 364 305 380 336.5 c 128,-1,37
 396 368 396 368 409 395.5 c 128,-1,38
 422 423 422 423 428 448 c 1,0,1
EndSplineSet
EndChar

StartChar: eight
Encoding: 56 56 27
Width: 622
VWidth: 768
Flags: HW
LayerCount: 2
Fore
SplineSet
21 140 m 0,0,1
 21 164 21 164 35.5 186 c 128,-1,2
 50 208 50 208 68 229 c 128,-1,3
 86 250 86 250 101 268.5 c 128,-1,4
 116 287 116 287 116 303 c 0,5,6
 116 314 116 314 110.5 323 c 128,-1,7
 105 332 105 332 98.5 340.5 c 128,-1,8
 92 349 92 349 87 358.5 c 128,-1,9
 82 368 82 368 82 380 c 0,10,11
 82 414 82 414 97 440.5 c 128,-1,12
 112 467 112 467 136.5 487.5 c 128,-1,13
 161 508 161 508 193 522 c 128,-1,14
 225 536 225 536 258 545 c 128,-1,15
 291 554 291 554 323 558 c 0,16,17
 356 562 356 562 380 562 c 0,18,19
 406 562 406 562 435.5 561 c 128,-1,20
 465 560 465 560 491 552 c 128,-1,21
 517 544 517 544 534 525.5 c 128,-1,22
 551 507 551 507 551 473 c 1,23,24
 550 442 550 442 535.5 417.5 c 0,25,26
 521 394 521 394 503 374 c 1,27,28
 529 364 529 364 547 353.5 c 128,-1,29
 565 343 565 343 576 329.5 c 128,-1,30
 587 316 587 316 592.5 296.5 c 128,-1,31
 598 277 598 277 598 249 c 0,32,33
 598 206 598 206 582.5 171 c 128,-1,34
 567 136 567 136 541 108.5 c 128,-1,35
 515 81 515 81 481 60.5 c 128,-1,36
 447 40 447 40 408.5 26.5 c 128,-1,37
 370 13 370 13 330.5 6 c 128,-1,38
 291 -1 291 -1 254 -1 c 0,39,40
 232 -1 232 -1 206 1.5 c 128,-1,41
 180 4 180 4 154 10 c 128,-1,42
 128 16 128 16 104 27 c 128,-1,43
 80 38 80 38 62 53.5 c 128,-1,44
 44 69 44 69 32.5 90.5 c 128,-1,45
 21 112 21 112 21 140 c 0,0,1
97 150 m 1,46,47
 97 115 97 115 115.5 94 c 128,-1,48
 134 73 134 73 161 62 c 128,-1,49
 188 51 188 51 220 48 c 128,-1,50
 252 45 252 45 280 45 c 0,51,52
 329 45 329 45 375.5 57.5 c 128,-1,53
 422 70 422 70 458 96 c 128,-1,54
 494 122 494 122 515.5 161 c 128,-1,55
 537 200 537 200 537 251 c 1,56,57
 526 289 526 289 490 307 c 128,-1,58
 454 325 454 325 406.5 326.5 c 128,-1,59
 359 328 359 328 306.5 315 c 128,-1,60
 254 302 254 302 209 278.5 c 128,-1,61
 164 255 164 255 132.5 222 c 128,-1,62
 101 189 101 189 97 150 c 1,46,47
159 399 m 1,63,64
 159 371 159 371 177 356.5 c 0,65,66
 196 342 196 342 224 342 c 1,67,68
 240 340 240 340 266 345 c 128,-1,69
 292 350 292 350 322 358.5 c 128,-1,70
 352 367 352 367 382.5 378.5 c 128,-1,71
 413 390 413 390 439 403.5 c 128,-1,72
 465 417 465 417 482.5 431 c 128,-1,73
 500 445 500 445 505 458 c 1,74,75
 505 474 505 474 497.5 487 c 128,-1,76
 490 500 490 500 473 500 c 1,77,78
 454 509 454 509 425 514 c 128,-1,79
 396 519 396 519 362.5 518.5 c 128,-1,80
 329 518 329 518 294.5 511 c 128,-1,81
 260 504 260 504 231.5 490 c 128,-1,82
 203 476 203 476 183 453.5 c 128,-1,83
 163 431 163 431 159 399 c 1,63,64
EndSplineSet
EndChar

StartChar: nine
Encoding: 57 57 28
Width: 546
VWidth: 768
Flags: HW
LayerCount: 2
Fore
SplineSet
232 0 m 1,0,1
 220 2 220 2 211 14 c 128,-1,2
 202 26 202 26 202 44 c 1,3,4
 236 65 236 65 272.5 90 c 128,-1,5
 309 115 309 115 339 146.5 c 128,-1,6
 369 178 369 178 389.5 218.5 c 0,7,8
 410 258 410 258 414 310 c 1,9,10
 382 312 382 312 349 307.5 c 128,-1,11
 316 303 316 303 283 297.5 c 128,-1,12
 250 292 250 292 217 287.5 c 128,-1,13
 184 283 184 283 153 285.5 c 128,-1,14
 122 288 122 288 94 299 c 128,-1,15
 66 310 66 310 41 336 c 1,16,17
 23 361 23 361 30.5 390.5 c 128,-1,18
 38 420 38 420 62 449 c 128,-1,19
 86 478 86 478 122.5 504.5 c 128,-1,20
 159 531 159 531 198.5 549 c 128,-1,21
 238 567 238 567 276 574.5 c 128,-1,22
 314 582 314 582 342 574 c 0,23,24
 400 556 400 556 434.5 522 c 128,-1,25
 469 488 469 488 483 445 c 128,-1,26
 497 402 497 402 494 353 c 128,-1,27
 491 304 491 304 474.5 255 c 128,-1,28
 458 206 458 206 431.5 160.5 c 128,-1,29
 405 115 405 115 372.5 80 c 128,-1,30
 340 45 340 45 303.5 23.5 c 128,-1,31
 267 2 267 2 232 0 c 1,0,1
116 362 m 1,32,33
 146 348 146 348 183 344.5 c 128,-1,34
 220 341 220 341 259 344.5 c 128,-1,35
 298 348 298 348 337 358 c 128,-1,36
 376 368 376 368 411 382 c 1,37,38
 417 407 417 407 414 429.5 c 128,-1,39
 411 452 411 452 399.5 470.5 c 128,-1,40
 388 489 388 489 368 501 c 0,41,42
 348 512 348 512 320 514 c 1,43,44
 282 514 282 514 245.5 507 c 128,-1,45
 209 500 209 500 180.5 482 c 128,-1,46
 152 464 152 464 134 435 c 128,-1,47
 116 406 116 406 116 362 c 1,32,33
EndSplineSet
EndChar

StartChar: colon
Encoding: 58 58 29
Width: 160
VWidth: 768
Flags: HW
LayerCount: 2
Fore
SplineSet
72 118 m 0,0,1
 72 132 72 132 85 145 c 128,-1,2
 98 158 98 158 112 158 c 0,3,4
 130 158 130 158 138 147.5 c 128,-1,5
 146 137 146 137 145.5 125 c 128,-1,6
 145 113 145 113 136.5 103.5 c 128,-1,7
 128 94 128 94 112 94 c 0,8,9
 106 94 106 94 99.5 95.5 c 128,-1,10
 93 97 93 97 86.5 99.5 c 128,-1,11
 80 102 80 102 76 106.5 c 128,-1,12
 72 111 72 111 72 118 c 0,0,1
42 298 m 1,13,14
 30 302 30 302 29 309.5 c 128,-1,15
 28 317 28 317 33.5 325 c 128,-1,16
 39 333 39 333 48 339 c 128,-1,17
 57 345 57 345 65 346 c 1,18,19
 94 342 94 342 104 328.5 c 128,-1,20
 114 315 114 315 109 303.5 c 128,-1,21
 104 292 104 292 86 288 c 128,-1,22
 68 284 68 284 42 298 c 1,13,14
EndSplineSet
EndChar

StartChar: semicolon
Encoding: 59 59 30
Width: 119
VWidth: 768
Flags: HW
LayerCount: 2
Fore
SplineSet
-21 -156 m 1,0,1
 -1 -90 -1 -90 12.5 -44.5 c 128,-1,2
 26 1 26 1 35.5 30.5 c 128,-1,3
 45 60 45 60 50.5 76 c 128,-1,4
 56 92 56 92 59 99.5 c 128,-1,5
 62 107 62 107 62.5 108.5 c 128,-1,6
 63 110 63 110 64 110 c 0,7,8
 79 110 79 110 84.5 100 c 128,-1,9
 90 90 90 90 90 78 c 0,10,11
 90 50 90 50 86.5 15.5 c 128,-1,12
 83 -19 83 -19 72 -52 c 128,-1,13
 61 -85 61 -85 39 -113 c 128,-1,14
 17 -141 17 -141 -21 -156 c 1,0,1
25 302 m 0,15,16
 27 320 27 320 36.5 328.5 c 128,-1,17
 46 337 46 337 58 337 c 128,-1,18
 70 337 70 337 79.5 328.5 c 128,-1,19
 89 320 89 320 90 303 c 0,20,21
 90 296 90 296 86 288 c 128,-1,22
 82 280 82 280 73 280 c 0,23,24
 68 280 68 280 60 280.5 c 128,-1,25
 52 281 52 281 44 283.5 c 128,-1,26
 36 286 36 286 30.5 290 c 128,-1,27
 25 294 25 294 25 302 c 0,15,16
EndSplineSet
EndChar

StartChar: less
Encoding: 60 60 31
Width: 456
VWidth: 768
Flags: HW
LayerCount: 2
Fore
SplineSet
79 214 m 1,0,1
 109 237 109 237 149 269.5 c 128,-1,2
 189 302 189 302 230.5 334.5 c 128,-1,3
 272 367 272 367 310.5 395 c 128,-1,4
 349 423 349 423 376 438 c 1,5,6
 383 437 383 437 387.5 431 c 128,-1,7
 392 425 392 425 394.5 417 c 128,-1,8
 397 409 397 409 396.5 400.5 c 128,-1,9
 396 392 396 392 393 386 c 1,10,-1
 172 218 l 1,11,12
 186 211 186 211 212 199 c 128,-1,13
 238 187 238 187 270.5 171 c 128,-1,14
 303 155 303 155 338 136.5 c 128,-1,15
 373 118 373 118 404 97 c 1,16,17
 402 95 402 95 400 88.5 c 128,-1,18
 398 82 398 82 394.5 75 c 128,-1,19
 391 68 391 68 388 62 c 128,-1,20
 385 56 385 56 383 56 c 1,21,22
 365 67 365 67 338.5 77.5 c 128,-1,23
 312 88 312 88 281 99 c 128,-1,24
 250 110 250 110 218.5 122.5 c 128,-1,25
 187 135 187 135 159 149 c 128,-1,26
 131 163 131 163 110 178.5 c 128,-1,27
 89 194 89 194 79 214 c 1,0,1
EndSplineSet
EndChar

StartChar: equal
Encoding: 61 61 32
Width: 472
VWidth: 768
Flags: HW
LayerCount: 2
Fore
SplineSet
66 163 m 0,0,1
 66 167 66 167 72 172.5 c 128,-1,2
 78 178 78 178 82 178 c 0,3,4
 120 184 120 184 148 188.5 c 128,-1,5
 176 193 176 193 199.5 195.5 c 128,-1,6
 223 198 223 198 244.5 200 c 128,-1,7
 266 202 266 202 288.5 205 c 128,-1,8
 311 208 311 208 337.5 213 c 128,-1,9
 364 218 364 218 398 224 c 1,10,11
 420 224 420 224 426.5 210 c 128,-1,12
 433 196 433 196 429 177 c 1,13,14
 376 177 376 177 335.5 169.5 c 128,-1,15
 295 162 295 162 257 153.5 c 128,-1,16
 219 145 219 145 179.5 137.5 c 128,-1,17
 140 130 140 130 88 130 c 0,18,19
 77 130 77 130 71.5 137 c 128,-1,20
 66 144 66 144 66 163 c 0,0,1
79 303 m 2,21,22
 80 305 80 305 95 306.5 c 128,-1,23
 110 308 110 308 133 311 c 128,-1,24
 156 314 156 314 185.5 317 c 128,-1,25
 215 320 215 320 246.5 323.5 c 128,-1,26
 278 327 278 327 308 330.5 c 128,-1,27
 338 334 338 334 363 338 c 1,28,29
 378 342 378 342 386 338 c 128,-1,30
 394 334 394 334 395.5 325 c 128,-1,31
 397 316 397 316 392.5 306 c 128,-1,32
 388 296 388 296 380 290 c 1,33,-1
 106 253 l 2,34,35
 102 253 102 253 95 252.5 c 128,-1,36
 88 252 88 252 80.5 253 c 128,-1,37
 73 254 73 254 67.5 257.5 c 128,-1,38
 62 261 62 261 60 269 c 1,39,-1
 79 303 l 2,21,22
EndSplineSet
EndChar

StartChar: greater
Encoding: 62 62 33
Width: 453
VWidth: 768
Flags: HW
LayerCount: 2
Fore
SplineSet
110 45 m 1,0,1
 78 57 78 57 68.5 70 c 128,-1,2
 59 83 59 83 64.5 96.5 c 128,-1,3
 70 110 70 110 88 124.5 c 128,-1,4
 106 139 106 139 130 154 c 128,-1,5
 154 169 154 169 181 184.5 c 128,-1,6
 208 200 208 200 232 215 c 128,-1,7
 256 230 256 230 273 246 c 128,-1,8
 290 262 290 262 295 278 c 1,9,-1
 46 371 l 1,10,-1
 94 417 l 1,11,12
 125 395 125 395 152 382.5 c 128,-1,13
 179 370 179 370 204.5 362.5 c 128,-1,14
 230 355 230 355 254 350 c 128,-1,15
 278 345 278 345 302 338.5 c 128,-1,16
 326 332 326 332 350 321 c 128,-1,17
 374 310 374 310 400 292 c 1,18,19
 376 263 376 263 339 233 c 128,-1,20
 302 203 302 203 261 172.5 c 128,-1,21
 220 142 220 142 180 110 c 128,-1,22
 140 78 140 78 110 45 c 1,0,1
EndSplineSet
EndChar

StartChar: question
Encoding: 63 63 34
Width: 485
VWidth: 768
Flags: HW
LayerCount: 2
Fore
SplineSet
227 32 m 0,0,1
 227 64 227 64 260 64 c 1,2,3
 274 68 274 68 282.5 63 c 128,-1,4
 291 58 291 58 295.5 50 c 128,-1,5
 300 42 300 42 300 31 c 128,-1,6
 300 20 300 20 295.5 12 c 128,-1,7
 291 4 291 4 282 -0.5 c 0,8,9
 273 -6 273 -6 260 -2 c 1,10,11
 227 -2 227 -2 227 32 c 0,0,1
119 320 m 1,12,13
 135 330 135 330 163.5 344.5 c 128,-1,14
 192 359 192 359 224 377.5 c 128,-1,15
 256 396 256 396 289 417 c 128,-1,16
 322 438 322 438 348 460 c 128,-1,17
 374 482 374 482 390 503 c 128,-1,18
 406 524 406 524 404.5 543 c 128,-1,19
 403 562 403 562 380.5 579 c 128,-1,20
 358 596 358 596 307 608 c 1,21,22
 273 608 273 608 240.5 603 c 128,-1,23
 208 598 208 598 176.5 591.5 c 128,-1,24
 145 585 145 585 113 580 c 128,-1,25
 81 575 81 575 49 575 c 0,26,27
 44 575 44 575 38 579.5 c 128,-1,28
 32 584 32 584 26 590 c 128,-1,29
 20 596 20 596 15.5 603.5 c 128,-1,30
 11 611 11 611 10 618 c 1,31,32
 82 641 82 641 149 649.5 c 128,-1,33
 216 658 216 658 272.5 654 c 128,-1,34
 329 650 329 650 372.5 635 c 128,-1,35
 416 620 416 620 440 595.5 c 128,-1,36
 464 571 464 571 466 539 c 128,-1,37
 468 507 468 507 443 470.5 c 128,-1,38
 418 434 418 434 362 393 c 128,-1,39
 306 352 306 352 214 311 c 1,40,-1
 322 280 l 1,41,-1
 322 259 l 1,42,43
 314 258 314 258 293 257 c 128,-1,44
 272 256 272 256 246.5 256 c 128,-1,45
 221 256 221 256 195 259 c 128,-1,46
 169 262 169 262 149.5 269 c 128,-1,47
 130 276 130 276 120.5 288 c 128,-1,48
 111 300 111 300 119 320 c 1,12,13
EndSplineSet
EndChar

StartChar: at
Encoding: 64 64 35
Width: 1001
VWidth: 768
Flags: HW
LayerCount: 2
Fore
SplineSet
26 194 m 0,0,1
 26 255 26 255 43 311.5 c 128,-1,2
 60 368 60 368 91 417.5 c 128,-1,3
 122 467 122 467 164.5 508 c 128,-1,4
 207 549 207 549 257.5 578.5 c 128,-1,5
 308 608 308 608 365 624 c 128,-1,6
 422 640 422 640 481 640 c 0,7,8
 537 640 537 640 594.5 627 c 128,-1,9
 652 614 652 614 699 585 c 128,-1,10
 746 556 746 556 776 510.5 c 128,-1,11
 806 465 806 465 806 401 c 0,12,13
 806 371 806 371 793 349.5 c 128,-1,14
 780 328 780 328 758.5 314 c 128,-1,15
 737 300 737 300 710 294 c 128,-1,16
 683 288 683 288 655 289 c 128,-1,17
 627 290 627 290 600.5 298.5 c 128,-1,18
 574 307 574 307 555 321 c 1,19,20
 498 273 498 273 454 254 c 128,-1,21
 410 235 410 235 378 236.5 c 128,-1,22
 346 238 346 238 328.5 256 c 128,-1,23
 311 274 311 274 309 300 c 128,-1,24
 307 326 307 326 320 355.5 c 128,-1,25
 333 385 333 385 363.5 410 c 128,-1,26
 394 435 394 435 441.5 451 c 0,27,28
 489 466 489 466 555 466 c 1,29,30
 582 468 582 468 596 461.5 c 128,-1,31
 610 455 610 455 617 442.5 c 128,-1,32
 624 430 624 430 627.5 415 c 128,-1,33
 631 400 631 400 637 387.5 c 128,-1,34
 643 375 643 375 653.5 366 c 128,-1,35
 664 357 664 357 687 357 c 0,36,37
 701 357 701 357 714 360 c 128,-1,38
 727 363 727 363 737 369.5 c 128,-1,39
 747 376 747 376 753 386.5 c 128,-1,40
 759 397 759 397 759 412 c 1,41,42
 755 452 755 452 729.5 484.5 c 128,-1,43
 704 517 704 517 666.5 540.5 c 128,-1,44
 629 564 629 564 585.5 578 c 128,-1,45
 542 592 542 592 501 596 c 1,46,47
 422 596 422 596 350 567 c 128,-1,48
 278 538 278 538 222.5 487 c 128,-1,49
 167 436 167 436 134.5 365.5 c 0,50,51
 102 296 102 296 102 212 c 1,52,53
 113 178 113 178 134.5 153 c 128,-1,54
 156 128 156 128 182.5 110 c 128,-1,55
 209 92 209 92 239.5 80.5 c 128,-1,56
 270 69 270 69 300 62 c 128,-1,57
 330 55 330 55 357 51 c 128,-1,58
 384 47 384 47 405 45 c 1,59,60
 484 52 484 52 555.5 61 c 128,-1,61
 627 70 627 70 692.5 89.5 c 128,-1,62
 758 109 758 109 816.5 143 c 128,-1,63
 875 177 875 177 929 233 c 1,64,65
 935 236 935 236 943 236 c 128,-1,66
 951 236 951 236 958.5 233 c 128,-1,67
 966 230 966 230 971 224 c 128,-1,68
 976 218 976 218 977 211 c 1,69,70
 976 179 976 179 953.5 152.5 c 128,-1,71
 931 126 931 126 892.5 104 c 128,-1,72
 854 82 854 82 805.5 64.5 c 128,-1,73
 757 47 757 47 704.5 34 c 128,-1,74
 652 21 652 21 600 12.5 c 128,-1,75
 548 4 548 4 504 0 c 128,-1,76
 460 -4 460 -4 429 -4 c 128,-1,77
 398 -4 398 -4 386 -1 c 1,78,79
 355 -1 355 -1 316.5 1.5 c 128,-1,80
 278 4 278 4 238 12 c 128,-1,81
 198 20 198 20 160 33.5 c 128,-1,82
 122 47 122 47 92 68.5 c 128,-1,83
 62 90 62 90 44 121 c 128,-1,84
 26 152 26 152 26 194 c 0,0,1
538 394 m 1,85,86
 535 409 535 409 518.5 412 c 128,-1,87
 502 415 502 415 479.5 409.5 c 128,-1,88
 457 404 457 404 432 392 c 128,-1,89
 407 380 407 380 388.5 365 c 128,-1,90
 370 350 370 350 360.5 332 c 0,91,92
 350 314 350 314 358 298 c 1,93,94
 366 288 366 288 391.5 291.5 c 128,-1,95
 417 295 417 295 446.5 308.5 c 128,-1,96
 476 322 476 322 502 344 c 128,-1,97
 528 366 528 366 538 394 c 1,85,86
EndSplineSet
EndChar

StartChar: A
Encoding: 65 65 36
Width: 615
VWidth: 768
Flags: HW
LayerCount: 2
Fore
SplineSet
78 13 m 0,0,1
 75 9 75 9 65.5 9.5 c 128,-1,2
 56 10 56 10 46.5 14 c 128,-1,3
 37 18 37 18 29.5 23 c 128,-1,4
 22 28 22 28 24 32 c 0,5,6
 32 52 32 52 48 94.5 c 128,-1,7
 64 137 64 137 84 190.5 c 128,-1,8
 104 244 104 244 126 303.5 c 128,-1,9
 148 363 148 363 168 416.5 c 128,-1,10
 188 470 188 470 203.5 512.5 c 0,11,12
 218 555 218 555 226 576 c 0,13,14
 232 593 232 593 234.5 607.5 c 128,-1,15
 237 622 237 622 242 633 c 128,-1,16
 247 644 247 644 257 649.5 c 128,-1,17
 267 655 267 655 289 655 c 1,18,19
 316 639 316 639 334 617.5 c 128,-1,20
 352 596 352 596 365.5 571 c 0,21,22
 378 546 378 546 388 518 c 2,23,-1
 409 463 l 2,24,25
 419 435 419 435 430.5 408 c 128,-1,26
 442 381 442 381 460 358 c 0,27,28
 466 349 466 349 477.5 346 c 128,-1,29
 489 343 489 343 503 342.5 c 128,-1,30
 517 342 517 342 531.5 343 c 128,-1,31
 546 344 546 344 558 342.5 c 128,-1,32
 570 341 570 341 578 336.5 c 128,-1,33
 586 332 586 332 586 320 c 1,34,35
 589 304 589 304 583 296.5 c 128,-1,36
 577 289 577 289 566 286.5 c 128,-1,37
 555 284 555 284 541 284 c 128,-1,38
 527 284 527 284 515.5 285 c 128,-1,39
 504 286 504 286 496.5 285.5 c 0,40,41
 488 284 488 284 490 280 c 0,42,43
 499 252 499 252 510 218.5 c 128,-1,44
 521 185 521 185 534.5 151.5 c 128,-1,45
 548 118 548 118 564 86.5 c 128,-1,46
 580 55 580 55 598 32 c 1,47,48
 594 28 594 28 584.5 19 c 128,-1,49
 575 10 575 10 565 2.5 c 128,-1,50
 555 -5 555 -5 546.5 -10.5 c 128,-1,51
 538 -16 538 -16 536 -14 c 2,52,-1
 404 266 l 1,53,-1
 148 202 l 1,54,55
 144 187 144 187 138 163 c 128,-1,56
 132 139 132 139 123.5 111.5 c 128,-1,57
 115 84 115 84 103.5 57.5 c 128,-1,58
 92 31 92 31 78 13 c 0,0,1
280 546 m 1,59,60
 276 512 276 512 263.5 476 c 128,-1,61
 251 440 251 440 235.5 404 c 128,-1,62
 220 368 220 368 204.5 335 c 128,-1,63
 189 302 189 302 177 274 c 1,64,65
 204 274 204 274 231 279.5 c 128,-1,66
 258 285 258 285 283.5 293.5 c 128,-1,67
 309 302 309 302 333 312 c 128,-1,68
 357 322 357 322 379 330 c 1,69,70
 377 340 377 340 372.5 358.5 c 128,-1,71
 368 377 368 377 361.5 398.5 c 128,-1,72
 355 420 355 420 347 443 c 128,-1,73
 339 466 339 466 329 486.5 c 128,-1,74
 319 507 319 507 306.5 522.5 c 128,-1,75
 294 538 294 538 280 546 c 1,59,60
EndSplineSet
EndChar

StartChar: B
Encoding: 66 66 37
Width: 682
VWidth: 768
Flags: HW
LayerCount: 2
Fore
SplineSet
61 15 m 1,0,1
 59 75 59 75 55.5 138.5 c 128,-1,2
 52 202 52 202 50 271.5 c 128,-1,3
 48 341 48 341 49 417.5 c 128,-1,4
 50 494 50 494 56 580 c 1,5,6
 46 580 46 580 37 582 c 128,-1,7
 28 584 28 584 28 600 c 0,8,9
 28 611 28 611 37 616.5 c 128,-1,10
 46 622 46 622 61 622 c 1,11,12
 117 634 117 634 177 637 c 128,-1,13
 237 640 237 640 293.5 634 c 128,-1,14
 350 628 350 628 399 614.5 c 128,-1,15
 448 601 448 601 481 581.5 c 128,-1,16
 514 562 514 562 527 537 c 128,-1,17
 540 512 540 512 524.5 483 c 128,-1,18
 509 454 509 454 461 422.5 c 128,-1,19
 413 391 413 391 325 358 c 1,20,21
 441 352 441 352 512.5 335 c 128,-1,22
 584 318 584 318 621 294.5 c 128,-1,23
 658 271 658 271 663 242.5 c 128,-1,24
 668 214 668 214 649.5 184.5 c 128,-1,25
 631 155 631 155 592.5 126 c 128,-1,26
 554 97 554 97 503 72 c 128,-1,27
 452 47 452 47 393.5 28.5 c 128,-1,28
 335 10 335 10 276 1 c 128,-1,29
 217 -8 217 -8 161 -5.5 c 128,-1,30
 105 -3 105 -3 61 15 c 1,0,1
146 62 m 1,31,32
 298 71 298 71 394 98.5 c 128,-1,33
 490 126 490 126 534.5 160 c 128,-1,34
 579 194 579 194 573.5 228 c 128,-1,35
 568 262 568 262 515 283.5 c 128,-1,36
 462 305 462 305 363.5 307.5 c 128,-1,37
 265 310 265 310 123 280 c 1,38,-1
 146 62 l 1,31,32
229 577 m 2,39,-1
 209 577 l 2,40,41
 193 577 193 577 175.5 575.5 c 128,-1,42
 158 574 158 574 142 571 c 128,-1,43
 126 568 126 568 123 561 c 1,44,-1
 113 372 l 1,45,46
 136 372 136 372 171 377 c 128,-1,47
 206 382 206 382 243.5 391 c 128,-1,48
 281 400 281 400 318.5 412.5 c 128,-1,49
 356 425 356 425 386 440 c 128,-1,50
 416 455 416 455 434.5 472.5 c 128,-1,51
 453 490 453 490 453 508 c 0,52,53
 453 525 453 525 439.5 536.5 c 128,-1,54
 426 548 426 548 405 556 c 128,-1,55
 384 564 384 564 358 568 c 128,-1,56
 332 572 332 572 307 574 c 128,-1,57
 282 576 282 576 261 576.5 c 128,-1,58
 240 577 240 577 229 577 c 2,39,-1
EndSplineSet
EndChar

StartChar: C
Encoding: 67 67 38
Width: 679
VWidth: 768
Flags: HW
LayerCount: 2
Fore
SplineSet
20 234 m 0,0,1
 20 311 20 311 48 381.5 c 128,-1,2
 76 452 76 452 124 506 c 128,-1,3
 172 560 172 560 238 591.5 c 128,-1,4
 304 623 304 623 380 623 c 0,5,6
 411 623 411 623 431.5 619.5 c 128,-1,7
 452 616 452 616 465 605.5 c 128,-1,8
 478 595 478 595 483.5 574.5 c 128,-1,9
 489 554 489 554 489 520 c 1,10,11
 445 564 445 564 397.5 575 c 128,-1,12
 350 586 350 586 305 573 c 128,-1,13
 260 560 260 560 219.5 526.5 c 128,-1,14
 179 493 179 493 150.5 448.5 c 128,-1,15
 122 404 122 404 107 351.5 c 128,-1,16
 92 299 92 299 98 249 c 1,17,18
 98 202 98 202 114.5 166 c 128,-1,19
 131 130 131 130 160 107 c 128,-1,20
 189 84 189 84 228 72.5 c 128,-1,21
 267 61 267 61 311 61 c 1,22,23
 367 65 367 65 409 79.5 c 128,-1,24
 451 94 451 94 485.5 114 c 128,-1,25
 520 134 520 134 552 158 c 128,-1,26
 584 182 584 182 620 204 c 1,27,28
 627 204 627 204 633.5 203 c 128,-1,29
 640 202 640 202 646 200 c 128,-1,30
 652 198 652 198 656 193 c 128,-1,31
 660 188 660 188 660 179 c 1,32,33
 622 146 622 146 579 113 c 128,-1,34
 536 80 536 80 487.5 54 c 128,-1,35
 439 28 439 28 386 13 c 0,36,37
 334 -2 334 -2 278 -1 c 1,38,39
 228 -1 228 -1 181.5 16 c 128,-1,40
 135 33 135 33 99 64 c 128,-1,41
 63 95 63 95 41.5 138.5 c 128,-1,42
 20 182 20 182 20 234 c 0,0,1
EndSplineSet
EndChar

StartChar: D
Encoding: 68 68 39
Width: 622
VWidth: 768
Flags: HW
LayerCount: 2
Fore
SplineSet
36 598 m 1,0,-1
 49 598 l 2,1,2
 59 598 59 598 69 596 c 128,-1,3
 79 594 79 594 87.5 589.5 c 128,-1,4
 96 585 96 585 98 576 c 1,5,6
 118 583 118 583 150.5 589 c 128,-1,7
 183 595 183 595 222 597.5 c 128,-1,8
 261 600 261 600 304 599 c 128,-1,9
 347 598 347 598 389 591 c 128,-1,10
 431 584 431 584 469 569.5 c 128,-1,11
 507 555 507 555 536 531.5 c 128,-1,12
 565 508 565 508 581.5 475 c 128,-1,13
 598 442 598 442 598 397 c 1,14,15
 602 356 602 356 585 315.5 c 128,-1,16
 568 275 568 275 537 237.5 c 128,-1,17
 506 200 506 200 463 166.5 c 128,-1,18
 420 133 420 133 372.5 105 c 128,-1,19
 325 77 325 77 275 55.5 c 128,-1,20
 225 34 225 34 180 22 c 128,-1,21
 135 10 135 10 97 7 c 128,-1,22
 59 4 59 4 36 13 c 1,23,-1
 36 598 l 1,0,-1
536 389 m 1,24,25
 531 435 531 435 505 465.5 c 128,-1,26
 479 496 479 496 441.5 513.5 c 128,-1,27
 404 531 404 531 359 537.5 c 128,-1,28
 314 544 314 544 269 542.5 c 128,-1,29
 224 541 224 541 183 533 c 128,-1,30
 142 525 142 525 115 514 c 1,31,-1
 115 67 l 1,32,33
 146 67 146 67 189 79.5 c 128,-1,34
 232 92 232 92 279 114.5 c 128,-1,35
 326 137 326 137 372 168.5 c 128,-1,36
 418 200 418 200 454 235.5 c 128,-1,37
 490 271 490 271 513 310 c 128,-1,38
 536 349 536 349 536 389 c 1,24,25
EndSplineSet
EndChar

StartChar: E
Encoding: 69 69 40
Width: 567
VWidth: 768
Flags: HW
LayerCount: 2
Fore
SplineSet
32 598 m 1,0,1
 52 593 52 593 86 592 c 128,-1,2
 120 591 120 591 161 591.5 c 128,-1,3
 202 592 202 592 246.5 594 c 128,-1,4
 291 596 291 596 331 596 c 128,-1,5
 371 596 371 596 404 593 c 128,-1,6
 437 590 437 590 456 584 c 1,7,-1
 456 537 l 1,8,9
 430 533 430 533 386 532.5 c 128,-1,10
 342 532 342 532 292 531.5 c 128,-1,11
 242 531 242 531 191.5 528.5 c 0,12,13
 142 526 142 526 104 518 c 1,14,15
 97 487 97 487 94 466.5 c 128,-1,16
 91 446 91 446 89.5 430.5 c 128,-1,17
 88 415 88 415 88.5 401.5 c 128,-1,18
 89 388 89 388 90.5 372.5 c 128,-1,19
 92 357 92 357 93 336.5 c 128,-1,20
 94 316 94 316 94 287 c 1,21,22
 142 287 142 287 187 292 c 128,-1,23
 232 297 232 297 277 303.5 c 128,-1,24
 322 310 322 310 367 315 c 128,-1,25
 412 320 412 320 459 320 c 1,26,-1
 459 268 l 1,27,-1
 100 224 l 1,28,-1
 106 70 l 1,29,30
 176 70 176 70 233 74 c 128,-1,31
 290 78 290 78 341.5 82.5 c 128,-1,32
 393 87 393 87 443.5 91 c 128,-1,33
 494 95 494 95 550 95 c 1,34,35
 550 87 550 87 545.5 75.5 c 128,-1,36
 541 64 541 64 533.5 54.5 c 128,-1,37
 526 45 526 45 516.5 40 c 128,-1,38
 507 35 507 35 498 42 c 1,39,40
 446 36 446 36 383.5 30.5 c 128,-1,41
 321 25 321 25 257 19.5 c 128,-1,42
 193 14 193 14 133.5 9 c 128,-1,43
 74 4 74 4 28 0 c 1,44,-1
 32 598 l 1,0,1
EndSplineSet
EndChar

StartChar: F
Encoding: 70 70 41
Width: 664
VWidth: 768
Flags: HW
LayerCount: 2
Fore
SplineSet
88 156 m 1,0,1
 54 160 54 160 43.5 168 c 128,-1,2
 33 176 33 176 37 186 c 128,-1,3
 41 196 41 196 56 210 c 128,-1,4
 71 224 71 224 89 241 c 1,5,6
 89 281 89 281 81.5 320 c 128,-1,7
 74 359 74 359 65 397.5 c 128,-1,8
 56 436 56 436 48 475 c 128,-1,9
 40 514 40 514 40 554 c 0,10,11
 40 578 40 578 50 586 c 128,-1,12
 60 594 60 594 84 594 c 0,13,14
 98 594 98 594 103.5 589 c 128,-1,15
 109 584 109 584 110.5 576.5 c 128,-1,16
 112 569 112 569 112.5 560.5 c 128,-1,17
 113 552 113 552 115.5 544.5 c 128,-1,18
 118 537 118 537 124.5 532 c 0,19,20
 132 527 132 527 146 527 c 0,21,22
 209 528 209 528 271.5 538 c 128,-1,23
 334 548 334 548 396.5 558 c 128,-1,24
 459 568 459 568 521.5 574.5 c 128,-1,25
 584 581 584 581 649 576 c 1,26,27
 650 558 650 558 653 545 c 128,-1,28
 656 532 656 532 655.5 523 c 128,-1,29
 655 514 655 514 649 511 c 128,-1,30
 643 508 643 508 625 512 c 1,31,32
 606 511 606 511 575 509.5 c 128,-1,33
 544 508 544 508 506 506.5 c 128,-1,34
 468 505 468 505 425.5 502.5 c 128,-1,35
 383 500 383 500 342 496 c 128,-1,36
 301 492 301 492 263.5 487 c 128,-1,37
 226 482 226 482 197.5 474.5 c 128,-1,38
 169 467 169 467 151.5 458.5 c 128,-1,39
 134 450 134 450 134 439 c 0,40,41
 134 434 134 434 135 419 c 128,-1,42
 136 404 136 404 137.5 385 c 128,-1,43
 139 366 139 366 141.5 345.5 c 128,-1,44
 144 325 144 325 147.5 308 c 128,-1,45
 151 291 151 291 155.5 279.5 c 128,-1,46
 160 268 160 268 165 268 c 0,47,48
 218 268 218 268 273 277 c 128,-1,49
 328 286 328 286 383 297.5 c 128,-1,50
 438 309 438 309 493 318 c 128,-1,51
 548 327 548 327 602 327 c 0,52,53
 604 327 604 327 603 320.5 c 128,-1,54
 602 314 602 314 601.5 305 c 128,-1,55
 601 296 601 296 600 289 c 0,56,57
 600 283 600 283 601 282 c 1,58,59
 578 269 578 269 539 260 c 128,-1,60
 500 251 500 251 454.5 244.5 c 128,-1,61
 409 238 409 238 361.5 233 c 128,-1,62
 314 228 314 228 273 221.5 c 128,-1,63
 232 215 232 215 203 207 c 128,-1,64
 174 199 174 199 166 187 c 1,65,-1
 155 3 l 1,66,67
 149 -3 149 -3 141.5 -5 c 128,-1,68
 134 -7 134 -7 125 -6.5 c 128,-1,69
 116 -6 116 -6 107 -5 c 128,-1,70
 98 -4 98 -4 88 -4 c 1,71,-1
 88 156 l 1,0,1
EndSplineSet
EndChar

StartChar: G
Encoding: 71 71 42
Width: 664
VWidth: 768
Flags: HW
LayerCount: 2
Fore
SplineSet
465 126 m 1,0,1
 438 107 438 107 406.5 85 c 128,-1,2
 375 63 375 63 341 44.5 c 128,-1,3
 307 26 307 26 271.5 13.5 c 128,-1,4
 236 1 236 1 200 1 c 256,5,6
 164 1 164 1 131 15.5 c 128,-1,7
 98 30 98 30 73.5 55 c 128,-1,8
 49 80 49 80 34.5 112.5 c 128,-1,9
 20 145 20 145 20 181 c 1,10,11
 23 231 23 231 36.5 282.5 c 128,-1,12
 50 334 50 334 72 382 c 128,-1,13
 94 430 94 430 125.5 472 c 128,-1,14
 157 514 157 514 197 545 c 128,-1,15
 237 576 237 576 285.5 593.5 c 0,16,17
 334 610 334 610 392 610 c 0,18,19
 402 610 402 610 413.5 610.5 c 128,-1,20
 425 611 425 611 435.5 609 c 128,-1,21
 446 607 446 607 452 599.5 c 128,-1,22
 458 592 458 592 457 578 c 1,23,24
 381 574 381 574 315.5 543 c 128,-1,25
 250 512 250 512 202 460 c 128,-1,26
 154 408 154 408 126 338 c 128,-1,27
 98 268 98 268 98 188 c 0,28,29
 98 156 98 156 108 132.5 c 128,-1,30
 118 109 118 109 136 93 c 128,-1,31
 154 77 154 77 178.5 69 c 0,32,33
 202 61 202 61 232 61 c 0,34,35
 246 61 246 61 269.5 66.5 c 128,-1,36
 293 72 293 72 319.5 82 c 128,-1,37
 346 92 346 92 373 105 c 128,-1,38
 400 118 400 118 422.5 134.5 c 128,-1,39
 445 151 445 151 458.5 168.5 c 128,-1,40
 472 186 472 186 472 204 c 2,41,-1
 472 343 l 1,42,43
 462 344 462 344 443 341 c 128,-1,44
 424 338 424 338 399.5 333 c 128,-1,45
 375 328 375 328 348.5 322.5 c 128,-1,46
 322 317 322 317 298 312 c 128,-1,47
 274 307 274 307 254 302.5 c 128,-1,48
 234 298 234 298 224 297 c 1,49,50
 219 299 219 299 212.5 302.5 c 128,-1,51
 206 306 206 306 205 312.5 c 128,-1,52
 204 319 204 319 212.5 329.5 c 128,-1,53
 221 340 221 340 246 356 c 0,54,55
 248 357 248 357 266.5 360.5 c 128,-1,56
 285 364 285 364 314 368.5 c 128,-1,57
 343 373 343 373 378 378.5 c 128,-1,58
 413 384 413 384 448 389 c 128,-1,59
 483 394 483 394 514 399 c 0,60,61
 546 404 546 404 566 406 c 1,62,63
 576 404 576 404 589.5 407 c 128,-1,64
 603 410 603 410 615.5 409 c 128,-1,65
 628 408 628 408 636.5 401.5 c 0,66,67
 646 395 646 395 644 376 c 1,68,-1
 566 344 l 1,69,70
 559 322 559 322 555 291.5 c 128,-1,71
 551 261 551 261 549.5 226.5 c 128,-1,72
 548 192 548 192 548 155 c 128,-1,73
 548 118 548 118 548.5 82.5 c 128,-1,74
 549 47 549 47 549.5 14 c 128,-1,75
 550 -19 550 -19 550 -46 c 1,76,77
 545 -49 545 -49 532 -53 c 128,-1,78
 519 -57 519 -57 505 -59 c 128,-1,79
 491 -61 491 -61 479.5 -58.5 c 128,-1,80
 468 -56 468 -56 465 -46 c 1,81,-1
 465 126 l 1,0,1
EndSplineSet
EndChar

StartChar: H
Encoding: 72 72 43
Width: 581
VWidth: 768
Flags: HW
LayerCount: 2
Fore
SplineSet
52 249 m 1,0,1
 38 251 38 251 29 255.5 c 128,-1,2
 20 260 20 260 20 272 c 0,3,4
 20 282 20 282 27 291.5 c 128,-1,5
 34 301 34 301 42.5 311 c 128,-1,6
 51 321 51 321 58.5 332.5 c 128,-1,7
 66 344 66 344 68 358 c 0,8,9
 69 368 69 368 70 388.5 c 128,-1,10
 71 409 71 409 73 435 c 128,-1,11
 75 461 75 461 76.5 490 c 128,-1,12
 78 519 78 519 79.5 545.5 c 128,-1,13
 81 572 81 572 82 592.5 c 0,14,15
 83 612 83 612 83 622 c 1,16,17
 88 628 88 628 97 636 c 128,-1,18
 106 644 106 644 115 648.5 c 128,-1,19
 124 653 124 653 132.5 652 c 0,20,21
 142 651 142 651 146 638 c 1,22,-1
 140 343 l 1,23,24
 143 344 143 344 160.5 344 c 128,-1,25
 178 344 178 344 204.5 344 c 128,-1,26
 231 344 231 344 263 345.5 c 128,-1,27
 295 347 295 347 325 350.5 c 128,-1,28
 355 354 355 354 379.5 359 c 128,-1,29
 404 364 404 364 418 374 c 1,30,-1
 418 670 l 1,31,32
 420 676 420 676 428.5 679 c 128,-1,33
 437 682 437 682 448.5 684 c 128,-1,34
 460 686 460 686 471 686 c 128,-1,35
 482 686 482 686 488 685 c 1,36,37
 488 668 488 668 489 631 c 128,-1,38
 490 594 490 594 491.5 548 c 128,-1,39
 493 502 493 502 494.5 451 c 128,-1,40
 496 400 496 400 498 354.5 c 128,-1,41
 500 309 500 309 501 272.5 c 128,-1,42
 502 236 502 236 503 218 c 0,43,44
 506 168 506 168 516 121.5 c 0,45,46
 526 76 526 76 550 32 c 1,47,48
 530 25 530 25 509.5 20 c 128,-1,49
 489 15 489 15 457 15 c 1,50,51
 431 80 431 80 421.5 153.5 c 0,52,53
 412 228 412 228 410 296 c 1,54,55
 371 297 371 297 339.5 297 c 128,-1,56
 308 297 308 297 278 294.5 c 128,-1,57
 248 292 248 292 216 285 c 128,-1,58
 184 278 184 278 146 265 c 1,59,60
 141 210 141 210 144.5 151.5 c 0,61,62
 148 94 148 94 160 32 c 1,63,-1
 86 -6 l 1,64,-1
 52 249 l 1,0,1
EndSplineSet
EndChar

StartChar: I
Encoding: 73 73 44
Width: 145
VWidth: 768
Flags: HW
LayerCount: 2
Fore
SplineSet
36 15 m 1,0,1
 31 26 31 26 28.5 54 c 128,-1,2
 26 82 26 82 25 120 c 128,-1,3
 24 158 24 158 25 203 c 128,-1,4
 26 248 26 248 27 293.5 c 128,-1,5
 28 339 28 339 29.5 381.5 c 128,-1,6
 31 424 31 424 32.5 456.5 c 128,-1,7
 34 489 34 489 35 509 c 0,8,-1
 36 530 l 0,9,10
 47 537 47 537 55.5 541 c 128,-1,11
 64 545 64 545 76 545 c 0,12,13
 83 545 83 545 90.5 542 c 0,14,15
 98 540 98 540 98 530 c 2,16,-1
 98 15 l 2,17,18
 98 5 98 5 90 2 c 128,-1,19
 82 -1 82 -1 76 -1 c 0,20,21
 65 -1 65 -1 56 3.5 c 128,-1,22
 47 8 47 8 36 15 c 1,0,1
EndSplineSet
EndChar

StartChar: J
Encoding: 74 74 45
Width: 508
VWidth: 768
Flags: HW
LayerCount: 2
Fore
SplineSet
8 171 m 1,0,1
 8 182 8 182 14 194 c 128,-1,2
 20 206 20 206 28.5 216 c 128,-1,3
 37 226 37 226 47.5 232 c 128,-1,4
 58 238 58 238 68 238 c 1,5,6
 69 203 69 203 82 176 c 128,-1,7
 95 149 95 149 117.5 129.5 c 128,-1,8
 140 110 140 110 169 98 c 128,-1,9
 198 86 198 86 230 79.5 c 128,-1,10
 262 73 262 73 294.5 71.5 c 128,-1,11
 327 70 327 70 356 74 c 1,12,13
 372 82 372 82 382 108.5 c 128,-1,14
 392 135 392 135 396 173 c 128,-1,15
 400 211 400 211 401.5 256.5 c 128,-1,16
 403 302 403 302 402 348.5 c 128,-1,17
 401 395 401 395 400.5 438.5 c 128,-1,18
 400 482 400 482 400 516 c 128,-1,19
 400 550 400 550 403.5 570.5 c 0,20,21
 408 591 408 591 416 591 c 2,22,-1
 478 591 l 1,23,24
 478 580 478 580 480 552 c 128,-1,25
 482 524 482 524 483.5 486 c 128,-1,26
 485 448 485 448 486.5 402 c 128,-1,27
 488 356 488 356 486 308 c 128,-1,28
 484 260 484 260 479.5 213 c 128,-1,29
 475 166 475 166 464.5 126.5 c 128,-1,30
 454 87 454 87 439 57.5 c 128,-1,31
 424 28 424 28 400 15 c 0,32,33
 378 3 378 3 343 0.5 c 128,-1,34
 308 -2 308 -2 266.5 3.5 c 128,-1,35
 225 9 225 9 182 23 c 128,-1,36
 139 37 139 37 102.5 58 c 128,-1,37
 66 79 66 79 40.5 107.5 c 128,-1,38
 15 136 15 136 8 171 c 1,0,1
EndSplineSet
EndChar

StartChar: K
Encoding: 75 75 46
Width: 581
VWidth: 768
Flags: HW
LayerCount: 2
Fore
SplineSet
41 22 m 0,0,1
 45 33 45 33 47.5 63.5 c 128,-1,2
 50 94 50 94 51.5 138 c 128,-1,3
 53 182 53 182 54.5 234 c 128,-1,4
 56 286 56 286 57 340 c 128,-1,5
 58 394 58 394 60 446.5 c 128,-1,6
 62 499 62 499 66 541.5 c 128,-1,7
 70 584 70 584 75 614 c 128,-1,8
 80 644 80 644 88 653 c 1,9,10
 90 662 90 662 99 666.5 c 128,-1,11
 108 671 108 671 118.5 673 c 128,-1,12
 129 675 129 675 139 675 c 2,13,-1
 152 675 l 1,14,15
 151 662 151 662 150 640 c 128,-1,16
 149 618 149 618 147.5 591 c 128,-1,17
 146 564 146 564 144 534.5 c 128,-1,18
 142 505 142 505 140.5 477.5 c 128,-1,19
 139 450 139 450 137.5 427 c 128,-1,20
 136 404 136 404 135 389 c 1,21,22
 196 421 196 421 252.5 456.5 c 128,-1,23
 309 492 309 492 358.5 522.5 c 128,-1,24
 408 553 408 553 448 573 c 128,-1,25
 488 593 488 593 517 593 c 0,26,27
 527 593 527 593 534 585.5 c 128,-1,28
 541 578 541 578 541 568 c 0,29,30
 541 553 541 553 523.5 536.5 c 128,-1,31
 506 520 506 520 477 501 c 128,-1,32
 448 482 448 482 412 462 c 128,-1,33
 376 442 376 442 338 423 c 128,-1,34
 300 404 300 404 263.5 384.5 c 128,-1,35
 227 365 227 365 198.5 347.5 c 128,-1,36
 170 330 170 330 152.5 315 c 128,-1,37
 135 300 135 300 135 288 c 1,38,39
 151 278 151 278 190.5 260.5 c 128,-1,40
 230 243 230 243 278.5 221.5 c 128,-1,41
 327 200 327 200 378.5 174.5 c 128,-1,42
 430 149 430 149 473.5 124.5 c 128,-1,43
 517 100 517 100 544.5 76 c 128,-1,44
 572 52 572 52 571 32 c 0,45,46
 571 24 571 24 566 20 c 128,-1,47
 561 16 561 16 554.5 15 c 128,-1,48
 548 14 548 14 542 14 c 2,49,-1
 532 14 l 2,50,51
 502 14 502 14 475 24 c 128,-1,52
 448 34 448 34 421 50 c 128,-1,53
 394 66 394 66 364.5 86.5 c 128,-1,54
 335 107 335 107 300 128 c 128,-1,55
 265 149 265 149 223 168.5 c 0,56,57
 182 188 182 188 128 202 c 1,58,-1
 128 15 l 1,59,60
 126 11 126 11 110.5 6.5 c 128,-1,61
 95 2 95 2 78.5 0.5 c 128,-1,62
 62 -1 62 -1 49.5 3.5 c 128,-1,63
 37 8 37 8 41 22 c 0,0,1
EndSplineSet
EndChar

StartChar: L
Encoding: 76 76 47
Width: 664
VWidth: 768
Flags: HW
LayerCount: 2
Fore
SplineSet
52 20 m 1,0,1
 60 52 60 52 64.5 104.5 c 128,-1,2
 69 157 69 157 71.5 218.5 c 128,-1,3
 74 280 74 280 74.5 346 c 128,-1,4
 75 412 75 412 74.5 470.5 c 128,-1,5
 74 529 74 529 74 574.5 c 128,-1,6
 74 620 74 620 74 643 c 1,7,-1
 148 640 l 1,8,-1
 140 91 l 1,9,-1
 634 77 l 1,10,11
 650 73 650 73 648 61 c 128,-1,12
 646 49 646 49 633.5 37.5 c 128,-1,13
 621 26 621 26 599.5 18 c 128,-1,14
 578 10 578 10 555 15 c 1,15,-1
 52 20 l 1,0,1
EndSplineSet
EndChar

StartChar: M
Encoding: 77 77 48
Width: 794
VWidth: 768
Flags: HW
LayerCount: 2
Fore
SplineSet
680 46 m 1,0,1
 678 60 678 60 674.5 88 c 128,-1,2
 671 116 671 116 666.5 151.5 c 128,-1,3
 662 187 662 187 657 226 c 128,-1,4
 652 265 652 265 647.5 300 c 128,-1,5
 643 335 643 335 639 363.5 c 128,-1,6
 635 392 635 392 634 405 c 1,7,8
 634 425 634 425 633 440.5 c 128,-1,9
 632 456 632 456 625.5 459.5 c 128,-1,10
 619 463 619 463 605.5 450 c 128,-1,11
 592 437 592 437 567.5 399.5 c 128,-1,12
 543 362 543 362 506 295.5 c 0,13,14
 470 228 470 228 416 124 c 0,15,16
 411 114 411 114 401.5 110.5 c 128,-1,17
 392 107 392 107 381 113.5 c 128,-1,18
 370 120 370 120 358 137.5 c 128,-1,19
 346 155 346 155 338 187 c 1,20,-1
 165 554 l 1,21,22
 159 543 159 543 153.5 518 c 128,-1,23
 148 493 148 493 144 461 c 128,-1,24
 140 429 140 429 136 392.5 c 128,-1,25
 132 356 132 356 129 321 c 128,-1,26
 126 286 126 286 124 255 c 128,-1,27
 122 224 122 224 120 202 c 1,28,29
 116 178 116 178 116.5 155.5 c 128,-1,30
 117 133 117 133 118 113 c 128,-1,31
 119 93 119 93 119 76.5 c 128,-1,32
 119 60 119 60 113.5 49 c 128,-1,33
 108 38 108 38 95 33 c 128,-1,34
 82 28 82 28 57 30 c 1,35,36
 41 30 41 30 33 38 c 128,-1,37
 25 46 25 46 26 62 c 0,38,39
 30 91 30 91 35 137.5 c 128,-1,40
 40 184 40 184 47 237 c 128,-1,41
 54 290 54 290 61 344 c 128,-1,42
 68 398 68 398 74 443.5 c 128,-1,43
 80 489 80 489 83.5 521 c 0,44,45
 86 553 86 553 88 561 c 0,46,47
 91 582 91 582 95 597 c 128,-1,48
 99 612 99 612 106.5 622 c 128,-1,49
 114 632 114 632 127 636 c 128,-1,50
 140 640 140 640 160 640 c 1,51,52
 188 626 188 626 213 596 c 128,-1,53
 238 566 238 566 259 528 c 128,-1,54
 280 490 280 490 298.5 448 c 128,-1,55
 317 406 317 406 334 369 c 128,-1,56
 351 332 351 332 367 304 c 128,-1,57
 383 276 383 276 399 265 c 1,58,-1
 586 591 l 1,59,60
 612 610 612 610 631 604 c 128,-1,61
 650 598 650 598 664.5 574 c 128,-1,62
 679 550 679 550 689.5 511 c 128,-1,63
 700 472 700 472 708 426 c 128,-1,64
 716 380 716 380 722 328.5 c 128,-1,65
 728 277 728 277 734 228 c 128,-1,66
 740 179 740 179 746 136 c 128,-1,67
 752 93 752 93 759 62 c 1,68,69
 764 30 764 30 754 16 c 128,-1,70
 744 2 744 2 729 2 c 128,-1,71
 714 2 714 2 699 13.5 c 128,-1,72
 684 25 684 25 680 46 c 1,0,1
EndSplineSet
EndChar

StartChar: N
Encoding: 78 78 49
Width: 602
VWidth: 768
Flags: HW
LayerCount: 2
Fore
SplineSet
478 3 m 1,0,1
 443 65 443 65 397.5 127.5 c 128,-1,2
 352 190 352 190 304 253 c 128,-1,3
 256 316 256 316 209 379 c 128,-1,4
 162 442 162 442 123 505 c 1,5,6
 116 476 116 476 112.5 437 c 128,-1,7
 109 398 109 398 107 353.5 c 128,-1,8
 105 309 105 309 104.5 262 c 128,-1,9
 104 215 104 215 104 169.5 c 128,-1,10
 104 124 104 124 103.5 83 c 0,11,12
 102 42 102 42 100 10 c 1,13,14
 87 -1 87 -1 77.5 -4.5 c 128,-1,15
 68 -8 68 -8 53 -8 c 0,16,17
 39 -8 39 -8 30.5 -3 c 128,-1,18
 22 2 22 2 23 25 c 1,19,20
 27 63 27 63 31 113 c 128,-1,21
 35 163 35 163 37.5 218 c 128,-1,22
 40 273 40 273 42 331.5 c 128,-1,23
 44 390 44 390 44.5 445 c 128,-1,24
 45 500 45 500 45 550 c 0,25,26
 46 600 46 600 44 638 c 1,27,28
 59 652 59 652 68.5 661 c 128,-1,29
 78 670 78 670 87.5 670 c 128,-1,30
 97 670 97 670 108 660 c 128,-1,31
 119 650 119 650 136.5 627 c 128,-1,32
 154 604 154 604 180 566.5 c 128,-1,33
 206 529 206 529 245 473.5 c 128,-1,34
 284 418 284 418 339 343 c 128,-1,35
 394 268 394 268 470 172 c 1,36,-1
 488 638 l 1,37,38
 498 657 498 657 508 664 c 128,-1,39
 518 671 518 671 536 671 c 0,40,41
 552 671 552 671 558.5 659.5 c 128,-1,42
 565 648 565 648 567 632 c 128,-1,43
 569 616 569 616 568 600.5 c 128,-1,44
 567 585 567 585 567 577 c 0,45,46
 567 548 567 548 567.5 498 c 128,-1,47
 568 448 568 448 568.5 390 c 128,-1,48
 569 332 569 332 568.5 270 c 128,-1,49
 568 208 568 208 566 153 c 128,-1,50
 564 98 564 98 559.5 56.5 c 128,-1,51
 555 15 555 15 547 -3 c 1,52,-1
 478 3 l 1,0,1
EndSplineSet
EndChar

StartChar: O
Encoding: 79 79 50
Width: 643
VWidth: 768
Flags: HW
LayerCount: 2
Fore
SplineSet
21 280 m 0,0,1
 21 344 21 344 43 398 c 128,-1,2
 65 452 65 452 103.5 489.5 c 128,-1,3
 142 527 142 527 194.5 548 c 0,4,5
 248 569 248 569 308 569 c 0,6,7
 366 569 366 569 421 554.5 c 128,-1,8
 476 540 476 540 519 509 c 128,-1,9
 562 478 562 478 588 430.5 c 0,10,11
 614 382 614 382 614 316 c 0,12,13
 614 162 614 162 541.5 88 c 128,-1,14
 469 14 469 14 318 14 c 0,15,16
 254 14 254 14 200 29 c 128,-1,17
 146 44 146 44 106 75.5 c 128,-1,18
 66 107 66 107 43.5 157.5 c 128,-1,19
 21 208 21 208 21 280 c 0,0,1
98 296 m 0,20,21
 98 184 98 184 153.5 129 c 128,-1,22
 209 74 209 74 320 74 c 0,23,24
 376 74 376 74 421.5 91.5 c 128,-1,25
 467 109 467 109 499.5 140 c 128,-1,26
 532 171 532 171 549.5 214 c 128,-1,27
 567 257 567 257 567 310 c 256,28,29
 567 362 567 362 544.5 399 c 128,-1,30
 522 436 522 436 486 460 c 128,-1,31
 450 484 450 484 404 494.5 c 128,-1,32
 358 505 358 505 310 505 c 0,33,34
 268 505 268 505 229.5 488.5 c 128,-1,35
 191 472 191 472 162 444 c 128,-1,36
 133 416 133 416 115.5 378 c 128,-1,37
 98 340 98 340 98 296 c 0,20,21
EndSplineSet
EndChar

StartChar: P
Encoding: 80 80 51
Width: 612
VWidth: 768
Flags: HW
LayerCount: 2
Fore
SplineSet
352 576 m 0,0,1
 363 576 363 576 386 574.5 c 128,-1,2
 409 573 409 573 436 568.5 c 128,-1,3
 463 564 463 564 491.5 556.5 c 128,-1,4
 520 549 520 549 543.5 537 c 128,-1,5
 567 525 567 525 582 507.5 c 128,-1,6
 597 490 597 490 597 467 c 0,7,8
 597 416 597 416 570.5 378 c 128,-1,9
 544 340 544 340 501 312.5 c 128,-1,10
 458 285 458 285 405 267 c 128,-1,11
 352 249 352 249 298 238.5 c 128,-1,12
 244 228 244 228 196 224 c 128,-1,13
 148 220 148 220 115 220 c 1,14,-1
 110 10 l 2,15,16
 110 3 110 3 100.5 0.5 c 128,-1,17
 91 -2 91 -2 77.5 -2 c 128,-1,18
 64 -2 64 -2 52 -0.5 c 128,-1,19
 40 1 40 1 36 0 c 1,20,21
 36 54 36 54 35.5 107 c 128,-1,22
 35 160 35 160 36 218 c 1,23,24
 41 288 41 288 43.5 343 c 128,-1,25
 46 398 46 398 54 437.5 c 128,-1,26
 62 477 62 477 78.5 503.5 c 128,-1,27
 95 530 95 530 128.5 546 c 128,-1,28
 162 562 162 562 216 569 c 128,-1,29
 270 576 270 576 352 576 c 0,0,1
130 424 m 0,30,31
 128 413 128 413 124.5 397 c 128,-1,32
 121 381 121 381 117.5 364 c 128,-1,33
 114 347 114 347 113 331 c 128,-1,34
 112 315 112 315 116.5 302.5 c 128,-1,35
 121 290 121 290 132.5 283.5 c 128,-1,36
 144 277 144 277 166 280 c 1,37,38
 188 280 188 280 223 282.5 c 128,-1,39
 258 285 258 285 297.5 291.5 c 128,-1,40
 337 298 337 298 376.5 309.5 c 128,-1,41
 416 321 416 321 448 338.5 c 128,-1,42
 480 356 480 356 500 380.5 c 128,-1,43
 520 405 520 405 520 438 c 1,44,45
 515 462 515 462 496 479 c 128,-1,46
 477 496 477 496 449 505.5 c 128,-1,47
 421 515 421 515 387 518.5 c 128,-1,48
 353 522 353 522 318.5 520 c 128,-1,49
 284 518 284 518 251 510 c 128,-1,50
 218 502 218 502 191.5 490 c 128,-1,51
 165 478 165 478 148.5 461 c 128,-1,52
 132 444 132 444 130 424 c 0,30,31
EndSplineSet
EndChar

StartChar: Q
Encoding: 81 81 52
Width: 684
VWidth: 768
Flags: HW
LayerCount: 2
Fore
SplineSet
26 217 m 0,0,1
 26 289 26 289 46.5 356.5 c 128,-1,2
 67 424 67 424 107.5 477 c 128,-1,3
 148 530 148 530 207 561.5 c 128,-1,4
 266 593 266 593 342 593 c 1,5,6
 416 597 416 597 469.5 577 c 128,-1,7
 523 557 523 557 556.5 521.5 c 128,-1,8
 590 486 590 486 605 439 c 128,-1,9
 620 392 620 392 618.5 341 c 128,-1,10
 617 290 617 290 600.5 239.5 c 128,-1,11
 584 189 584 189 555 148 c 1,12,13
 552 134 552 134 558.5 124 c 128,-1,14
 565 114 565 114 576 107 c 128,-1,15
 587 100 587 100 601 94.5 c 128,-1,16
 615 89 615 89 626.5 82.5 c 128,-1,17
 638 76 638 76 645 67.5 c 0,18,19
 652 58 652 58 649 46 c 1,20,21
 645 44 645 44 637.5 41 c 128,-1,22
 630 38 630 38 622.5 36 c 128,-1,23
 615 34 615 34 609 32.5 c 0,24,25
 603 32 603 32 602 32 c 0,26,27
 590 34 590 34 580 41 c 128,-1,28
 570 48 570 48 560 56 c 128,-1,29
 550 64 550 64 539.5 70.5 c 128,-1,30
 529 77 529 77 517 79 c 1,31,32
 497 61 497 61 468.5 46.5 c 128,-1,33
 440 32 440 32 407 21 c 128,-1,34
 374 10 374 10 337.5 4.5 c 128,-1,35
 301 -1 301 -1 267 -1 c 0,36,37
 222 -1 222 -1 179 15.5 c 128,-1,38
 136 32 136 32 102 61.5 c 128,-1,39
 68 91 68 91 47 131 c 128,-1,40
 26 171 26 171 26 217 c 0,0,1
102 241 m 0,41,42
 102 190 102 190 118 155.5 c 128,-1,43
 134 121 134 121 162 100 c 128,-1,44
 190 79 190 79 228 70 c 128,-1,45
 266 61 266 61 312 61 c 0,46,47
 330 61 330 61 351.5 61.5 c 128,-1,48
 373 62 373 62 394 66 c 128,-1,49
 415 70 415 70 433 79.5 c 128,-1,50
 451 89 451 89 462 109 c 1,51,-1
 291 265 l 2,52,53
 290 265 290 265 290 267.5 c 128,-1,54
 290 270 290 270 290 272 c 0,55,56
 290 281 290 281 293.5 285.5 c 128,-1,57
 297 290 297 290 303 293 c 128,-1,58
 309 296 309 296 315.5 296.5 c 128,-1,59
 322 297 322 297 329 297 c 0,60,61
 355 297 355 297 377.5 282 c 128,-1,62
 400 267 400 267 421.5 246.5 c 128,-1,63
 443 226 443 226 464.5 205 c 128,-1,64
 486 184 486 184 508 171 c 1,65,66
 527 201 527 201 537.5 227 c 128,-1,67
 548 253 548 253 552 278 c 128,-1,68
 556 303 556 303 557 330 c 128,-1,69
 558 357 558 357 558 389 c 1,70,71
 553 423 553 423 542 450 c 128,-1,72
 531 477 531 477 504 496 c 128,-1,73
 477 515 477 515 428 525 c 128,-1,74
 379 535 379 535 298 534 c 0,75,76
 267 534 267 534 240.5 518.5 c 128,-1,77
 214 503 214 503 192 478.5 c 128,-1,78
 170 454 170 454 153 422.5 c 128,-1,79
 136 391 136 391 125 358.5 c 128,-1,80
 114 326 114 326 108 295 c 128,-1,81
 102 264 102 264 102 241 c 0,41,42
EndSplineSet
EndChar

StartChar: R
Encoding: 82 82 53
Width: 684
VWidth: 768
Flags: HW
LayerCount: 2
Fore
SplineSet
136 32 m 2,0,1
 136 24 136 24 130.5 20 c 128,-1,2
 125 16 125 16 118 15 c 128,-1,3
 111 14 111 14 104 14 c 2,4,-1
 94 14 l 2,5,6
 74 14 74 14 65.5 33 c 128,-1,7
 57 52 57 52 54.5 88.5 c 128,-1,8
 52 125 52 125 53 176 c 128,-1,9
 54 227 54 227 55 289.5 c 128,-1,10
 56 352 56 352 54 424 c 128,-1,11
 52 496 52 496 44 576 c 1,12,13
 53 592 53 592 63 593.5 c 128,-1,14
 73 595 73 595 82 589 c 128,-1,15
 91 583 91 583 98.5 573 c 0,16,17
 106 562 106 562 110 556 c 1,18,19
 133 578 133 578 174.5 590 c 128,-1,20
 216 602 216 602 264.5 605 c 128,-1,21
 313 608 313 608 363 602.5 c 128,-1,22
 413 597 413 597 454.5 585 c 128,-1,23
 496 573 496 573 523 555 c 128,-1,24
 550 537 550 537 553 514.5 c 128,-1,25
 556 492 556 492 529 466 c 128,-1,26
 502 440 502 440 434 411 c 0,27,28
 424 407 424 407 402 399 c 128,-1,29
 380 391 380 391 352 381.5 c 128,-1,30
 324 372 324 372 294.5 361.5 c 128,-1,31
 265 351 265 351 238 341 c 128,-1,32
 211 331 211 331 190.5 322.5 c 128,-1,33
 170 314 170 314 162 308 c 1,34,35
 162 304 162 304 166 300 c 128,-1,36
 170 296 170 296 183.5 288 c 128,-1,37
 197 280 197 280 225.5 265 c 128,-1,38
 254 250 254 250 303.5 223 c 128,-1,39
 353 196 353 196 427.5 154.5 c 128,-1,40
 502 113 502 113 608 52 c 0,41,42
 612 49 612 49 617.5 45 c 128,-1,43
 623 41 623 41 628 36 c 128,-1,44
 633 31 633 31 636.5 25.5 c 128,-1,45
 640 20 640 20 640 13 c 0,46,47
 640 3 640 3 633 -2 c 128,-1,48
 626 -7 626 -7 615 -9 c 128,-1,49
 604 -11 604 -11 593 -11 c 2,50,-1
 574 -11 l 2,51,52
 563 -11 563 -11 536.5 4.5 c 128,-1,53
 510 20 510 20 473 44.5 c 128,-1,54
 436 69 436 69 393 99 c 128,-1,55
 350 129 350 129 305 158 c 128,-1,56
 260 187 260 187 216 210.5 c 128,-1,57
 172 234 172 234 136 247 c 1,58,-1
 136 32 l 2,0,1
123 498 m 0,59,60
 116 488 116 488 114 470 c 128,-1,61
 112 452 112 452 115 433.5 c 128,-1,62
 118 415 118 415 123.5 398.5 c 0,63,64
 128 382 128 382 136 374 c 1,65,66
 144 371 144 371 168 376 c 128,-1,67
 192 381 192 381 224 390.5 c 128,-1,68
 256 400 256 400 293 414 c 128,-1,69
 330 428 330 428 363.5 443.5 c 128,-1,70
 397 459 397 459 423.5 474.5 c 128,-1,71
 450 490 450 490 461.5 504 c 128,-1,72
 473 518 473 518 466.5 529 c 128,-1,73
 460 540 460 540 428 546 c 1,74,75
 412 546 412 546 385 546.5 c 128,-1,76
 358 547 358 547 327.5 546 c 128,-1,77
 297 545 297 545 264.5 543 c 128,-1,78
 232 541 232 541 204 535.5 c 128,-1,79
 176 530 176 530 154.5 521 c 128,-1,80
 133 512 133 512 123 498 c 0,59,60
EndSplineSet
EndChar

StartChar: S
Encoding: 83 83 54
Width: 617
VWidth: 768
Flags: HW
LayerCount: 2
Fore
SplineSet
14 86 m 0,0,1
 14 95 14 95 20.5 103.5 c 128,-1,2
 27 112 27 112 35.5 119.5 c 128,-1,3
 44 127 44 127 51.5 132 c 0,4,5
 59 138 59 138 62 140 c 1,6,7
 64 102 64 102 85 82.5 c 128,-1,8
 106 63 106 63 139.5 57.5 c 128,-1,9
 173 52 173 52 214.5 57.5 c 128,-1,10
 256 63 256 63 299 76 c 128,-1,11
 342 89 342 89 381 108 c 128,-1,12
 420 127 420 127 449 146.5 c 128,-1,13
 478 166 478 166 492 185 c 128,-1,14
 506 204 506 204 498 218 c 1,15,-1
 109 305 l 2,16,17
 101 307 101 307 90.5 313 c 128,-1,18
 80 319 80 319 70 326 c 128,-1,19
 60 333 60 333 53 341.5 c 128,-1,20
 46 350 46 350 46 359 c 0,21,22
 46 394 46 394 72 423.5 c 128,-1,23
 98 453 98 453 138.5 476 c 128,-1,24
 179 499 179 499 228.5 516 c 128,-1,25
 278 533 278 533 324.5 544.5 c 128,-1,26
 371 556 371 556 409.5 562 c 128,-1,27
 448 568 448 568 467 570 c 1,28,29
 472 568 472 568 484 567 c 128,-1,30
 496 566 496 566 508 563 c 128,-1,31
 520 560 520 560 528 554.5 c 0,32,33
 536 548 536 548 532 538 c 1,34,35
 533 524 533 524 516.5 515 c 128,-1,36
 500 506 500 506 473 499.5 c 128,-1,37
 446 493 446 493 411 488 c 128,-1,38
 376 483 376 483 339 477 c 128,-1,39
 302 471 302 471 267 463 c 128,-1,40
 232 455 232 455 204 443.5 c 128,-1,41
 176 432 176 432 158 415.5 c 128,-1,42
 140 399 140 399 140 375 c 0,43,44
 140 373 140 373 145.5 370.5 c 128,-1,45
 151 368 151 368 167 363 c 128,-1,46
 183 358 183 358 212.5 350.5 c 128,-1,47
 242 343 242 343 290.5 329.5 c 128,-1,48
 339 316 339 316 409 296.5 c 128,-1,49
 479 277 479 277 576 249 c 1,50,51
 589 220 589 220 583.5 193.5 c 128,-1,52
 578 167 578 167 558 144.5 c 128,-1,53
 538 122 538 122 508 101.5 c 128,-1,54
 478 81 478 81 442.5 65 c 128,-1,55
 407 49 407 49 369.5 36.5 c 128,-1,56
 332 24 332 24 297 15.5 c 128,-1,57
 262 7 262 7 233 2.5 c 128,-1,58
 204 -2 204 -2 186 -1 c 0,59,60
 171 -1 171 -1 142.5 4.5 c 128,-1,61
 114 10 114 10 85.5 21.5 c 128,-1,62
 57 33 57 33 35.5 49.5 c 128,-1,63
 14 66 14 66 14 86 c 0,0,1
EndSplineSet
EndChar

StartChar: T
Encoding: 84 84 55
Width: 597
VWidth: 768
Flags: HW
LayerCount: 2
Fore
SplineSet
216 463 m 1,0,-1
 16 475 l 2,1,2
 12 475 12 475 9 478.5 c 128,-1,3
 6 482 6 482 4 487 c 128,-1,4
 2 492 2 492 1 497 c 128,-1,5
 0 502 0 502 0 506 c 0,6,7
 0 519 0 519 8 531.5 c 128,-1,8
 16 544 16 544 28 544 c 0,9,10
 96 541 96 541 165.5 535 c 128,-1,11
 235 529 235 529 304.5 526 c 128,-1,12
 374 523 374 523 442.5 525 c 128,-1,13
 511 527 511 527 578 540 c 1,14,15
 583 538 583 538 587 531 c 128,-1,16
 591 524 591 524 593.5 514 c 128,-1,17
 596 504 596 504 597 494 c 128,-1,18
 598 484 598 484 598 478 c 1,19,20
 552 464 552 464 517 462 c 128,-1,21
 482 460 482 460 449 460.5 c 128,-1,22
 416 461 416 461 381 462 c 128,-1,23
 346 463 346 463 300 456 c 1,24,25
 298 431 298 431 295 396.5 c 128,-1,26
 292 362 292 362 288.5 322 c 128,-1,27
 285 282 285 282 281.5 238.5 c 128,-1,28
 278 195 278 195 275.5 153.5 c 128,-1,29
 273 112 273 112 272.5 74 c 128,-1,30
 272 36 272 36 274 7 c 1,31,-1
 187 0 l 1,32,-1
 216 463 l 1,0,-1
EndSplineSet
EndChar

StartChar: U
Encoding: 85 85 56
Width: 539
VWidth: 768
Flags: HW
LayerCount: 2
Fore
SplineSet
434 130 m 1,0,1
 396 97 396 97 364 72.5 c 128,-1,2
 332 48 332 48 300 32.5 c 128,-1,3
 268 17 268 17 233.5 10.5 c 128,-1,4
 199 4 199 4 155 7 c 1,5,6
 97 14 97 14 67 42.5 c 128,-1,7
 37 71 37 71 26.5 114.5 c 128,-1,8
 16 158 16 158 20.5 211 c 128,-1,9
 25 264 25 264 35 320 c 128,-1,10
 45 376 45 376 56.5 430 c 128,-1,11
 68 484 68 484 72 530 c 1,12,13
 75 531 75 531 84 531 c 128,-1,14
 93 531 93 531 96 531 c 0,15,16
 122 534 122 534 129 517.5 c 128,-1,17
 136 501 136 501 133 471.5 c 128,-1,18
 130 442 130 442 120.5 402.5 c 128,-1,19
 111 363 111 363 101.5 320.5 c 128,-1,20
 92 278 92 278 87 237 c 128,-1,21
 82 196 82 196 88 162 c 128,-1,22
 94 128 94 128 115.5 105 c 128,-1,23
 137 82 137 82 181 78 c 1,24,25
 241 76 241 76 282 94 c 128,-1,26
 323 112 323 112 350 145.5 c 128,-1,27
 377 179 377 179 392.5 225 c 128,-1,28
 408 271 408 271 416 323.5 c 128,-1,29
 424 376 424 376 426.5 432.5 c 0,30,31
 428 488 428 488 430 544 c 1,32,33
 434 558 434 558 442 565 c 128,-1,34
 450 572 450 572 459 572.5 c 128,-1,35
 468 573 468 573 478 568.5 c 128,-1,36
 488 564 488 564 498 556 c 1,37,38
 502 489 502 489 501 423 c 128,-1,39
 500 357 500 357 497.5 290 c 128,-1,40
 495 223 495 223 492.5 154.5 c 128,-1,41
 490 86 490 86 493 15 c 0,42,43
 493 5 493 5 483 1.5 c 128,-1,44
 473 -2 473 -2 460.5 -1.5 c 128,-1,45
 448 -1 448 -1 437 2.5 c 128,-1,46
 426 6 426 6 424 10 c 1,47,-1
 434 130 l 1,0,1
EndSplineSet
EndChar

StartChar: V
Encoding: 86 86 57
Width: 601
VWidth: 768
Flags: HW
LayerCount: 2
Fore
SplineSet
244 15 m 1,0,1
 232 47 232 47 210.5 94 c 128,-1,2
 189 141 189 141 162.5 192.5 c 128,-1,3
 136 244 136 244 109 297 c 128,-1,4
 82 350 82 350 60 394 c 128,-1,5
 38 438 38 438 24 470 c 128,-1,6
 10 502 10 502 10 514 c 0,7,8
 10 518 10 518 17.5 523.5 c 128,-1,9
 25 529 25 529 34 533 c 0,10,11
 44 538 44 538 58 544 c 1,12,13
 91 483 91 483 119.5 423 c 128,-1,14
 148 363 148 363 175.5 309 c 128,-1,15
 203 255 203 255 229.5 209 c 128,-1,16
 256 163 256 163 285 130 c 1,17,18
 289 135 289 135 304 162 c 128,-1,19
 319 189 319 189 338.5 229.5 c 128,-1,20
 358 270 358 270 382 320 c 128,-1,21
 406 370 406 370 429.5 419.5 c 128,-1,22
 453 469 453 469 474 514 c 128,-1,23
 495 559 495 559 509 591 c 1,24,25
 524 609 524 609 538.5 619 c 128,-1,26
 553 629 553 629 563.5 629.5 c 128,-1,27
 574 630 574 630 580 620.5 c 128,-1,28
 586 611 586 611 586 591 c 1,29,-1
 320 7 l 1,30,31
 312 3 312 3 302 0 c 128,-1,32
 292 -3 292 -3 281 -3 c 128,-1,33
 270 -3 270 -3 260 1 c 128,-1,34
 250 5 250 5 244 15 c 1,0,1
EndSplineSet
EndChar

StartChar: W
Encoding: 87 87 58
Width: 903
VWidth: 768
Flags: HW
LayerCount: 2
Fore
SplineSet
685 62 m 1,0,1
 675 77 675 77 659 108 c 128,-1,2
 643 139 643 139 625 176.5 c 128,-1,3
 607 214 607 214 587 255 c 128,-1,4
 567 296 567 296 547 330.5 c 128,-1,5
 527 365 527 365 508.5 390 c 128,-1,6
 490 415 490 415 476 421 c 1,7,8
 465 404 465 404 450 372 c 128,-1,9
 435 340 435 340 419 300.5 c 128,-1,10
 403 261 403 261 386.5 217.5 c 128,-1,11
 370 174 370 174 355 133 c 128,-1,12
 340 92 340 92 328 57 c 128,-1,13
 316 22 316 22 308 0 c 1,14,-1
 249 3 l 1,15,-1
 15 544 l 2,16,17
 11 554 11 554 15.5 561 c 128,-1,18
 20 568 20 568 28.5 571 c 128,-1,19
 37 574 37 574 46.5 576 c 128,-1,20
 56 578 56 578 62 578 c 0,21,22
 76 578 76 578 83 572 c 128,-1,23
 90 566 90 566 94 556.5 c 128,-1,24
 98 547 98 547 101 535.5 c 128,-1,25
 104 524 104 524 109 514 c 0,26,27
 120 489 120 489 136 453.5 c 128,-1,28
 152 418 152 418 169 380 c 128,-1,29
 186 342 186 342 204 304 c 128,-1,30
 222 266 222 266 237.5 234 c 128,-1,31
 253 202 253 202 264.5 181 c 128,-1,32
 276 160 276 160 280 156 c 1,33,34
 319 254 319 254 347.5 321 c 128,-1,35
 376 388 376 388 396 432 c 128,-1,36
 416 476 416 476 428 500 c 128,-1,37
 440 524 440 524 447 535.5 c 128,-1,38
 454 547 454 547 457 549 c 128,-1,39
 460 551 460 551 462 551 c 0,40,41
 474 551 474 551 490 536 c 128,-1,42
 506 521 506 521 524 496 c 128,-1,43
 542 471 542 471 561 438.5 c 128,-1,44
 580 406 580 406 599 371.5 c 128,-1,45
 618 337 618 337 635.5 302.5 c 128,-1,46
 653 268 653 268 668.5 238 c 128,-1,47
 684 208 684 208 696 186.5 c 128,-1,48
 708 165 708 165 716 156 c 1,49,50
 728 194 728 194 739 240 c 128,-1,51
 750 286 750 286 760 335.5 c 128,-1,52
 770 385 770 385 779 436.5 c 128,-1,53
 788 488 788 488 796.5 536.5 c 128,-1,54
 805 585 805 585 811.5 629.5 c 128,-1,55
 818 674 818 674 824 711 c 1,56,57
 847 711 847 711 860 706.5 c 128,-1,58
 873 702 873 702 878.5 694 c 128,-1,59
 884 686 884 686 885 674.5 c 128,-1,60
 886 663 886 663 886 650 c 1,61,62
 887 653 887 653 883.5 625.5 c 128,-1,63
 880 598 880 598 873 548.5 c 128,-1,64
 866 499 866 499 855.5 433.5 c 128,-1,65
 845 368 845 368 831.5 296 c 128,-1,66
 818 224 818 224 801.5 150.5 c 0,67,68
 784 77 784 77 766 13 c 1,69,70
 747 0 747 0 735 -1 c 128,-1,71
 723 -2 723 -2 714.5 6 c 128,-1,72
 706 14 706 14 699.5 29 c 128,-1,73
 693 44 693 44 685 62 c 1,0,1
EndSplineSet
EndChar

StartChar: X
Encoding: 88 88 59
Width: 576
VWidth: 768
Flags: HW
LayerCount: 2
Fore
SplineSet
280 211 m 1,0,1
 256 191 256 191 234 157.5 c 128,-1,2
 212 124 212 124 190 92 c 128,-1,3
 168 60 168 60 144 37 c 128,-1,4
 120 14 120 14 91 14 c 0,5,6
 63 14 63 14 50 23 c 128,-1,7
 37 32 37 32 41 62 c 1,8,-1
 219 273 l 1,9,10
 171 333 171 333 137.5 375 c 128,-1,11
 104 417 104 417 83 444.5 c 128,-1,12
 62 472 62 472 50 487 c 128,-1,13
 38 502 38 502 32.5 509.5 c 128,-1,14
 27 517 27 517 26.5 518.5 c 0,15,-1
 26 520 l 0,16,17
 26 530 26 530 33 537 c 128,-1,18
 40 544 40 544 50 546.5 c 128,-1,19
 60 549 60 549 70.5 548.5 c 0,20,21
 80 548 80 548 88 544 c 1,22,-1
 268 327 l 1,23,-1
 492 592 l 1,24,-1
 547 548 l 1,25,-1
 322 280 l 1,26,27
 344 251 344 251 369 228.5 c 128,-1,28
 394 206 394 206 420 186 c 128,-1,29
 446 166 446 166 470.5 149 c 128,-1,30
 495 132 495 132 513.5 114 c 128,-1,31
 532 96 532 96 543 76 c 128,-1,32
 554 56 554 56 554 32 c 1,33,34
 551 10 551 10 534.5 3 c 128,-1,35
 518 -4 518 -4 493 15 c 1,36,-1
 280 211 l 1,0,1
EndSplineSet
EndChar

StartChar: Y
Encoding: 89 89 60
Width: 513
VWidth: 768
Flags: HW
LayerCount: 2
Fore
SplineSet
260 -17 m 1,0,1
 254 -17 254 -17 243 -13.5 c 128,-1,2
 232 -10 232 -10 222 -4 c 128,-1,3
 212 2 212 2 205.5 10 c 0,4,5
 198 18 198 18 202 27 c 1,6,7
 206 33 206 33 212 49.5 c 128,-1,8
 218 66 218 66 225.5 89 c 128,-1,9
 233 112 233 112 241.5 138 c 128,-1,10
 250 164 250 164 258 190 c 128,-1,11
 266 216 266 216 272.5 239 c 0,12,13
 280 262 280 262 284 279 c 1,14,-1
 33 535 l 1,15,16
 24 545 24 545 26 551 c 128,-1,17
 28 557 28 557 35 560.5 c 128,-1,18
 42 564 42 564 50 565 c 128,-1,19
 58 566 58 566 61 566 c 0,20,21
 74 566 74 566 86 563.5 c 128,-1,22
 98 561 98 561 112.5 554 c 128,-1,23
 127 547 127 547 144.5 532.5 c 128,-1,24
 162 518 162 518 186.5 492.5 c 128,-1,25
 211 467 211 467 243.5 430.5 c 128,-1,26
 276 394 276 394 320 341 c 1,27,28
 348 424 348 424 369 478 c 128,-1,29
 390 532 390 532 407 564 c 128,-1,30
 424 596 424 596 438 609 c 128,-1,31
 452 622 452 622 467 625 c 1,32,33
 476 625 476 625 485 623 c 128,-1,34
 494 621 494 621 497 609 c 1,35,36
 468 547 468 547 441.5 469 c 128,-1,37
 415 391 415 391 386.5 307 c 128,-1,38
 358 223 358 223 327.5 139.5 c 128,-1,39
 297 56 297 56 260 -17 c 1,0,1
EndSplineSet
EndChar

StartChar: Z
Encoding: 90 90 61
Width: 753
VWidth: 768
Flags: HW
LayerCount: 2
Fore
SplineSet
722 15 m 1,0,1
 658 11 658 11 576.5 6.5 c 128,-1,2
 495 2 495 2 411.5 -0.5 c 128,-1,3
 328 -3 328 -3 250.5 -2.5 c 128,-1,4
 173 -2 173 -2 118 3 c 128,-1,5
 63 8 63 8 38.5 18 c 128,-1,6
 14 28 14 28 36 46 c 1,7,-1
 441 499 l 1,8,9
 391 502 391 502 343.5 501 c 128,-1,10
 296 500 296 500 248.5 496.5 c 128,-1,11
 201 493 201 493 153.5 488.5 c 128,-1,12
 106 484 106 484 58 482 c 0,13,14
 50 482 50 482 46.5 483.5 c 128,-1,15
 43 485 43 485 40.5 490.5 c 128,-1,16
 38 496 38 496 37.5 505 c 128,-1,17
 37 514 37 514 36 530 c 1,18,19
 88 535 88 535 148 540 c 128,-1,20
 208 545 208 545 271 549.5 c 128,-1,21
 334 554 334 554 396 557 c 128,-1,22
 458 560 458 560 513 562 c 0,23,24
 526 562 526 562 538 558 c 128,-1,25
 550 554 550 554 550 538 c 1,26,27
 540 510 540 510 512.5 471.5 c 128,-1,28
 485 433 485 433 448.5 389.5 c 128,-1,29
 412 346 412 346 369.5 300.5 c 128,-1,30
 327 255 327 255 287 212.5 c 128,-1,31
 247 170 247 170 212.5 132.5 c 128,-1,32
 178 95 178 95 158 68 c 1,33,34
 207 58 207 58 274.5 58 c 128,-1,35
 342 58 342 58 416.5 62.5 c 128,-1,36
 491 67 491 67 568.5 73.5 c 128,-1,37
 646 80 646 80 715 84 c 1,38,-1
 722 15 l 1,0,1
EndSplineSet
EndChar

StartChar: bracketleft
Encoding: 91 91 62
Width: 408
VWidth: 768
Flags: HW
LayerCount: 2
Fore
SplineSet
29 730 m 1,0,1
 60 734 60 734 97 743 c 128,-1,2
 134 752 134 752 172.5 760.5 c 128,-1,3
 211 769 211 769 247.5 775.5 c 128,-1,4
 284 782 284 782 314 782 c 1,5,6
 314 776 314 776 315 769.5 c 128,-1,7
 316 763 316 763 316 757 c 128,-1,8
 316 751 316 751 314.5 746 c 0,9,10
 314 741 314 741 308 738 c 1,11,12
 297 735 297 735 278.5 731.5 c 128,-1,13
 260 728 260 728 238 723 c 128,-1,14
 216 718 216 718 193 712.5 c 128,-1,15
 170 707 170 707 149.5 701.5 c 128,-1,16
 129 696 129 696 112 689.5 c 0,17,18
 95 682 95 682 87 676 c 1,19,20
 83 589 83 589 90.5 506.5 c 128,-1,21
 98 424 98 424 107 342 c 128,-1,22
 116 260 116 260 125 177 c 128,-1,23
 134 94 134 94 134 7 c 1,24,-1
 372 39 l 1,25,26
 372 35 372 35 374.5 24.5 c 128,-1,27
 377 14 377 14 379 2.5 c 128,-1,28
 381 -9 381 -9 381 -18.5 c 128,-1,29
 381 -28 381 -28 376 -29 c 2,30,-1
 61 -79 l 1,31,-1
 29 730 l 1,0,1
EndSplineSet
EndChar

StartChar: backslash
Encoding: 92 92 63
Width: 482
VWidth: 768
Flags: HW
LayerCount: 2
Fore
SplineSet
415 -2 m 1,0,1
 341 81 341 81 278.5 159 c 128,-1,2
 216 237 216 237 167 303.5 c 128,-1,3
 118 370 118 370 82 422 c 128,-1,4
 46 474 46 474 28 503 c 128,-1,5
 10 532 10 532 10 537 c 0,6,7
 10 546 10 546 13.5 551 c 128,-1,8
 17 556 17 556 23 558.5 c 128,-1,9
 29 561 29 561 36.5 561.5 c 128,-1,10
 44 562 44 562 50 562 c 1,11,12
 86 527 86 527 119.5 484 c 128,-1,13
 153 441 153 441 185 393.5 c 128,-1,14
 217 346 217 346 248.5 298 c 128,-1,15
 280 250 280 250 314.5 203.5 c 128,-1,16
 349 157 349 157 385.5 115 c 128,-1,17
 422 73 422 73 463 39 c 1,18,19
 463 20 463 20 447.5 9 c 128,-1,20
 432 -2 432 -2 415 -2 c 1,0,1
EndSplineSet
EndChar

StartChar: bracketright
Encoding: 93 93 64
Width: 519
VWidth: 768
Flags: HW
LayerCount: 2
Fore
SplineSet
75 -40 m 1,0,1
 111 -38 111 -38 145.5 -38 c 128,-1,2
 180 -38 180 -38 210.5 -35.5 c 128,-1,3
 241 -33 241 -33 266 -27.5 c 128,-1,4
 291 -22 291 -22 309 -8.5 c 128,-1,5
 327 5 327 5 336.5 28 c 128,-1,6
 346 51 346 51 346 88 c 0,7,8
 346 160 346 160 343 238 c 128,-1,9
 340 316 340 316 334 395.5 c 128,-1,10
 328 475 328 475 319.5 553 c 128,-1,11
 311 631 311 631 301 702 c 1,12,13
 265 704 265 704 231.5 698 c 128,-1,14
 198 692 198 692 165 683.5 c 128,-1,15
 132 675 132 675 98.5 667.5 c 128,-1,16
 65 660 65 660 29 660 c 0,17,18
 26 660 26 660 19.5 665 c 128,-1,19
 13 670 13 670 7.5 678 c 128,-1,20
 2 686 2 686 0.5 696 c 128,-1,21
 -1 706 -1 706 8 718 c 0,22,23
 8 719 8 719 26 721.5 c 128,-1,24
 44 724 44 724 72 728.5 c 128,-1,25
 100 733 100 733 136 738 c 128,-1,26
 172 743 172 743 208 748.5 c 128,-1,27
 244 754 244 754 277.5 758.5 c 128,-1,28
 311 763 311 763 335 766 c 1,29,30
 342 766 342 766 351.5 767 c 128,-1,31
 361 768 361 768 370.5 767 c 128,-1,32
 380 766 380 766 387 763 c 128,-1,33
 394 760 394 760 397 750 c 1,34,35
 393 670 393 670 393.5 573 c 128,-1,36
 394 476 394 476 399 370.5 c 128,-1,37
 404 265 404 265 412.5 154.5 c 0,38,39
 420 44 420 44 430 -64 c 1,40,41
 421 -66 421 -66 394.5 -68 c 128,-1,42
 368 -70 368 -70 331.5 -73 c 128,-1,43
 295 -76 295 -76 254 -79 c 128,-1,44
 213 -82 213 -82 177 -85 c 128,-1,45
 141 -88 141 -88 113.5 -89.5 c 128,-1,46
 86 -91 86 -91 78 -91 c 0,47,48
 76 -91 76 -91 75.5 -75.5 c 128,-1,49
 75 -60 75 -60 75 -40 c 1,0,1
EndSplineSet
EndChar

StartChar: asciicircum
Encoding: 94 94 65
Width: 294
VWidth: 768
Flags: HW
LayerCount: 2
Fore
SplineSet
16 512 m 0,0,1
 16 523 16 523 26 540 c 128,-1,2
 36 557 36 557 54 575.5 c 128,-1,3
 72 594 72 594 97 612.5 c 128,-1,4
 122 631 122 631 152 644 c 1,5,6
 172 631 172 631 187.5 621 c 128,-1,7
 203 611 203 611 216.5 598.5 c 128,-1,8
 230 586 230 586 244 569 c 128,-1,9
 258 552 258 552 275 524 c 1,10,11
 281 513 281 513 281.5 503.5 c 128,-1,12
 282 494 282 494 277.5 488 c 128,-1,13
 273 482 273 482 264.5 481 c 128,-1,14
 256 480 256 480 244 487 c 1,15,16
 230 497 230 497 222.5 502 c 128,-1,17
 215 507 215 507 210.5 510.5 c 128,-1,18
 206 514 206 514 203 517.5 c 128,-1,19
 200 521 200 521 193.5 527.5 c 128,-1,20
 187 534 187 534 176 545 c 0,21,22
 166 556 166 556 146 576 c 1,23,24
 126 562 126 562 111 550 c 128,-1,25
 96 538 96 538 85.5 526 c 128,-1,26
 75 514 75 514 68 502.5 c 0,27,28
 62 491 62 491 56 478 c 1,29,30
 39 478 39 478 27.5 483 c 128,-1,31
 16 488 16 488 16 512 c 0,0,1
EndSplineSet
EndChar

StartChar: underscore
Encoding: 95 95 66
Width: 659
VWidth: 768
Flags: HW
LayerCount: 2
Fore
SplineSet
586 110 m 1,0,1
 599 110 599 110 610.5 106.5 c 128,-1,2
 622 103 622 103 622 86 c 0,3,4
 622 75 622 75 618 66 c 0,5,6
 614 56 614 56 607 46 c 1,7,8
 539 44 539 44 466.5 41 c 128,-1,9
 394 38 394 38 320.5 32 c 128,-1,10
 247 26 247 26 173.5 18 c 128,-1,11
 100 10 100 10 31 0 c 1,12,13
 31 1 31 1 30.5 6 c 128,-1,14
 30 11 30 11 30 17 c 2,15,-1
 30 35 l 1,16,17
 82 57 82 57 151 66 c 128,-1,18
 220 75 220 75 295 80 c 128,-1,19
 370 85 370 85 446 90.5 c 128,-1,20
 522 96 522 96 586 110 c 1,0,1
EndSplineSet
EndChar

StartChar: grave
Encoding: 96 96 67
Width: 165
VWidth: 768
Flags: HW
LayerCount: 2
Fore
SplineSet
142 503 m 1,0,-1
 126 463 l 1,1,2
 102 479 102 479 88 489.5 c 128,-1,3
 74 500 74 500 65.5 508.5 c 128,-1,4
 57 517 57 517 52.5 524 c 128,-1,5
 48 531 48 531 45 541 c 1,6,7
 43 551 43 551 44.5 559.5 c 128,-1,8
 46 568 46 568 50.5 573 c 128,-1,9
 55 578 55 578 62 577 c 128,-1,10
 69 576 69 576 79 565 c 1,11,-1
 142 503 l 1,0,-1
EndSplineSet
EndChar

StartChar: a
Encoding: 97 97 68
Width: 488
VWidth: 768
Flags: HW
LayerCount: 2
Fore
SplineSet
394 155 m 1,0,1
 372 121 372 121 343.5 94 c 128,-1,2
 315 67 315 67 281 47.5 c 128,-1,3
 247 28 247 28 206.5 19 c 128,-1,4
 166 10 166 10 122 14 c 1,5,6
 106 14 106 14 88 18 c 128,-1,7
 70 22 70 22 55 30 c 128,-1,8
 40 38 40 38 30 51.5 c 0,9,10
 20 66 20 66 20 86 c 1,11,12
 12 128 12 128 23.5 171 c 128,-1,13
 35 214 35 214 60 254 c 128,-1,14
 85 294 85 294 121 328 c 128,-1,15
 157 362 157 362 197.5 386 c 128,-1,16
 238 410 238 410 281.5 420 c 128,-1,17
 325 430 325 430 365 423 c 1,18,19
 396 423 396 423 413 402.5 c 128,-1,20
 430 382 430 382 439 348.5 c 128,-1,21
 448 315 448 315 450 271 c 128,-1,22
 452 227 452 227 453.5 180.5 c 128,-1,23
 455 134 455 134 457.5 89 c 128,-1,24
 460 44 460 44 470 6 c 1,25,-1
 414 6 l 1,26,27
 410 32 410 32 408 51 c 128,-1,28
 406 70 406 70 405 87 c 128,-1,29
 404 104 404 104 401 119.5 c 128,-1,30
 398 135 398 135 394 155 c 1,0,1
337 356 m 1,31,32
 308 358 308 358 276.5 348 c 128,-1,33
 245 338 245 338 216.5 319.5 c 128,-1,34
 188 301 188 301 162.5 275.5 c 128,-1,35
 137 250 137 250 118.5 223 c 128,-1,36
 100 196 100 196 90 169.5 c 128,-1,37
 80 143 80 143 81.5 120.5 c 128,-1,38
 83 98 83 98 98 82.5 c 0,39,40
 113 68 113 68 145 62 c 1,41,42
 190 63 190 63 231.5 84.5 c 128,-1,43
 273 106 273 106 305.5 139 c 128,-1,44
 338 172 338 172 360 210 c 128,-1,45
 382 248 382 248 388 280 c 128,-1,46
 394 312 394 312 382.5 334 c 128,-1,47
 371 356 371 356 337 356 c 1,31,32
EndSplineSet
EndChar

StartChar: b
Encoding: 98 98 69
Width: 539
VWidth: 768
Flags: HW
LayerCount: 2
Fore
SplineSet
178 7 m 1,0,1
 173 9 173 9 159.5 8 c 128,-1,2
 146 7 146 7 127 7 c 128,-1,3
 108 7 108 7 85 9 c 128,-1,4
 62 11 62 11 38 19 c 1,5,6
 34 62 34 62 32.5 113 c 128,-1,7
 31 164 31 164 30.5 219 c 128,-1,8
 30 274 30 274 30.5 332.5 c 128,-1,9
 31 391 31 391 31.5 447.5 c 128,-1,10
 32 504 32 504 31.5 557 c 128,-1,11
 31 610 31 610 29 657 c 1,12,13
 26 678 26 678 38 687 c 128,-1,14
 50 696 50 696 64.5 696 c 128,-1,15
 79 696 79 696 91 688 c 0,16,17
 102 680 102 680 100 667 c 1,18,-1
 106 262 l 1,19,20
 135 300 135 300 177.5 334.5 c 128,-1,21
 220 369 220 369 266 393.5 c 128,-1,22
 312 418 312 418 358 430.5 c 128,-1,23
 404 443 404 443 440 436.5 c 128,-1,24
 476 430 476 430 498 402 c 128,-1,25
 520 374 520 374 520 320 c 0,26,27
 520 282 520 282 503 247.5 c 128,-1,28
 486 213 486 213 457.5 182 c 128,-1,29
 429 151 429 151 393 124 c 128,-1,30
 357 97 357 97 318.5 74.5 c 128,-1,31
 280 52 280 52 243.5 35 c 128,-1,32
 207 18 207 18 178 7 c 1,0,1
466 310 m 1,33,34
 460 338 460 338 441 351 c 128,-1,35
 422 364 422 364 394.5 364 c 128,-1,36
 367 364 367 364 334.5 352.5 c 128,-1,37
 302 341 302 341 269 321.5 c 128,-1,38
 236 302 236 302 205.5 276 c 128,-1,39
 175 250 175 250 152.5 219 c 128,-1,40
 130 188 130 188 118 154.5 c 128,-1,41
 106 121 106 121 110 87 c 1,42,43
 106 75 106 75 124 73 c 128,-1,44
 142 71 142 71 173 79.5 c 128,-1,45
 204 88 204 88 244 106.5 c 128,-1,46
 284 125 284 125 324.5 154 c 128,-1,47
 365 183 365 183 402.5 221.5 c 128,-1,48
 440 260 440 260 466 310 c 1,33,34
EndSplineSet
EndChar

StartChar: c
Encoding: 99 99 70
Width: 607
VWidth: 768
Flags: HW
LayerCount: 2
Fore
SplineSet
20 148 m 1,0,1
 17 182 17 182 33 216 c 128,-1,2
 49 250 49 250 77 281.5 c 128,-1,3
 105 313 105 313 143 339.5 c 128,-1,4
 181 366 181 366 223 385 c 128,-1,5
 265 404 265 404 308 413 c 128,-1,6
 351 422 351 422 389 418 c 1,7,8
 403 418 403 418 417.5 417 c 128,-1,9
 432 416 432 416 443 410 c 128,-1,10
 454 404 454 404 460.5 392.5 c 0,11,12
 467 382 467 382 467 362 c 0,13,14
 467 352 467 352 462.5 344.5 c 128,-1,15
 458 337 458 337 450.5 330 c 128,-1,16
 443 323 443 323 435 318 c 0,17,18
 427 314 427 314 420 308 c 1,19,20
 418 318 418 318 415.5 327.5 c 128,-1,21
 413 337 413 337 408.5 344 c 128,-1,22
 404 351 404 351 396 355 c 128,-1,23
 388 359 388 359 375 359 c 1,24,25
 331 350 331 350 279.5 332 c 128,-1,26
 228 314 228 314 185 288 c 128,-1,27
 142 262 142 262 115.5 230.5 c 128,-1,28
 89 199 89 199 95 162 c 1,29,30
 95 129 95 129 108 108.5 c 128,-1,31
 121 88 121 88 141.5 77 c 128,-1,32
 162 66 162 66 188.5 62 c 128,-1,33
 215 58 215 58 243 58 c 0,34,35
 286 58 286 58 326 71 c 128,-1,36
 366 84 366 84 404 100 c 128,-1,37
 442 116 442 116 479 128.5 c 128,-1,38
 516 141 516 141 551 141 c 0,39,40
 557 141 557 141 563.5 140.5 c 128,-1,41
 570 140 570 140 575 136.5 c 128,-1,42
 580 133 580 133 582 126.5 c 128,-1,43
 584 120 584 120 581 109 c 1,44,45
 577 95 577 95 554.5 81.5 c 128,-1,46
 532 68 532 68 498.5 56 c 128,-1,47
 465 44 465 44 425.5 33.5 c 128,-1,48
 386 23 386 23 349 15.5 c 128,-1,49
 312 8 312 8 282.5 4 c 0,50,51
 252 0 252 0 238 0 c 0,52,53
 205 0 205 0 167 7.5 c 128,-1,54
 129 15 129 15 96.5 32.5 c 128,-1,55
 64 50 64 50 42 78 c 128,-1,56
 20 106 20 106 20 148 c 1,0,1
EndSplineSet
EndChar

StartChar: d
Encoding: 100 100 71
Width: 492
VWidth: 768
Flags: HW
LayerCount: 2
Fore
SplineSet
385 104 m 1,0,1
 333 64 333 64 281 37 c 128,-1,2
 229 10 229 10 181 5 c 128,-1,3
 133 0 133 0 89.5 20 c 128,-1,4
 46 40 46 40 13 94 c 1,5,6
 3 143 3 143 14.5 186.5 c 128,-1,7
 26 230 26 230 54 266 c 128,-1,8
 82 302 82 302 121.5 328.5 c 128,-1,9
 161 355 161 355 206 370 c 128,-1,10
 251 385 251 385 298.5 386.5 c 128,-1,11
 346 388 346 388 390 374 c 1,12,13
 390 385 390 385 391 408 c 128,-1,14
 392 431 392 431 393.5 460.5 c 128,-1,15
 395 490 395 490 396.5 522 c 128,-1,16
 398 554 398 554 400 583.5 c 128,-1,17
 402 613 402 613 403.5 635.5 c 128,-1,18
 405 658 405 658 406 670 c 0,19,20
 408 688 408 688 410 703 c 128,-1,21
 412 718 412 718 419 729 c 128,-1,22
 426 740 426 740 437.5 746.5 c 128,-1,23
 449 753 449 753 469 753 c 1,24,25
 469 663 469 663 463.5 577.5 c 128,-1,26
 458 492 458 492 454 405.5 c 128,-1,27
 450 319 450 319 450.5 229 c 128,-1,28
 451 139 451 139 463 39 c 1,29,30
 463 17 463 17 455 8 c 128,-1,31
 447 -1 447 -1 428 -1 c 0,32,33
 410 -1 410 -1 401 10.5 c 128,-1,34
 392 22 392 22 388.5 38.5 c 128,-1,35
 385 55 385 55 385 73 c 2,36,-1
 385 104 l 1,0,1
78 133 m 1,37,38
 80 99 80 99 98 84 c 128,-1,39
 116 69 116 69 149 75 c 1,40,41
 165 75 165 75 197.5 83.5 c 128,-1,42
 230 92 230 92 265 106 c 128,-1,43
 300 120 300 120 331 137 c 128,-1,44
 362 154 362 154 374 171 c 1,45,-1
 374 296 l 2,46,47
 374 307 374 307 368.5 313.5 c 128,-1,48
 363 320 363 320 354.5 323.5 c 128,-1,49
 346 327 346 327 336.5 327.5 c 128,-1,50
 327 328 327 328 320 328 c 1,51,52
 300 331 300 331 273.5 325.5 c 128,-1,53
 247 320 247 320 218.5 308 c 128,-1,54
 190 296 190 296 163.5 277.5 c 128,-1,55
 137 259 137 259 117 236 c 128,-1,56
 97 213 97 213 85.5 187 c 128,-1,57
 74 161 74 161 78 133 c 1,37,38
EndSplineSet
EndChar

StartChar: e
Encoding: 101 101 72
Width: 519
VWidth: 768
Flags: HW
LayerCount: 2
Fore
SplineSet
20 123 m 1,0,1
 13 184 13 184 31.5 241.5 c 128,-1,2
 50 299 50 299 87 343.5 c 128,-1,3
 124 388 124 388 177 414 c 128,-1,4
 230 440 230 440 292 438 c 0,5,6
 302 438 302 438 320 435 c 128,-1,7
 338 432 338 432 357.5 425.5 c 128,-1,8
 377 419 377 419 396.5 409.5 c 128,-1,9
 416 400 416 400 430.5 386.5 c 128,-1,10
 445 373 445 373 452.5 356 c 128,-1,11
 460 339 460 339 456 318 c 1,12,13
 425 296 425 296 385 288 c 128,-1,14
 345 280 345 280 303.5 276.5 c 128,-1,15
 262 273 262 273 222 270.5 c 128,-1,16
 182 268 182 268 152.5 256.5 c 128,-1,17
 123 245 123 245 107 220.5 c 128,-1,18
 91 196 91 196 97 151 c 1,19,20
 108 110 108 110 134 90 c 128,-1,21
 160 70 160 70 194 66 c 128,-1,22
 228 62 228 62 266.5 70 c 128,-1,23
 305 78 305 78 342.5 91 c 128,-1,24
 380 104 380 104 412 118 c 128,-1,25
 444 132 444 132 465 141 c 1,26,27
 475 141 475 141 481.5 134 c 128,-1,28
 488 127 488 127 488 117 c 1,29,30
 469 85 469 85 431 59.5 c 128,-1,31
 393 34 393 34 345 18 c 128,-1,32
 297 2 297 2 245 -1.5 c 128,-1,33
 193 -5 193 -5 147 6 c 128,-1,34
 101 17 101 17 66.5 45.5 c 128,-1,35
 32 74 32 74 20 123 c 1,0,1
285 382 m 0,36,37
 271 382 271 382 251.5 379 c 128,-1,38
 232 376 232 376 214 368.5 c 128,-1,39
 196 361 196 361 183 349 c 128,-1,40
 170 337 170 337 170 318 c 1,41,-1
 356 349 l 1,42,43
 344 367 344 367 325 374.5 c 128,-1,44
 306 382 306 382 285 382 c 0,36,37
EndSplineSet
EndChar

StartChar: f
Encoding: 102 102 73
Width: 570
VWidth: 768
Flags: HW
LayerCount: 2
Fore
SplineSet
49 155 m 1,0,1
 43 155 43 155 36.5 160.5 c 128,-1,2
 30 166 30 166 25 175 c 128,-1,3
 20 184 20 184 16.5 194.5 c 128,-1,4
 13 205 13 205 13 214 c 1,5,-1
 155 265 l 1,6,7
 142 372 142 372 138.5 452 c 128,-1,8
 135 532 135 532 138.5 589 c 128,-1,9
 142 646 142 646 153.5 683 c 128,-1,10
 165 720 165 720 183 741.5 c 128,-1,11
 201 763 201 763 225.5 770.5 c 128,-1,12
 250 778 250 778 280 778 c 0,13,14
 308 778 308 778 346 762.5 c 128,-1,15
 384 747 384 747 419 722.5 c 128,-1,16
 454 698 454 698 478 667.5 c 0,17,18
 502 638 502 638 502 608 c 0,19,20
 502 606 502 606 502 601 c 128,-1,21
 502 596 502 596 501 591 c 128,-1,22
 500 586 500 586 499.5 582 c 128,-1,23
 499 578 499 578 498 576 c 1,24,25
 482 598 482 598 458.5 623 c 128,-1,26
 435 648 435 648 407.5 669 c 128,-1,27
 380 690 380 690 349 704 c 128,-1,28
 318 718 318 718 287 718 c 0,29,30
 255 718 255 718 239 696 c 128,-1,31
 223 674 223 674 215.5 642 c 128,-1,32
 208 610 208 610 207.5 577 c 128,-1,33
 207 544 207 544 207 521 c 0,34,35
 207 459 207 459 210.5 399.5 c 128,-1,36
 214 340 214 340 233 280 c 1,37,38
 273 280 273 280 313.5 285 c 128,-1,39
 354 290 354 290 395 296 c 128,-1,40
 436 302 436 302 478 307 c 128,-1,41
 520 312 520 312 563 313 c 0,42,43
 565 313 565 313 566.5 307.5 c 128,-1,44
 568 302 568 302 568 293 c 128,-1,45
 568 284 568 284 568 273 c 128,-1,46
 568 262 568 262 570 253 c 1,47,-1
 248 214 l 1,48,-1
 266 6 l 1,49,-1
 189 9 l 1,50,51
 189 59 189 59 184 106.5 c 128,-1,52
 179 154 179 154 171 202 c 1,53,-1
 49 155 l 1,0,1
EndSplineSet
EndChar

StartChar: g
Encoding: 103 103 74
Width: 495
VWidth: 768
Flags: HW
LayerCount: 2
Fore
SplineSet
298 -338 m 2,0,1
 327 -337 327 -337 346 -328.5 c 128,-1,2
 365 -320 365 -320 376.5 -304.5 c 128,-1,3
 388 -289 388 -289 393 -268.5 c 128,-1,4
 398 -248 398 -248 398 -224 c 0,5,6
 397 -210 397 -210 397.5 -181 c 128,-1,7
 398 -152 398 -152 398.5 -115 c 128,-1,8
 399 -78 399 -78 399.5 -38 c 128,-1,9
 400 2 400 2 401 39 c 128,-1,10
 402 76 402 76 402 105 c 128,-1,11
 402 134 402 134 401 148 c 1,12,13
 374 123 374 123 340.5 96.5 c 128,-1,14
 307 70 307 70 267 49 c 128,-1,15
 227 28 227 28 181.5 16 c 128,-1,16
 136 4 136 4 84 8 c 1,17,18
 56 8 56 8 39 21 c 128,-1,19
 22 34 22 34 22 63 c 1,20,21
 24 95 24 95 37.5 133 c 128,-1,22
 51 171 51 171 74 209 c 128,-1,23
 97 247 97 247 127 282.5 c 128,-1,24
 157 318 157 318 191 345 c 128,-1,25
 225 372 225 372 261.5 388 c 128,-1,26
 298 404 298 404 333.5 404 c 128,-1,27
 369 404 369 404 401.5 384 c 128,-1,28
 434 364 434 364 460 320 c 1,29,30
 470 168 470 168 473.5 57.5 c 128,-1,31
 477 -53 477 -53 473.5 -131.5 c 128,-1,32
 470 -210 470 -210 459.5 -259.5 c 128,-1,33
 449 -309 449 -309 433.5 -338.5 c 128,-1,34
 418 -368 418 -368 396.5 -380.5 c 128,-1,35
 375 -393 375 -393 348.5 -397 c 128,-1,36
 322 -401 322 -401 290.5 -401 c 0,37,38
 260 -401 260 -401 224 -404 c 1,39,-1
 188 -404 l 2,40,41
 165 -404 165 -404 141 -399 c 128,-1,42
 117 -394 117 -394 99.5 -382.5 c 128,-1,43
 82 -371 82 -371 82 -349 c 1,44,-1
 298 -338 l 2,0,1
330 340 m 0,45,46
 301 340 301 340 269.5 322.5 c 128,-1,47
 238 305 238 305 208 279 c 128,-1,48
 178 253 178 253 153.5 220.5 c 128,-1,49
 129 188 129 188 113.5 158 c 128,-1,50
 98 128 98 128 93 103.5 c 128,-1,51
 88 79 88 79 100 68 c 1,52,53
 111 61 111 61 137.5 66 c 128,-1,54
 164 71 164 71 196.5 84.5 c 128,-1,55
 229 98 229 98 263.5 120 c 128,-1,56
 298 142 298 142 326.5 168 c 128,-1,57
 355 194 355 194 373.5 224 c 128,-1,58
 392 254 392 254 392 285 c 0,59,60
 392 296 392 296 386 306 c 128,-1,61
 380 316 380 316 371.5 324 c 128,-1,62
 363 332 363 332 352 336 c 128,-1,63
 341 340 341 340 330 340 c 0,45,46
EndSplineSet
EndChar

StartChar: h
Encoding: 104 104 75
Width: 475
VWidth: 768
Flags: HW
LayerCount: 2
Fore
SplineSet
387 22 m 0,0,1
 387 58 387 58 386.5 100 c 128,-1,2
 386 142 386 142 382.5 179 c 128,-1,3
 379 216 379 216 370.5 242 c 128,-1,4
 362 268 362 268 346 272 c 0,5,6
 303 280 303 280 269.5 283 c 128,-1,7
 236 286 236 286 210.5 281 c 128,-1,8
 185 276 185 276 166.5 259 c 128,-1,9
 148 242 148 242 135.5 210 c 128,-1,10
 123 178 123 178 115 128 c 0,11,12
 108 78 108 78 104 7 c 1,13,-1
 31 7 l 1,14,15
 34 105 34 105 31 191.5 c 128,-1,16
 28 278 28 278 25 353.5 c 128,-1,17
 22 429 22 429 22 492.5 c 128,-1,18
 22 556 22 556 29 608 c 1,19,20
 37 623 37 623 49 625.5 c 128,-1,21
 61 628 61 628 73 622.5 c 128,-1,22
 85 617 85 617 94 606 c 0,23,24
 104 595 104 595 104 583 c 1,25,26
 103 575 103 575 102 556 c 128,-1,27
 101 537 101 537 100.5 512 c 128,-1,28
 100 487 100 487 99.5 457.5 c 128,-1,29
 99 428 99 428 99.5 399 c 128,-1,30
 100 370 100 370 101.5 343.5 c 0,31,32
 102 317 102 317 106 298 c 1,33,34
 131 314 131 314 157 327 c 128,-1,35
 183 340 183 340 211.5 346.5 c 128,-1,36
 240 353 240 353 272 354.5 c 128,-1,37
 304 356 304 356 343 350 c 1,38,39
 381 330 381 330 402 311.5 c 128,-1,40
 423 293 423 293 434 271.5 c 128,-1,41
 445 250 445 250 448.5 226 c 128,-1,42
 452 202 452 202 453 171 c 128,-1,43
 454 140 454 140 456 101 c 128,-1,44
 458 62 458 62 466 13 c 1,45,46
 462 6 462 6 449 1.5 c 128,-1,47
 436 -3 436 -3 422.5 -3 c 128,-1,48
 409 -3 409 -3 398 2.5 c 128,-1,49
 387 8 387 8 387 22 c 0,0,1
EndSplineSet
EndChar

StartChar: i
Encoding: 105 105 76
Width: 145
VWidth: 768
Flags: HW
LayerCount: 2
Fore
SplineSet
110 440 m 1,0,1
 117 348 117 348 122 244 c 0,2,3
 126 140 126 140 130 34 c 1,4,5
 126 19 126 19 115 12.5 c 128,-1,6
 104 6 104 6 90 5.5 c 128,-1,7
 76 5 76 5 64.5 9.5 c 128,-1,8
 53 14 53 14 50 22 c 1,9,-1
 50 440 l 1,10,-1
 110 440 l 1,0,1
22 568 m 1,11,12
 22 585 22 585 32 592.5 c 128,-1,13
 42 600 42 600 55.5 601 c 128,-1,14
 69 602 69 602 82.5 598.5 c 0,15,16
 96 596 96 596 102 590 c 1,17,18
 109 565 109 565 100 553.5 c 128,-1,19
 91 542 91 542 76.5 541 c 128,-1,20
 62 540 62 540 46 547.5 c 128,-1,21
 30 555 30 555 22 568 c 1,11,12
EndSplineSet
EndChar

StartChar: j
Encoding: 106 106 77
Width: 171
VWidth: 768
Flags: HW
LayerCount: 2
Fore
SplineSet
-106 -268 m 0,0,1
 -106 -267 -106 -267 -104.5 -262 c 128,-1,2
 -103 -257 -103 -257 -100.5 -250.5 c 128,-1,3
 -98 -244 -98 -244 -96 -239 c 128,-1,4
 -94 -234 -94 -234 -94 -233 c 1,5,6
 -78 -245 -78 -245 -61.5 -256.5 c 128,-1,7
 -45 -268 -45 -268 -27 -277 c 128,-1,8
 -9 -286 -9 -286 9.5 -292 c 128,-1,9
 28 -298 28 -298 49 -298 c 0,10,11
 63 -298 63 -298 74 -287 c 128,-1,12
 85 -276 85 -276 92 -259.5 c 128,-1,13
 99 -243 99 -243 102.5 -224.5 c 128,-1,14
 106 -206 106 -206 106 -191 c 0,15,16
 106 -111 106 -111 100 -35.5 c 128,-1,17
 94 40 94 40 88 114.5 c 128,-1,18
 82 189 82 189 78 264.5 c 128,-1,19
 74 340 74 340 77 420 c 1,20,21
 75 433 75 433 81.5 441 c 128,-1,22
 88 449 88 449 98 453.5 c 128,-1,23
 108 458 108 458 119 460 c 128,-1,24
 130 462 130 462 137 462 c 1,25,26
 129 401 129 401 129.5 333 c 128,-1,27
 130 265 130 265 135 195 c 128,-1,28
 140 125 140 125 147 57 c 128,-1,29
 154 -11 154 -11 158.5 -73 c 128,-1,30
 163 -135 163 -135 162.5 -186.5 c 128,-1,31
 162 -238 162 -238 152 -275 c 128,-1,32
 142 -312 142 -312 121 -330.5 c 0,33,34
 100 -350 100 -350 63 -344 c 1,35,36
 46 -344 46 -344 21 -340.5 c 128,-1,37
 -4 -337 -4 -337 -29 -328.5 c 128,-1,38
 -54 -320 -54 -320 -75 -305 c 128,-1,39
 -96 -290 -96 -290 -106 -268 c 0,0,1
104 663 m 1,40,41
 114 655 114 655 117 641 c 128,-1,42
 120 627 120 627 116 616.5 c 128,-1,43
 112 606 112 606 101.5 603 c 128,-1,44
 91 600 91 600 74 615 c 1,45,46
 74 622 74 622 75 630 c 128,-1,47
 76 638 76 638 79 645.5 c 128,-1,48
 82 653 82 653 88.5 658 c 128,-1,49
 95 663 95 663 104 663 c 1,40,41
EndSplineSet
EndChar

StartChar: k
Encoding: 107 107 78
Width: 589
VWidth: 768
Flags: HW
LayerCount: 2
Fore
SplineSet
46 350 m 2,0,1
 46 388 46 388 43 426.5 c 128,-1,2
 40 465 40 465 37 503.5 c 128,-1,3
 34 542 34 542 31 579.5 c 0,4,5
 28 618 28 618 28 656 c 0,6,7
 28 672 28 672 36.5 679 c 128,-1,8
 45 686 45 686 60 686 c 2,9,-1
 68 686 l 2,10,11
 75 686 75 686 76 685 c 1,12,13
 86 645 86 645 90 601.5 c 128,-1,14
 94 558 94 558 97 509.5 c 128,-1,15
 100 461 100 461 103 408.5 c 128,-1,16
 106 356 106 356 113 298 c 1,17,18
 127 305 127 305 152.5 322.5 c 128,-1,19
 178 340 178 340 209 362.5 c 128,-1,20
 240 385 240 385 274 409.5 c 128,-1,21
 308 434 308 434 338 453.5 c 128,-1,22
 368 473 368 473 392 486.5 c 128,-1,23
 416 500 416 500 426 500 c 0,24,25
 434 500 434 500 439 496 c 128,-1,26
 444 492 444 492 449 482 c 1,27,28
 418 443 418 443 379 411.5 c 128,-1,29
 340 380 340 380 298 350.5 c 128,-1,30
 256 321 256 321 214 293 c 128,-1,31
 172 265 172 265 138 233 c 1,32,33
 200 216 200 216 257 198 c 128,-1,34
 314 180 314 180 366.5 164.5 c 128,-1,35
 419 149 419 149 470.5 138.5 c 128,-1,36
 522 128 522 128 574 124 c 1,37,38
 574 113 574 113 573 105 c 128,-1,39
 572 97 572 97 568.5 91 c 128,-1,40
 565 85 565 85 557 81.5 c 128,-1,41
 549 78 549 78 535 77 c 1,42,-1
 527 77 l 1,43,44
 493 87 493 87 443.5 98 c 128,-1,45
 394 109 394 109 337 120.5 c 128,-1,46
 280 132 280 132 223 145 c 128,-1,47
 166 158 166 158 118 170 c 1,48,49
 118 160 118 160 120 141.5 c 128,-1,50
 122 123 122 123 122.5 101.5 c 128,-1,51
 123 80 123 80 121 58.5 c 128,-1,52
 119 37 119 37 111 21 c 128,-1,53
 103 5 103 5 87 -1.5 c 128,-1,54
 71 -8 71 -8 45 0 c 1,55,-1
 46 350 l 2,0,1
EndSplineSet
EndChar

StartChar: l
Encoding: 108 108 79
Width: 150
VWidth: 768
Flags: HW
LayerCount: 2
Fore
SplineSet
21 608 m 1,0,1
 29 619 29 619 37 629 c 128,-1,2
 45 639 45 639 60 639 c 0,3,4
 70 639 70 639 78 615.5 c 128,-1,5
 86 592 86 592 92 553.5 c 128,-1,6
 98 515 98 515 102.5 465.5 c 128,-1,7
 107 416 107 416 110 363 c 128,-1,8
 113 310 113 310 115 257 c 128,-1,9
 117 204 117 204 118 160 c 128,-1,10
 119 116 119 116 119.5 84.5 c 128,-1,11
 120 53 120 53 120 42 c 0,12,13
 120 28 120 28 114.5 20 c 128,-1,14
 109 12 109 12 100.5 7 c 128,-1,15
 92 2 92 2 81 0.5 c 128,-1,16
 70 -1 70 -1 60 -1 c 0,17,18
 58 -1 58 -1 55.5 -0.5 c 0,19,-1
 52 0 l 1,20,21
 52 20 52 20 51 60 c 128,-1,22
 50 100 50 100 48.5 150.5 c 128,-1,23
 47 201 47 201 45.5 257 c 128,-1,24
 44 313 44 313 42 363.5 c 128,-1,25
 40 414 40 414 38.5 454 c 128,-1,26
 37 494 37 494 36 514 c 0,27,28
 36 519 36 519 34 532.5 c 128,-1,29
 32 546 32 546 30 561 c 128,-1,30
 28 576 28 576 25.5 589.5 c 128,-1,31
 23 603 23 603 21 608 c 1,0,1
EndSplineSet
EndChar

StartChar: m
Encoding: 109 109 80
Width: 747
VWidth: 768
Flags: HW
LayerCount: 2
Fore
SplineSet
25 15 m 1,0,1
 24 46 24 46 26.5 93 c 128,-1,2
 29 140 29 140 31 193.5 c 128,-1,3
 33 247 33 247 32.5 301.5 c 128,-1,4
 32 356 32 356 27 400 c 1,5,6
 27 417 27 417 39 423.5 c 0,7,8
 52 430 52 430 68 430 c 0,9,10
 74 430 74 430 78 415.5 c 128,-1,11
 82 401 82 401 84.5 382 c 128,-1,12
 87 363 87 363 89.5 344.5 c 128,-1,13
 92 326 92 326 94 317 c 1,14,15
 106 339 106 339 132 357.5 c 128,-1,16
 158 376 158 376 190.5 386 c 128,-1,17
 223 396 223 396 257 398 c 128,-1,18
 291 400 291 400 319.5 391 c 128,-1,19
 348 382 348 382 366 361 c 128,-1,20
 384 340 384 340 384 305 c 1,21,22
 396 327 396 327 426 349.5 c 128,-1,23
 456 372 456 372 494 389 c 128,-1,24
 532 406 532 406 572.5 415 c 128,-1,25
 613 424 613 424 646.5 422.5 c 128,-1,26
 680 421 680 421 701 405 c 0,27,28
 722 390 722 390 721 356 c 1,29,-1
 741 7 l 2,30,31
 741 5 741 5 728.5 2.5 c 128,-1,32
 716 0 716 0 701 -1 c 128,-1,33
 686 -2 686 -2 673.5 0 c 128,-1,34
 661 2 661 2 661 10 c 0,35,36
 659 51 659 51 661.5 96.5 c 128,-1,37
 664 142 664 142 664 188.5 c 128,-1,38
 664 235 664 235 661 280.5 c 128,-1,39
 658 326 658 326 644 366 c 1,40,41
 622 364 622 364 595.5 359.5 c 128,-1,42
 569 355 569 355 542 342.5 c 128,-1,43
 515 330 515 330 490 307 c 128,-1,44
 465 284 465 284 445.5 245.5 c 128,-1,45
 426 207 426 207 413.5 151 c 0,46,47
 401 94 401 94 401 16 c 1,48,49
 397 3 397 3 383.5 -0.5 c 128,-1,50
 370 -4 370 -4 355 -2.5 c 128,-1,51
 340 -1 340 -1 329 4.5 c 128,-1,52
 318 10 318 10 320 16 c 1,53,54
 327 55 327 55 331.5 85.5 c 128,-1,55
 336 116 336 116 337.5 141 c 128,-1,56
 339 166 339 166 338 189 c 128,-1,57
 337 212 337 212 333 235.5 c 128,-1,58
 329 259 329 259 322.5 285.5 c 128,-1,59
 316 312 316 312 308 346 c 1,60,61
 258 346 258 346 222 332.5 c 128,-1,62
 186 319 186 319 162.5 295.5 c 128,-1,63
 139 272 139 272 125.5 239.5 c 128,-1,64
 112 207 112 207 106 170.5 c 128,-1,65
 100 134 100 134 100 94 c 128,-1,66
 100 54 100 54 104 15 c 1,67,68
 92 11 92 11 77 5 c 128,-1,69
 62 -1 62 -1 48 -1 c 0,70,71
 40 -1 40 -1 35.5 2 c 128,-1,72
 31 5 31 5 25 15 c 1,0,1
EndSplineSet
EndChar

StartChar: n
Encoding: 110 110 81
Width: 480
VWidth: 768
Flags: HW
LayerCount: 2
Fore
SplineSet
379 369 m 1,0,1
 384 381 384 381 367.5 383 c 128,-1,2
 351 385 351 385 322.5 379.5 c 128,-1,3
 294 374 294 374 259 363 c 128,-1,4
 224 352 224 352 192 336.5 c 128,-1,5
 160 321 160 321 136 302.5 c 128,-1,6
 112 284 112 284 107 265 c 1,7,-1
 106 10 l 1,8,-1
 44 10 l 1,9,10
 40 20 40 20 37 43 c 128,-1,11
 34 66 34 66 33 97 c 128,-1,12
 32 128 32 128 31.5 164.5 c 128,-1,13
 31 201 31 201 31.5 238 c 128,-1,14
 32 275 32 275 33.5 310.5 c 128,-1,15
 35 346 35 346 37 375.5 c 128,-1,16
 39 405 39 405 41 425 c 0,17,18
 43 446 43 446 45 452 c 1,19,20
 53 458 53 458 63.5 463 c 128,-1,21
 74 468 74 468 85 468 c 0,22,23
 99 467 99 467 103.5 450.5 c 128,-1,24
 108 434 108 434 108 412.5 c 128,-1,25
 108 391 108 391 105.5 370.5 c 128,-1,26
 103 350 103 350 103 343 c 1,27,28
 181 401 181 401 237 427 c 128,-1,29
 293 453 293 453 331.5 454.5 c 128,-1,30
 370 456 370 456 393.5 436.5 c 128,-1,31
 417 417 417 417 429.5 382.5 c 128,-1,32
 442 348 442 348 446.5 302 c 128,-1,33
 451 256 451 256 451.5 205 c 128,-1,34
 452 154 452 154 451.5 101 c 128,-1,35
 451 48 451 48 453 0 c 1,36,37
 444 -4 444 -4 440.5 -5 c 128,-1,38
 437 -6 437 -6 433 -5 c 128,-1,39
 429 -4 429 -4 422.5 -2.5 c 128,-1,40
 416 -1 416 -1 401 0 c 1,41,42
 392 37 392 37 391 84 c 128,-1,43
 390 131 390 131 391 180.5 c 128,-1,44
 392 230 392 230 390.5 279 c 128,-1,45
 389 328 389 328 379 369 c 1,0,1
EndSplineSet
EndChar

StartChar: o
Encoding: 111 111 82
Width: 540
VWidth: 768
Flags: HW
LayerCount: 2
Fore
SplineSet
49 178 m 0,0,1
 49 240 49 240 76 283.5 c 128,-1,2
 103 327 103 327 144 356.5 c 128,-1,3
 185 386 185 386 234 401 c 128,-1,4
 283 416 283 416 327 421 c 1,5,6
 370 423 370 423 407.5 410 c 128,-1,7
 445 397 445 397 472 373 c 128,-1,8
 499 349 499 349 513.5 316 c 128,-1,9
 528 283 528 283 524 246 c 1,10,11
 524 184 524 184 500 138 c 128,-1,12
 476 92 476 92 435 61 c 128,-1,13
 394 30 394 30 340.5 14.5 c 128,-1,14
 287 -1 287 -1 229 -1 c 0,15,16
 141 -1 141 -1 95 40.5 c 128,-1,17
 49 82 49 82 49 178 c 0,0,1
113 155 m 1,18,19
 113 123 113 123 121 104.5 c 128,-1,20
 129 86 129 86 144.5 77 c 128,-1,21
 160 68 160 68 182 65 c 128,-1,22
 204 62 204 62 233 62 c 0,23,24
 278 62 278 62 320 70.5 c 128,-1,25
 362 79 362 79 394.5 99.5 c 128,-1,26
 427 120 427 120 446.5 154 c 128,-1,27
 466 188 466 188 466 239 c 0,28,29
 466 265 466 265 458.5 289 c 128,-1,30
 451 313 451 313 436 330.5 c 128,-1,31
 421 348 421 348 399 358.5 c 0,32,33
 378 369 378 369 350 369 c 1,34,35
 313 363 313 363 276 355 c 128,-1,36
 239 347 239 347 207 326.5 c 128,-1,37
 175 306 175 306 150 265.5 c 128,-1,38
 125 225 125 225 113 155 c 1,18,19
EndSplineSet
EndChar

StartChar: p
Encoding: 112 112 83
Width: 534
VWidth: 768
Flags: HW
LayerCount: 2
Fore
SplineSet
58 396 m 1,0,1
 61 399 61 399 69 402.5 c 128,-1,2
 77 406 77 406 86 406 c 128,-1,3
 95 406 95 406 103.5 399 c 128,-1,4
 112 392 112 392 116 376 c 1,5,6
 223 412 223 412 299.5 417.5 c 128,-1,7
 376 423 376 423 424 407 c 128,-1,8
 472 391 472 391 493 357.5 c 128,-1,9
 514 324 514 324 510 282.5 c 128,-1,10
 506 241 506 241 479 195 c 128,-1,11
 452 149 452 149 402.5 108.5 c 128,-1,12
 353 68 353 68 283.5 37 c 128,-1,13
 214 6 214 6 128 -7 c 1,14,15
 128 -17 128 -17 128 -39.5 c 128,-1,16
 128 -62 128 -62 129 -90.5 c 128,-1,17
 130 -119 130 -119 130 -150.5 c 128,-1,18
 130 -182 130 -182 131 -211 c 128,-1,19
 132 -240 132 -240 133 -263 c 128,-1,20
 134 -286 134 -286 136 -298 c 0,21,22
 140 -332 140 -332 122 -347 c 128,-1,23
 104 -362 104 -362 73 -358 c 1,24,-1
 58 396 l 1,0,1
317 359 m 0,25,26
 288 359 288 359 253 352.5 c 128,-1,27
 218 346 218 346 187.5 330 c 128,-1,28
 157 314 157 314 137.5 286.5 c 128,-1,29
 118 259 118 259 120 218 c 1,30,-1
 120 56 l 1,31,32
 224 79 224 79 291 110.5 c 128,-1,33
 358 142 358 142 393.5 176 c 128,-1,34
 429 210 429 210 437.5 243 c 128,-1,35
 446 276 446 276 433 302 c 128,-1,36
 420 328 420 328 389 343.5 c 128,-1,37
 358 359 358 359 317 359 c 0,25,26
EndSplineSet
EndChar

StartChar: q
Encoding: 113 113 84
Width: 492
VWidth: 768
Flags: HW
LayerCount: 2
Fore
SplineSet
394 77 m 1,0,1
 374 59 374 59 345 44 c 128,-1,2
 316 29 316 29 283.5 18.5 c 128,-1,3
 251 8 251 8 219.5 2.5 c 128,-1,4
 188 -3 188 -3 162 -3 c 0,5,6
 145 -3 145 -3 122.5 0.5 c 128,-1,7
 100 4 100 4 81 13 c 128,-1,8
 62 22 62 22 48 36.5 c 128,-1,9
 34 51 34 51 34 73 c 1,10,11
 31 116 31 116 43.5 155.5 c 128,-1,12
 56 195 56 195 79 229 c 128,-1,13
 102 263 102 263 135 291 c 128,-1,14
 168 319 168 319 206 338 c 128,-1,15
 244 357 244 357 286 366.5 c 128,-1,16
 328 376 328 376 369 375 c 1,17,18
 396 375 396 375 419 355.5 c 128,-1,19
 442 336 442 336 457 311 c 1,20,21
 457 148 457 148 457.5 -11 c 128,-1,22
 458 -170 458 -170 469 -332 c 1,23,-1
 454 -332 l 2,24,25
 449 -332 449 -332 443 -332.5 c 128,-1,26
 437 -333 437 -333 429 -333 c 2,27,-1
 408 -333 l 1,28,-1
 394 77 l 1,0,1
105 105 m 0,29,30
 105 87 105 87 111.5 77.5 c 128,-1,31
 118 68 118 68 129.5 63.5 c 128,-1,32
 141 59 141 59 155.5 58.5 c 128,-1,33
 170 58 170 58 184 58 c 0,34,35
 216 58 216 58 248.5 64.5 c 128,-1,36
 281 71 281 71 307.5 86 c 128,-1,37
 334 101 334 101 351.5 127 c 128,-1,38
 369 153 369 153 369 191 c 0,39,40
 369 199 369 199 371.5 219 c 128,-1,41
 374 239 374 239 375 259.5 c 128,-1,42
 376 280 376 280 372 296 c 128,-1,43
 368 312 368 312 356 312 c 0,44,45
 311 312 311 312 266.5 298 c 128,-1,46
 222 284 222 284 186 257 c 128,-1,47
 150 230 150 230 127.5 191.5 c 128,-1,48
 105 153 105 153 105 105 c 0,29,30
EndSplineSet
EndChar

StartChar: r
Encoding: 114 114 85
Width: 529
VWidth: 768
Flags: HW
LayerCount: 2
Fore
SplineSet
26 429 m 1,0,1
 26 443 26 443 36 447.5 c 128,-1,2
 46 452 46 452 58 452 c 0,3,4
 78 452 78 452 89 436 c 128,-1,5
 100 420 100 420 106.5 398.5 c 128,-1,6
 113 377 113 377 115.5 356.5 c 128,-1,7
 118 336 118 336 120 327 c 1,8,9
 148 353 148 353 182.5 374.5 c 128,-1,10
 217 396 217 396 259.5 411.5 c 128,-1,11
 302 427 302 427 354 434 c 128,-1,12
 406 441 406 441 470 437 c 1,13,14
 490 441 490 441 500.5 428.5 c 128,-1,15
 511 416 511 416 512.5 398 c 128,-1,16
 514 380 514 380 507 362.5 c 128,-1,17
 500 345 500 345 485 342 c 1,18,19
 459 362 459 362 422 367.5 c 128,-1,20
 385 373 385 373 344.5 367 c 128,-1,21
 304 361 304 361 265 344.5 c 128,-1,22
 226 328 226 328 196 303.5 c 128,-1,23
 166 279 166 279 148 246.5 c 128,-1,24
 130 214 130 214 134 177 c 1,25,26
 134 154 134 154 137 132 c 128,-1,27
 140 110 140 110 143 87.5 c 128,-1,28
 146 65 146 65 149 43 c 0,29,30
 152 20 152 20 152 -2 c 1,31,32
 132 -4 132 -4 119.5 -7 c 128,-1,33
 107 -10 107 -10 99 -10 c 128,-1,34
 91 -10 91 -10 85 -3 c 128,-1,35
 79 4 79 4 71 26 c 1,36,37
 70 31 70 31 67 57.5 c 128,-1,38
 64 84 64 84 60 121.5 c 128,-1,39
 56 159 56 159 51 203.5 c 128,-1,40
 46 248 46 248 41 291 c 128,-1,41
 36 334 36 334 32 370.5 c 128,-1,42
 28 407 28 407 26 429 c 1,0,1
EndSplineSet
EndChar

StartChar: s
Encoding: 115 115 86
Width: 482
VWidth: 768
Flags: HW
LayerCount: 2
Fore
SplineSet
130 15 m 1,0,1
 183 32 183 32 229 55.5 c 128,-1,2
 275 79 275 79 306.5 101.5 c 128,-1,3
 338 124 338 124 348.5 143 c 128,-1,4
 359 162 359 162 342.5 172 c 128,-1,5
 326 182 326 182 276 178.5 c 128,-1,6
 226 175 226 175 136 152 c 1,7,8
 109 153 109 153 87.5 162.5 c 128,-1,9
 66 172 66 172 51 186.5 c 128,-1,10
 36 201 36 201 28 218 c 0,11,12
 20 234 20 234 20 250 c 0,13,14
 20 275 20 275 37 299.5 c 128,-1,15
 54 324 54 324 82.5 346 c 128,-1,16
 111 368 111 368 148.5 385.5 c 128,-1,17
 186 403 186 403 227 413.5 c 128,-1,18
 268 424 268 424 311.5 427.5 c 0,19,20
 354 431 354 431 394 424 c 1,21,22
 416 424 416 424 420 404 c 128,-1,23
 424 384 424 384 424 340 c 1,24,25
 393 354 393 354 357.5 360 c 128,-1,26
 322 366 322 366 286 364.5 c 128,-1,27
 250 363 250 363 216.5 354.5 c 128,-1,28
 183 346 183 346 157 330.5 c 128,-1,29
 131 315 131 315 114.5 292.5 c 128,-1,30
 98 270 98 270 98 242 c 0,31,32
 98 226 98 226 110 221 c 128,-1,33
 122 216 122 216 139 216.5 c 128,-1,34
 156 217 156 217 174.5 220.5 c 128,-1,35
 193 224 193 224 204 224 c 1,36,37
 305 246 305 246 361.5 242 c 128,-1,38
 418 238 418 238 437.5 217.5 c 128,-1,39
 457 197 457 197 443.5 165.5 c 128,-1,40
 430 134 430 134 391 98.5 c 128,-1,41
 352 63 352 63 293 29.5 c 128,-1,42
 234 -4 234 -4 162 -27 c 1,43,44
 158 -27 158 -27 153.5 -21.5 c 128,-1,45
 149 -16 149 -16 144.5 -8.5 c 128,-1,46
 140 -1 140 -1 136 6 c 128,-1,47
 132 13 132 13 130 15 c 1,0,1
EndSplineSet
EndChar

StartChar: t
Encoding: 116 116 87
Width: 388
VWidth: 768
Flags: HW
LayerCount: 2
Fore
SplineSet
16 301 m 1,0,-1
 15 365 l 1,1,-1
 155 365 l 1,2,-1
 155 608 l 1,3,4
 158 617 158 617 166 624.5 c 128,-1,5
 174 632 174 632 183 635.5 c 128,-1,6
 192 639 192 639 202 636.5 c 128,-1,7
 212 634 212 634 218 622 c 1,8,9
 226 591 226 591 229 560.5 c 128,-1,10
 232 530 232 530 232.5 498.5 c 128,-1,11
 233 467 233 467 233.5 436 c 128,-1,12
 234 405 234 405 236 375 c 1,13,14
 250 377 250 377 269 377.5 c 128,-1,15
 288 378 288 378 307 378.5 c 128,-1,16
 326 379 326 379 344.5 379.5 c 128,-1,17
 363 380 363 380 378 381 c 1,18,-1
 375 314 l 1,19,-1
 238 317 l 1,20,21
 237 271 237 271 238 231.5 c 128,-1,22
 239 192 239 192 240.5 154.5 c 128,-1,23
 242 117 242 117 242.5 78 c 128,-1,24
 243 39 243 39 243 -7 c 1,25,26
 212 -21 212 -21 196 -9.5 c 128,-1,27
 180 2 180 2 173 27 c 128,-1,28
 166 52 166 52 166 89 c 128,-1,29
 166 126 166 126 167.5 164.5 c 128,-1,30
 169 203 169 203 169 239 c 128,-1,31
 169 275 169 275 162 301 c 1,32,-1
 16 301 l 1,0,-1
EndSplineSet
EndChar

StartChar: u
Encoding: 117 117 88
Width: 487
VWidth: 768
Flags: HW
LayerCount: 2
Fore
SplineSet
21 124 m 1,0,1
 21 139 21 139 18.5 166.5 c 128,-1,2
 16 194 16 194 14 225.5 c 128,-1,3
 12 257 12 257 12.5 290 c 128,-1,4
 13 323 13 323 18 349.5 c 128,-1,5
 23 376 23 376 34.5 393.5 c 128,-1,6
 46 411 46 411 68 411 c 1,7,8
 94 403 94 403 103.5 391.5 c 128,-1,9
 113 380 113 380 112 362.5 c 128,-1,10
 111 345 111 345 103 322.5 c 128,-1,11
 95 300 95 300 87 271 c 128,-1,12
 79 242 79 242 74.5 207 c 128,-1,13
 70 172 70 172 76 130 c 1,14,15
 83 103 83 103 103.5 88.5 c 128,-1,16
 124 74 124 74 152.5 70 c 128,-1,17
 181 66 181 66 213.5 71 c 128,-1,18
 246 76 246 76 277 87.5 c 128,-1,19
 308 99 308 99 333 116 c 128,-1,20
 358 133 358 133 373 152 c 1,21,22
 381 190 381 190 381.5 221 c 128,-1,23
 382 252 382 252 379.5 281 c 128,-1,24
 377 310 377 310 373.5 340.5 c 128,-1,25
 370 371 370 371 369 408 c 1,26,27
 397 420 397 420 413.5 404 c 128,-1,28
 430 388 430 388 439 355 c 128,-1,29
 448 322 448 322 451 276 c 128,-1,30
 454 230 454 230 454 182 c 128,-1,31
 454 134 454 134 454 88 c 128,-1,32
 454 42 454 42 458 10 c 1,33,34
 438 -10 438 -10 416 6 c 128,-1,35
 394 22 394 22 382 74 c 1,36,37
 370 64 370 64 340.5 48.5 c 128,-1,38
 311 33 311 33 273.5 21 c 128,-1,39
 236 9 236 9 194 3.5 c 128,-1,40
 152 -2 152 -2 116 7 c 128,-1,41
 80 16 80 16 54 43.5 c 128,-1,42
 28 71 28 71 21 124 c 1,0,1
EndSplineSet
EndChar

StartChar: v
Encoding: 118 118 89
Width: 498
VWidth: 768
Flags: HW
LayerCount: 2
Fore
SplineSet
34 363 m 1,0,1
 30 375 30 375 35 387.5 c 128,-1,2
 40 400 40 400 49.5 408 c 128,-1,3
 59 416 59 416 69.5 415.5 c 128,-1,4
 80 415 80 415 87 401 c 2,5,-1
 244 109 l 1,6,7
 252 121 252 121 268.5 151.5 c 128,-1,8
 285 182 285 182 306 220 c 128,-1,9
 327 258 327 258 350 300 c 128,-1,10
 373 342 373 342 392.5 376.5 c 128,-1,11
 412 411 412 411 427 433.5 c 128,-1,12
 442 456 442 456 446 456 c 0,13,14
 456 456 456 456 463.5 451.5 c 128,-1,15
 471 447 471 447 476 440 c 128,-1,16
 481 433 481 433 482.5 424.5 c 128,-1,17
 484 416 484 416 484 409 c 1,18,19
 444 322 444 322 414.5 257.5 c 128,-1,20
 385 193 385 193 363.5 147.5 c 128,-1,21
 342 102 342 102 328 73 c 128,-1,22
 314 44 314 44 302 27 c 128,-1,23
 290 10 290 10 280.5 4 c 0,24,25
 272 -2 272 -2 260 -2 c 0,26,27
 245 -2 245 -2 220.5 27.5 c 128,-1,28
 196 57 196 57 165.5 107 c 128,-1,29
 135 157 135 157 101.5 223 c 128,-1,30
 68 289 68 289 34 363 c 1,0,1
EndSplineSet
EndChar

StartChar: w
Encoding: 119 119 90
Width: 776
VWidth: 768
Flags: HW
LayerCount: 2
Fore
SplineSet
382 259 m 1,0,1
 362 191 362 191 348 132.5 c 128,-1,2
 334 74 334 74 320 36 c 128,-1,3
 306 -2 306 -2 288.5 -15 c 128,-1,4
 271 -28 271 -28 242 -7 c 1,5,6
 226 9 226 9 205.5 41.5 c 128,-1,7
 185 74 185 74 163 114 c 128,-1,8
 141 154 141 154 119.5 197 c 128,-1,9
 98 240 98 240 81 278.5 c 128,-1,10
 64 317 64 317 54 346.5 c 128,-1,11
 44 376 44 376 44 389 c 0,12,13
 44 406 44 406 54 410.5 c 128,-1,14
 64 415 64 415 77 411 c 128,-1,15
 90 407 90 407 103 398.5 c 128,-1,16
 116 390 116 390 122 382 c 0,17,18
 129 372 129 372 138.5 349 c 128,-1,19
 148 326 148 326 162 290.5 c 128,-1,20
 176 255 176 255 194.5 209.5 c 128,-1,21
 213 164 213 164 239 110 c 1,22,23
 251 129 251 129 262.5 156.5 c 128,-1,24
 274 184 274 184 285.5 214 c 128,-1,25
 297 244 297 244 307.5 273.5 c 128,-1,26
 318 303 318 303 329 327 c 128,-1,27
 340 351 340 351 351.5 366 c 128,-1,28
 363 381 363 381 375 382 c 1,29,30
 383 386 383 386 398.5 372 c 128,-1,31
 414 358 414 358 433.5 333.5 c 128,-1,32
 453 309 453 309 474.5 277 c 128,-1,33
 496 245 496 245 516 215 c 128,-1,34
 536 185 536 185 552 160 c 128,-1,35
 568 135 568 135 578 124 c 1,36,37
 584 124 584 124 589.5 146.5 c 128,-1,38
 595 169 595 169 602 202.5 c 128,-1,39
 609 236 609 236 618 275 c 128,-1,40
 627 314 627 314 639.5 348 c 128,-1,41
 652 382 652 382 670 404.5 c 128,-1,42
 688 427 688 427 712 427 c 0,43,44
 726 427 726 427 731 416.5 c 128,-1,45
 736 406 736 406 735 394 c 1,46,47
 725 362 725 362 712 321.5 c 128,-1,48
 699 281 699 281 686 238.5 c 128,-1,49
 673 196 673 196 659 154 c 128,-1,50
 645 112 645 112 631.5 79 c 128,-1,51
 618 46 618 46 605 24.5 c 128,-1,52
 592 3 592 3 580 0 c 1,53,54
 571 -4 571 -4 558 6 c 128,-1,55
 545 16 545 16 529 36.5 c 128,-1,56
 513 57 513 57 495 84.5 c 128,-1,57
 477 112 477 112 458 142.5 c 128,-1,58
 439 173 439 173 419.5 203.5 c 128,-1,59
 400 234 400 234 382 259 c 1,0,1
EndSplineSet
EndChar

StartChar: x
Encoding: 120 120 91
Width: 451
VWidth: 768
Flags: HW
LayerCount: 2
Fore
SplineSet
25 28 m 1,0,1
 27 30 27 30 37.5 41 c 128,-1,2
 48 52 48 52 62 68.5 c 128,-1,3
 76 85 76 85 93 104.5 c 128,-1,4
 110 124 110 124 125.5 143.5 c 128,-1,5
 141 163 141 163 154 181 c 0,6,7
 167 200 167 200 174 212 c 1,8,9
 130 260 130 260 95 298 c 0,10,11
 80 314 80 314 66 330 c 128,-1,12
 52 346 52 346 41 358 c 128,-1,13
 30 370 30 370 23 378 c 2,14,-1
 16 386 l 1,15,-1
 71 445 l 1,16,17
 99 411 99 411 117 387.5 c 128,-1,18
 135 364 135 364 146.5 349 c 128,-1,19
 158 334 158 334 166 324 c 128,-1,20
 174 314 174 314 182 305 c 128,-1,21
 190 296 190 296 199.5 285 c 128,-1,22
 209 274 209 274 226 259 c 1,23,24
 239 275 239 275 254.5 298.5 c 128,-1,25
 270 322 270 322 288 348.5 c 128,-1,26
 306 375 306 375 325 401.5 c 128,-1,27
 344 428 344 428 363 450 c 1,28,29
 374 450 374 450 383 445.5 c 128,-1,30
 392 441 392 441 398 434.5 c 128,-1,31
 404 428 404 428 407 420.5 c 0,32,33
 410 412 410 412 410 406 c 1,34,35
 394 370 394 370 375.5 344 c 128,-1,36
 357 318 357 318 340 296.5 c 128,-1,37
 323 275 323 275 309.5 256 c 0,38,39
 296 236 296 236 287 214 c 1,40,41
 309 198 309 198 335 174 c 128,-1,42
 361 150 361 150 383.5 125 c 128,-1,43
 406 100 406 100 424 78 c 128,-1,44
 442 56 442 56 449 45 c 1,45,46
 449 41 449 41 445 34 c 128,-1,47
 441 27 441 27 435 19.5 c 128,-1,48
 429 12 429 12 422.5 5.5 c 128,-1,49
 416 -1 416 -1 411 -3 c 1,50,51
 393 6 393 6 373.5 28 c 128,-1,52
 354 50 354 50 332.5 76 c 128,-1,53
 311 102 311 102 288 128 c 128,-1,54
 265 154 265 154 240 172 c 1,55,56
 226 157 226 157 206 132 c 128,-1,57
 186 107 186 107 164 81.5 c 128,-1,58
 142 56 142 56 121 33 c 128,-1,59
 100 10 100 10 86 0 c 1,60,61
 81 -1 81 -1 72 1 c 128,-1,62
 63 3 63 3 53.5 6.5 c 128,-1,63
 44 10 44 10 36 15.5 c 128,-1,64
 28 21 28 21 25 28 c 1,0,1
EndSplineSet
EndChar

StartChar: y
Encoding: 121 121 92
Width: 526
VWidth: 768
Flags: HW
LayerCount: 2
Fore
SplineSet
223 -353 m 1,0,1
 213 -379 213 -379 198.5 -388.5 c 128,-1,2
 184 -398 184 -398 173 -397 c 128,-1,3
 162 -396 162 -396 156.5 -385 c 128,-1,4
 151 -374 151 -374 157 -358 c 1,5,6
 167 -315 167 -315 181 -269.5 c 128,-1,7
 195 -224 195 -224 210 -179 c 128,-1,8
 225 -134 225 -134 240 -91 c 0,9,10
 254 -48 254 -48 268 -10 c 1,11,12
 260 -2 260 -2 245 17.5 c 128,-1,13
 230 37 230 37 210 62.5 c 128,-1,14
 190 88 190 88 168 118 c 128,-1,15
 146 148 146 148 124.5 178.5 c 128,-1,16
 103 209 103 209 83 238 c 128,-1,17
 63 267 63 267 48.5 290.5 c 128,-1,18
 34 314 34 314 27 328.5 c 128,-1,19
 20 343 20 343 22 346 c 2,20,-1
 57 382 l 1,21,22
 74 366 74 366 96 342 c 128,-1,23
 118 318 118 318 140.5 290.5 c 128,-1,24
 163 263 163 263 186 234 c 128,-1,25
 209 205 209 205 230 176.5 c 128,-1,26
 251 148 251 148 268.5 123 c 128,-1,27
 286 98 286 98 298 80 c 1,28,29
 312 111 312 111 320 128.5 c 128,-1,30
 328 146 328 146 334 161 c 128,-1,31
 340 176 340 176 347 193.5 c 128,-1,32
 354 211 354 211 366.5 241 c 128,-1,33
 379 271 379 271 399.5 317.5 c 128,-1,34
 420 364 420 364 454 438 c 1,35,36
 459 440 459 440 470 441 c 128,-1,37
 481 442 481 442 490.5 439.5 c 128,-1,38
 500 437 500 437 506 429.5 c 128,-1,39
 512 422 512 422 508 407 c 1,40,-1
 223 -353 l 1,0,1
EndSplineSet
EndChar

StartChar: z
Encoding: 122 122 93
Width: 475
VWidth: 768
Flags: HW
LayerCount: 2
Fore
SplineSet
85 115 m 1,0,1
 119 148 119 148 149.5 175 c 128,-1,2
 180 202 180 202 208 227.5 c 128,-1,3
 236 253 236 253 263 280 c 128,-1,4
 290 307 290 307 317 340 c 1,5,6
 284 342 284 342 247.5 338.5 c 128,-1,7
 211 335 211 335 175.5 331 c 128,-1,8
 140 327 140 327 109 323.5 c 128,-1,9
 78 320 78 320 56 320 c 128,-1,10
 34 320 34 320 24 325.5 c 0,11,12
 14 332 14 332 20 344 c 256,13,14
 27 357 27 357 40.5 366.5 c 128,-1,15
 54 376 54 376 67 376 c 0,16,17
 71 376 71 376 75 376.5 c 128,-1,18
 79 377 79 377 89.5 378.5 c 128,-1,19
 100 380 100 380 119 382.5 c 128,-1,20
 138 385 138 385 170.5 388.5 c 128,-1,21
 203 392 203 392 252.5 396 c 128,-1,22
 302 400 302 400 373 406 c 1,23,24
 402 402 402 402 412 390.5 c 128,-1,25
 422 379 422 379 416.5 361 c 128,-1,26
 411 343 411 343 394 320 c 128,-1,27
 377 297 377 297 352.5 271.5 c 128,-1,28
 328 246 328 246 298.5 219 c 128,-1,29
 269 192 269 192 239.5 165.5 c 128,-1,30
 210 139 210 139 183 113.5 c 128,-1,31
 156 88 156 88 136 68 c 1,32,33
 169 66 169 66 194.5 65.5 c 128,-1,34
 220 65 220 65 242.5 66.5 c 128,-1,35
 265 68 265 68 286 69 c 128,-1,36
 307 70 307 70 329.5 70.5 c 128,-1,37
 352 71 352 71 379 70 c 0,38,39
 406 68 406 68 442 64 c 0,40,41
 447 64 447 64 453.5 61 c 128,-1,42
 460 58 460 58 464 51 c 128,-1,43
 468 44 468 44 469 33 c 128,-1,44
 470 22 470 22 465 9 c 1,45,46
 433 13 433 13 392.5 11.5 c 128,-1,47
 352 10 352 10 308.5 7 c 128,-1,48
 265 4 265 4 221.5 0.5 c 128,-1,49
 178 -3 178 -3 141.5 -3 c 128,-1,50
 105 -3 105 -3 78.5 2 c 128,-1,51
 52 7 52 7 41.5 19.5 c 128,-1,52
 31 32 31 32 40.5 55.5 c 128,-1,53
 50 79 50 79 85 115 c 1,0,1
EndSplineSet
EndChar

StartChar: braceleft
Encoding: 123 123 94
Width: 338
VWidth: 768
Flags: HW
LayerCount: 2
Fore
SplineSet
404 -130 m 1,0,1
 345 -126 345 -126 306.5 -109 c 128,-1,2
 268 -92 268 -92 243.5 -64.5 c 128,-1,3
 219 -37 219 -37 206.5 -2 c 128,-1,4
 194 33 194 33 188 73 c 128,-1,5
 182 113 182 113 179 156.5 c 128,-1,6
 176 200 176 200 172 243 c 1,7,8
 166 254 166 254 148 267 c 128,-1,9
 130 280 130 280 110 296.5 c 128,-1,10
 90 313 90 313 72.5 333 c 128,-1,11
 55 353 55 353 49 379 c 1,12,13
 52 402 52 402 60 418 c 128,-1,14
 68 434 68 434 78 445 c 128,-1,15
 88 456 88 456 100 464 c 128,-1,16
 112 472 112 472 123.5 480 c 128,-1,17
 135 488 135 488 145 498 c 128,-1,18
 155 508 155 508 161 522 c 1,19,20
 159 557 159 557 155.5 602.5 c 128,-1,21
 152 648 152 648 150.5 695 c 128,-1,22
 149 742 149 742 154.5 787.5 c 128,-1,23
 160 833 160 833 177.5 868.5 c 128,-1,24
 195 904 195 904 228.5 925.5 c 128,-1,25
 262 947 262 947 316 947 c 1,26,-1
 316 896 l 1,27,28
 302 897 302 897 287.5 895 c 128,-1,29
 273 893 273 893 260 882 c 128,-1,30
 247 871 247 871 236.5 845.5 c 128,-1,31
 226 820 226 820 220 775 c 128,-1,32
 214 730 214 730 214.5 661 c 0,33,34
 216 592 216 592 224 491 c 1,35,36
 224 471 224 471 209 458.5 c 128,-1,37
 194 446 194 446 176.5 435 c 128,-1,38
 159 424 159 424 144.5 413 c 128,-1,39
 130 402 130 402 130 385 c 1,40,41
 126 376 126 376 130.5 363.5 c 128,-1,42
 135 351 135 351 145 338 c 128,-1,43
 155 325 155 325 168.5 312 c 128,-1,44
 182 299 182 299 195.5 289.5 c 128,-1,45
 209 280 209 280 220.5 274 c 128,-1,46
 232 268 232 268 238 268 c 1,47,48
 228 176 228 176 234.5 117 c 128,-1,49
 241 58 241 58 256.5 22 c 128,-1,50
 272 -14 272 -14 294 -30 c 128,-1,51
 316 -46 316 -46 338.5 -52 c 128,-1,52
 361 -58 361 -58 379.5 -58 c 128,-1,53
 398 -58 398 -58 408 -62 c 1,54,-1
 404 -130 l 1,0,1
EndSplineSet
EndChar

StartChar: bar
Encoding: 124 124 95
Width: 139
VWidth: 768
Flags: HW
LayerCount: 2
Fore
SplineSet
49 919 m 1,0,-1
 104 919 l 1,1,-1
 104 -62 l 2,2,3
 104 -64 104 -64 97 -64 c 2,4,-1
 80 -64 l 2,5,6
 71 -64 71 -64 62 -64 c 128,-1,7
 53 -64 53 -64 52 -65 c 1,8,-1
 49 919 l 1,0,-1
EndSplineSet
EndChar

StartChar: braceright
Encoding: 125 125 96
Width: 459
VWidth: 768
Flags: HW
LayerCount: 2
Fore
SplineSet
26 -204 m 1,0,-1
 22 -136 l 1,1,2
 32 -133 32 -133 52 -133.5 c 128,-1,3
 72 -134 72 -134 95 -128 c 128,-1,4
 118 -122 118 -122 141 -105.5 c 128,-1,5
 164 -89 164 -89 180 -54.5 c 128,-1,6
 196 -20 196 -20 202.5 39 c 0,7,8
 210 98 210 98 200 189 c 1,9,10
 209 188 209 188 229.5 201 c 128,-1,11
 250 214 250 214 271 232 c 128,-1,12
 292 250 292 250 305 270 c 128,-1,13
 318 290 318 290 311 304 c 1,14,15
 311 315 311 315 304 324 c 128,-1,16
 297 333 297 333 286 340 c 128,-1,17
 275 347 275 347 262.5 354.5 c 128,-1,18
 250 362 250 362 239 369.5 c 128,-1,19
 228 377 228 377 221 386.5 c 128,-1,20
 214 396 214 396 214 410 c 0,21,22
 218 504 218 504 210.5 569 c 128,-1,23
 203 634 203 634 188 676 c 128,-1,24
 173 718 173 718 153.5 742 c 128,-1,25
 134 766 134 766 114.5 778 c 128,-1,26
 95 790 95 790 77 795 c 128,-1,27
 59 800 59 800 49 802 c 1,28,-1
 49 853 l 1,29,30
 106 853 106 853 145 832 c 128,-1,31
 184 811 184 811 210.5 776.5 c 128,-1,32
 237 742 237 742 251.5 698.5 c 128,-1,33
 266 655 266 655 272.5 609 c 128,-1,34
 279 563 279 563 279.5 519 c 0,35,36
 280 476 280 476 279 440 c 1,37,38
 289 419 289 419 307.5 403 c 128,-1,39
 326 387 326 387 345.5 372.5 c 128,-1,40
 365 358 365 358 380.5 342 c 128,-1,41
 396 326 396 326 398 304 c 1,42,43
 396 275 396 275 378.5 252.5 c 128,-1,44
 361 230 361 230 338 212 c 128,-1,45
 315 194 315 194 294.5 182.5 c 128,-1,46
 274 171 274 171 268 164 c 1,47,48
 263 121 263 121 260 78.5 c 128,-1,49
 257 36 257 36 250.5 -3.5 c 128,-1,50
 244 -43 244 -43 231.5 -77.5 c 128,-1,51
 219 -112 219 -112 193.5 -139 c 128,-1,52
 168 -166 168 -166 128 -183 c 128,-1,53
 88 -200 88 -200 26 -204 c 1,0,-1
EndSplineSet
EndChar

StartChar: asciitilde
Encoding: 126 126 97
Width: 426
VWidth: 768
Flags: HW
LayerCount: 2
Fore
SplineSet
197 493 m 1,0,1
 178 509 178 509 164 520.5 c 128,-1,2
 150 532 150 532 135.5 531 c 128,-1,3
 121 530 121 530 103.5 513 c 128,-1,4
 86 496 86 496 58 456 c 1,5,6
 55 456 55 456 50 457 c 128,-1,7
 45 458 45 458 39.5 460 c 128,-1,8
 34 462 34 462 30 466 c 128,-1,9
 26 470 26 470 24 476 c 1,10,11
 38 521 38 521 66 555.5 c 128,-1,12
 94 590 94 590 126 602 c 0,13,14
 139 607 139 607 150.5 602.5 c 128,-1,15
 162 598 162 598 173.5 589 c 128,-1,16
 185 580 185 580 196 567.5 c 128,-1,17
 207 555 207 555 218.5 543.5 c 128,-1,18
 230 532 230 532 242.5 525 c 0,19,20
 254 518 254 518 268 518 c 0,21,22
 289 518 289 518 301 524 c 128,-1,23
 313 530 313 530 322.5 542.5 c 128,-1,24
 332 555 332 555 344 573 c 0,25,26
 356 592 356 592 376 614 c 1,27,28
 379 614 379 614 384 612 c 128,-1,29
 389 610 389 610 393.5 606.5 c 128,-1,30
 398 603 398 603 401 599.5 c 128,-1,31
 404 596 404 596 404 592 c 0,32,33
 408 571 408 571 399 550.5 c 128,-1,34
 390 530 390 530 373 512.5 c 128,-1,35
 356 495 356 495 332.5 483 c 128,-1,36
 309 471 309 471 284.5 467 c 128,-1,37
 260 463 260 463 237 468.5 c 128,-1,38
 214 474 214 474 197 493 c 1,0,1
EndSplineSet
EndChar

StartChar: cent
Encoding: 162 162 100
Width: 607
VWidth: 768
Flags: HW
LayerCount: 2
Fore
SplineSet
278 4 m 1,0,1
 265 2 265 2 254.5 1 c 128,-1,2
 244 0 244 0 238 0 c 0,3,4
 205 0 205 0 167 7.5 c 128,-1,5
 129 15 129 15 96.5 32.5 c 128,-1,6
 64 50 64 50 42 78 c 128,-1,7
 20 106 20 106 20 148 c 1,8,9
 16 188 16 188 37.5 227.5 c 128,-1,10
 59 267 59 267 96 301.5 c 128,-1,11
 133 336 133 336 180.5 363 c 128,-1,12
 228 390 228 390 278 405 c 1,13,-1
 278 534 l 1,14,-1
 333 534 l 1,15,-1
 332 417 l 1,16,17
 348 419 348 419 371.5 420.5 c 128,-1,18
 395 422 395 422 416 417 c 128,-1,19
 437 412 437 412 452 400 c 128,-1,20
 467 388 467 388 467 362 c 0,21,22
 467 352 467 352 462.5 344.5 c 128,-1,23
 458 337 458 337 450.5 330 c 128,-1,24
 443 323 443 323 435 318 c 0,25,26
 427 314 427 314 420 308 c 1,27,28
 416 330 416 330 409 341 c 128,-1,29
 402 352 402 352 391 355.5 c 128,-1,30
 380 359 380 359 365.5 356.5 c 128,-1,31
 351 354 351 354 332 349 c 1,32,-1
 332 73 l 1,33,34
 361 82 361 82 389 93.5 c 128,-1,35
 417 105 417 105 444.5 116 c 128,-1,36
 472 127 472 127 498.5 134 c 128,-1,37
 525 141 525 141 551 141 c 0,38,39
 557 141 557 141 563.5 140.5 c 128,-1,40
 570 140 570 140 575 136.5 c 128,-1,41
 580 133 580 133 582 126.5 c 128,-1,42
 584 120 584 120 581 109 c 0,43,44
 577 94 577 94 551.5 80 c 128,-1,45
 526 66 526 66 490 53 c 128,-1,46
 454 40 454 40 411.5 30 c 0,47,48
 370 20 370 20 332 13 c 1,49,-1
 332 -62 l 2,50,51
 332 -64 332 -64 324 -64 c 2,52,-1
 307 -64 l 2,53,54
 298 -64 298 -64 289 -64 c 128,-1,55
 280 -64 280 -64 279 -65 c 1,56,-1
 278 4 l 1,0,1
243 58 m 0,57,58
 261 58 261 58 278 61 c 1,59,-1
 278 332 l 1,60,61
 241 318 241 318 206 300 c 128,-1,62
 171 282 171 282 144.5 260.5 c 128,-1,63
 118 239 118 239 104.5 214.5 c 128,-1,64
 91 190 91 190 95 162 c 1,65,66
 95 129 95 129 108 108.5 c 128,-1,67
 121 88 121 88 141.5 77 c 128,-1,68
 162 66 162 66 188.5 62 c 128,-1,69
 215 58 215 58 243 58 c 0,57,58
EndSplineSet
EndChar

StartChar: sterling
Encoding: 163 163 101
Width: 517
VWidth: 768
Flags: HW
LayerCount: 2
Fore
SplineSet
-20 254 m 0,0,1
 -20 267 -20 267 -9 272 c 128,-1,2
 2 277 2 277 13 278 c 0,3,4
 28 280 28 280 50 282.5 c 128,-1,5
 72 285 72 285 87 288 c 1,6,7
 89 347 89 347 93 390 c 128,-1,8
 97 433 97 433 106 462.5 c 128,-1,9
 115 492 115 492 131 509.5 c 128,-1,10
 147 527 147 527 175 537 c 0,11,12
 237 558 237 558 287 560.5 c 128,-1,13
 337 563 337 563 374.5 554 c 128,-1,14
 412 545 412 545 438.5 527.5 c 128,-1,15
 465 510 465 510 480.5 491 c 128,-1,16
 496 472 496 472 500.5 456 c 128,-1,17
 505 440 505 440 499.5 432 c 128,-1,18
 494 424 494 424 478 429.5 c 128,-1,19
 462 435 462 435 436 460 c 0,20,21
 427 469 427 469 406.5 481 c 128,-1,22
 386 493 386 493 359 501.5 c 128,-1,23
 332 510 332 510 302 513 c 128,-1,24
 272 516 272 516 244.5 508 c 128,-1,25
 217 500 217 500 193.5 477.5 c 128,-1,26
 170 455 170 455 157 414 c 1,27,-1
 142 298 l 1,28,29
 146 299 146 299 157.5 298.5 c 128,-1,30
 169 298 169 298 181.5 297.5 c 128,-1,31
 194 297 194 297 204.5 296.5 c 0,32,33
 214 296 214 296 220 297 c 1,34,35
 239 297 239 297 252.5 290.5 c 128,-1,36
 266 284 266 284 270 275.5 c 128,-1,37
 274 267 274 267 268.5 257.5 c 128,-1,38
 263 248 263 248 246 243 c 1,39,-1
 142 242 l 1,40,-1
 116 62 l 1,41,42
 154 69 154 69 182.5 74 c 128,-1,43
 211 79 211 79 234.5 82 c 128,-1,44
 258 85 258 85 280 84.5 c 128,-1,45
 302 84 302 84 326 80 c 128,-1,46
 350 76 350 76 379 69 c 128,-1,47
 408 62 408 62 446 49 c 0,48,49
 452 47 452 47 454.5 41 c 128,-1,50
 457 35 457 35 454.5 28.5 c 128,-1,51
 452 22 452 22 444 16.5 c 128,-1,52
 436 11 436 11 421 10 c 0,53,54
 407 8 407 8 392 11 c 128,-1,55
 377 14 377 14 358.5 18.5 c 128,-1,56
 340 23 340 23 316.5 27.5 c 128,-1,57
 293 32 293 32 262 32 c 0,58,59
 241 32 241 32 227.5 29.5 c 128,-1,60
 214 27 214 27 203 23.5 c 128,-1,61
 192 20 192 20 181 15 c 128,-1,62
 170 10 170 10 154 7 c 128,-1,63
 138 4 138 4 114 1.5 c 128,-1,64
 90 -1 90 -1 53 0 c 1,65,66
 57 17 57 17 60.5 43.5 c 128,-1,67
 64 70 64 70 66 101.5 c 128,-1,68
 68 133 68 133 69 167 c 128,-1,69
 70 201 70 201 72 235 c 1,70,-1
 27 230 l 2,71,72
 21 230 21 230 12.5 231 c 128,-1,73
 4 232 4 232 -3 234.5 c 128,-1,74
 -10 237 -10 237 -15 241.5 c 128,-1,75
 -20 246 -20 246 -20 254 c 0,0,1
EndSplineSet
EndChar

StartChar: currency
Encoding: 164 164 102
Width: 540
VWidth: 768
Flags: HW
LayerCount: 2
Fore
SplineSet
-1 27 m 1,0,1
 1 28 1 28 10.5 36 c 128,-1,2
 20 44 20 44 33 55.5 c 128,-1,3
 46 67 46 67 59 78 c 0,4,5
 72 90 72 90 80 98 c 1,6,7
 44 140 44 140 44 226 c 0,8,9
 44 273 44 273 60 309.5 c 128,-1,10
 76 346 76 346 103 374 c 1,11,12
 88 388 88 388 74 401 c 2,13,-1
 28 447 l 1,14,-1
 96 510 l 1,15,16
 122 482 122 482 140.5 461 c 0,17,18
 158 440 158 440 172 425 c 1,19,20
 208 445 208 445 247 455 c 128,-1,21
 286 465 286 465 322 469 c 1,22,23
 366 471 366 471 404 457 c 1,24,25
 411 465 411 465 420.5 477 c 128,-1,26
 430 489 430 489 440.5 501.5 c 128,-1,27
 451 514 451 514 460.5 525.5 c 128,-1,28
 470 537 470 537 477 544 c 1,29,30
 491 544 491 544 501.5 539 c 128,-1,31
 512 534 512 534 519.5 527 c 128,-1,32
 527 520 527 520 531.5 511.5 c 0,33,34
 536 502 536 502 536 496 c 1,35,36
 532 488 532 488 523.5 476 c 128,-1,37
 515 464 515 464 507 451.5 c 128,-1,38
 499 439 499 439 490.5 427.5 c 128,-1,39
 482 416 482 416 478 410 c 1,40,41
 500 386 500 386 511.5 357 c 128,-1,42
 523 328 523 328 519 294 c 1,43,44
 519 255 519 255 509 222.5 c 128,-1,45
 499 190 499 190 481 163 c 1,46,47
 509 136 509 136 531.5 112 c 128,-1,48
 554 88 554 88 562 76 c 1,49,50
 562 72 562 72 557 64 c 128,-1,51
 552 56 552 56 545 48 c 128,-1,52
 538 40 538 40 529.5 33.5 c 128,-1,53
 521 27 521 27 515 24 c 1,54,55
 494 33 494 33 471 55 c 128,-1,56
 448 77 448 77 423 104 c 1,57,58
 383 76 383 76 331.5 61.5 c 128,-1,59
 280 47 280 47 224 47 c 0,60,61
 203 47 203 47 184.5 49 c 0,62,63
 166 52 166 52 149 56 c 1,64,-1
 134 42 l 2,65,66
 124 33 124 33 112 23.5 c 128,-1,67
 100 14 100 14 90 6 c 128,-1,68
 80 -2 80 -2 76 -4 c 1,69,70
 69 -5 69 -5 57.5 -3 c 128,-1,71
 46 -1 46 -1 34.5 3.5 c 128,-1,72
 23 8 23 8 13 14 c 128,-1,73
 3 20 3 20 -1 27 c 1,0,1
100 194 m 1,74,75
 100 162 100 162 108 143.5 c 128,-1,76
 116 125 116 125 131.5 115.5 c 128,-1,77
 147 106 147 106 169 103 c 0,78,79
 190 100 190 100 220 100 c 0,80,81
 265 100 265 100 307.5 109 c 128,-1,82
 350 118 350 118 382 138.5 c 128,-1,83
 414 159 414 159 433.5 193 c 128,-1,84
 453 227 453 227 453 278 c 0,85,86
 453 304 453 304 445.5 328 c 128,-1,87
 438 352 438 352 423 369.5 c 128,-1,88
 408 387 408 387 386 397.5 c 128,-1,89
 364 408 364 408 337 408 c 1,90,91
 300 402 300 402 263 394 c 128,-1,92
 226 386 226 386 194 365.5 c 128,-1,93
 162 345 162 345 137 304.5 c 128,-1,94
 112 264 112 264 100 194 c 1,74,75
EndSplineSet
EndChar

StartChar: yen
Encoding: 165 165 103
Width: 513
VWidth: 768
Flags: HW
LayerCount: 2
Fore
SplineSet
113 269 m 2,0,1
 114 270 114 270 125 271.5 c 128,-1,2
 136 273 136 273 154 275.5 c 128,-1,3
 172 278 172 278 195 280 c 128,-1,4
 218 282 218 282 244 285 c 1,5,6
 244 296 244 296 244.5 306.5 c 128,-1,7
 245 317 245 317 246 327 c 1,8,-1
 -4 583 l 1,9,10
 -13 593 -13 593 -7.5 601.5 c 128,-1,11
 -2 610 -2 610 9 616.5 c 128,-1,12
 20 623 20 623 31 627 c 128,-1,13
 42 631 42 631 45 631 c 1,14,15
 60 620 60 620 71.5 612 c 128,-1,16
 83 604 83 604 94.5 594.5 c 128,-1,17
 106 585 106 585 120.5 571.5 c 128,-1,18
 135 558 135 558 156.5 535 c 128,-1,19
 178 512 178 512 208 477 c 128,-1,20
 238 442 238 442 282 389 c 1,21,22
 310 472 310 472 332 525 c 128,-1,23
 354 578 354 578 371.5 609 c 128,-1,24
 389 640 389 640 403.5 652 c 128,-1,25
 418 664 418 664 434 667 c 0,26,27
 438 667 438 667 443.5 663 c 128,-1,28
 449 659 449 659 454 653 c 128,-1,29
 459 647 459 647 463 640.5 c 0,30,31
 468 634 468 634 470 628 c 1,32,33
 455 596 455 596 436 560.5 c 128,-1,34
 417 525 417 525 397.5 486 c 128,-1,35
 378 447 378 447 358.5 405 c 128,-1,36
 339 363 339 363 323 318 c 1,37,-1
 322 294 l 1,38,39
 343 297 343 297 361.5 299.5 c 128,-1,40
 380 302 380 302 398 304 c 1,41,42
 413 308 413 308 420.5 304 c 128,-1,43
 428 300 428 300 429.5 291 c 128,-1,44
 431 282 431 282 427 272 c 128,-1,45
 423 262 423 262 414 256 c 1,46,-1
 320 243 l 1,47,-1
 317 200 l 1,48,49
 340 204 340 204 367 208 c 128,-1,50
 394 212 394 212 430 220 c 1,51,52
 452 220 452 220 458 206 c 128,-1,53
 464 192 464 192 460 172 c 1,54,55
 416 171 416 171 381 166.5 c 128,-1,56
 346 162 346 162 315 154 c 1,57,-1
 308 3 l 1,58,59
 306 -4 306 -4 295 -11.5 c 128,-1,60
 284 -19 284 -19 272 -21 c 128,-1,61
 260 -23 260 -23 249 -16.5 c 128,-1,62
 238 -10 238 -10 236 10 c 1,63,64
 238 14 238 14 240 26 c 128,-1,65
 242 38 242 38 243 55.5 c 128,-1,66
 244 73 244 73 244.5 94.5 c 128,-1,67
 245 116 245 116 245 140 c 1,68,69
 217 134 217 134 187 130 c 128,-1,70
 157 126 157 126 120 126 c 0,71,72
 109 126 109 126 103.5 133 c 128,-1,73
 98 140 98 140 98 158 c 0,74,75
 98 162 98 162 104 168 c 128,-1,76
 110 174 110 174 113 174 c 0,77,78
 156 181 156 181 187 185 c 128,-1,79
 218 189 218 189 244 192 c 1,80,-1
 244 232 l 1,81,-1
 141 219 l 2,82,83
 137 219 137 219 129.5 218.5 c 128,-1,84
 122 218 122 218 114.5 219 c 128,-1,85
 107 220 107 220 101.5 223.5 c 0,86,87
 96 228 96 228 94 236 c 1,88,-1
 113 269 l 2,0,1
EndSplineSet
EndChar

StartChar: brokenbar
Encoding: 166 166 104
Width: 123
VWidth: 768
Flags: HW
LayerCount: 2
Fore
SplineSet
95 272 m 1,0,-1
 88 32 l 2,1,2
 87 23 87 23 79 16.5 c 128,-1,3
 71 10 71 10 61.5 7 c 128,-1,4
 52 4 52 4 42 6 c 128,-1,5
 32 8 32 8 26 15 c 1,6,7
 27 30 27 30 27.5 56 c 128,-1,8
 28 82 28 82 29 116.5 c 128,-1,9
 30 151 30 151 31 190.5 c 128,-1,10
 32 230 32 230 34 272 c 1,11,-1
 95 272 l 1,0,-1
34 295 m 1,12,13
 36 365 36 365 38 419.5 c 128,-1,14
 40 474 40 474 41 499 c 1,15,16
 39 520 39 520 48.5 525.5 c 128,-1,17
 58 531 58 531 71 531 c 0,18,19
 81 531 81 531 90.5 528.5 c 128,-1,20
 100 526 100 526 104 514 c 1,21,-1
 96 294 l 1,22,-1
 34 295 l 1,12,13
EndSplineSet
EndChar

StartChar: section
Encoding: 167 167 105
Width: 482
VWidth: 768
Flags: HW
LayerCount: 2
Fore
SplineSet
61 64 m 1,0,1
 106 72 106 72 148 83.5 c 128,-1,2
 190 95 190 95 226 108.5 c 128,-1,3
 262 122 262 122 288 136.5 c 128,-1,4
 314 151 314 151 326.5 163 c 128,-1,5
 339 175 339 175 336 184 c 128,-1,6
 333 193 333 193 309.5 196 c 128,-1,7
 286 199 286 199 241 195.5 c 128,-1,8
 196 192 196 192 124 179 c 1,9,10
 97 180 97 180 76 190 c 128,-1,11
 55 200 55 200 40 214 c 128,-1,12
 25 228 25 228 17 245 c 128,-1,13
 9 262 9 262 9 278 c 0,14,15
 9 310 9 310 34.5 339 c 128,-1,16
 60 368 60 368 101 393 c 1,17,18
 69 407 69 407 52 431.5 c 128,-1,19
 35 456 35 456 35 480 c 0,20,21
 35 505 35 505 52 529.5 c 128,-1,22
 69 554 69 554 97.5 575.5 c 128,-1,23
 126 597 126 597 163.5 614.5 c 128,-1,24
 201 632 201 632 242.5 643 c 128,-1,25
 284 654 284 654 327 657.5 c 128,-1,26
 370 661 370 661 410 653 c 1,27,28
 432 653 432 653 436 633.5 c 128,-1,29
 440 614 440 614 440 569 c 1,30,31
 409 583 409 583 373.5 589.5 c 128,-1,32
 338 596 338 596 302 594 c 128,-1,33
 266 592 266 592 232 583.5 c 128,-1,34
 198 575 198 575 172 559.5 c 128,-1,35
 146 544 146 544 129.5 522 c 0,36,37
 112 500 112 500 112 471 c 0,38,39
 112 455 112 455 124.5 450.5 c 128,-1,40
 137 446 137 446 154 446 c 128,-1,41
 171 446 171 446 189.5 449.5 c 128,-1,42
 208 453 208 453 219 453 c 1,43,44
 301 470 301 470 353.5 471 c 128,-1,45
 406 472 406 472 432.5 460 c 128,-1,46
 459 448 459 448 462.5 427 c 128,-1,47
 466 406 466 406 450.5 379.5 c 128,-1,48
 435 353 435 353 402.5 324.5 c 128,-1,49
 370 296 370 296 325 268 c 1,50,51
 384 262 384 262 408.5 243 c 128,-1,52
 433 224 433 224 429 198.5 c 128,-1,53
 425 173 425 173 397.5 144.5 c 128,-1,54
 370 116 370 116 324 90.5 c 128,-1,55
 278 65 278 65 219 46.5 c 128,-1,56
 160 28 160 28 93 22 c 0,57,58
 89 22 89 22 84.5 28 c 128,-1,59
 80 34 80 34 75 41.5 c 128,-1,60
 70 49 70 49 66.5 55.5 c 128,-1,61
 63 62 63 62 61 64 c 1,0,1
86 268 m 1,62,63
 86 258 86 258 91.5 253 c 128,-1,64
 97 248 97 248 105 245.5 c 128,-1,65
 113 243 113 243 123.5 243 c 0,66,67
 134 242 134 242 146 244 c 1,68,69
 190 258 190 258 229 277 c 128,-1,70
 268 296 268 296 298 314.5 c 128,-1,71
 328 333 328 333 346 351 c 0,72,73
 364 368 364 368 367 382 c 0,74,75
 369 402 369 402 350.5 409 c 128,-1,76
 332 416 332 416 302.5 412.5 c 128,-1,77
 273 409 273 409 237 396 c 128,-1,78
 201 383 201 383 169 363.5 c 128,-1,79
 137 344 137 344 113.5 319.5 c 128,-1,80
 90 295 90 295 86 268 c 1,62,63
EndSplineSet
EndChar

StartChar: dieresis
Encoding: 168 168 106
Width: 356
VWidth: 768
Flags: HW
LayerCount: 2
Fore
SplineSet
62 592 m 0,0,1
 62 596 62 596 69 601.5 c 128,-1,2
 76 607 76 607 86 611 c 0,3,4
 96 616 96 616 109 622 c 1,5,6
 129 622 129 622 135.5 614 c 128,-1,7
 142 606 142 606 142 591 c 0,8,9
 142 580 142 580 136.5 573.5 c 128,-1,10
 131 567 131 567 122.5 564 c 128,-1,11
 114 561 114 561 104 560.5 c 128,-1,12
 94 560 94 560 85 560 c 0,13,14
 73 560 73 560 67.5 567 c 128,-1,15
 62 574 62 574 62 592 c 0,0,1
197 592 m 0,16,17
 197 596 197 596 204.5 601.5 c 128,-1,18
 212 607 212 607 220 611 c 0,19,20
 230 616 230 616 244 622 c 1,21,22
 264 622 264 622 271 614 c 128,-1,23
 278 606 278 606 278 591 c 0,24,25
 278 580 278 580 272.5 573.5 c 128,-1,26
 267 567 267 567 258.5 564 c 128,-1,27
 250 561 250 561 239.5 560.5 c 128,-1,28
 229 560 229 560 220 560 c 0,29,30
 208 560 208 560 202.5 567 c 128,-1,31
 197 574 197 574 197 592 c 0,16,17
EndSplineSet
EndChar

StartChar: copyright
Encoding: 169 169 107
Width: 606
VWidth: 768
Flags: HW
LayerCount: 2
Fore
SplineSet
36 178 m 0,0,1
 38 216 38 216 48 261 c 128,-1,2
 58 306 58 306 75.5 350 c 128,-1,3
 93 394 93 394 117.5 435 c 128,-1,4
 142 476 142 476 174 507.5 c 128,-1,5
 206 539 206 539 246 558 c 128,-1,6
 286 577 286 577 334 577 c 0,7,8
 397 577 397 577 442.5 552.5 c 128,-1,9
 488 528 488 528 518 488 c 128,-1,10
 548 448 548 448 562.5 397 c 128,-1,11
 577 346 577 346 577 291 c 0,12,13
 577 220 577 220 553.5 165.5 c 128,-1,14
 530 111 530 111 487 74 c 128,-1,15
 444 37 444 37 385 17.5 c 128,-1,16
 326 -2 326 -2 256 -2 c 0,17,18
 222 -2 222 -2 182 9 c 128,-1,19
 142 20 142 20 108.5 41.5 c 128,-1,20
 75 63 75 63 54 97 c 128,-1,21
 33 131 33 131 36 178 c 0,0,1
91 172 m 0,22,23
 91 132 91 132 106.5 107 c 128,-1,24
 122 82 122 82 148 68.5 c 128,-1,25
 174 55 174 55 206 50 c 128,-1,26
 238 45 238 45 271 45 c 0,27,28
 400 45 400 45 465 111.5 c 128,-1,29
 530 178 530 178 530 301 c 1,30,31
 532 415 532 415 475 475.5 c 128,-1,32
 418 536 418 536 310 530 c 1,33,34
 279 535 279 535 251.5 515.5 c 128,-1,35
 224 496 224 496 199.5 463 c 128,-1,36
 175 430 175 430 155 388 c 128,-1,37
 135 346 135 346 120.5 304.5 c 128,-1,38
 106 263 106 263 98.5 227.5 c 128,-1,39
 91 192 91 192 91 172 c 0,22,23
154 231 m 1,40,41
 152 261 152 261 161 291 c 128,-1,42
 170 321 170 321 186 348.5 c 128,-1,43
 202 376 202 376 223.5 399 c 128,-1,44
 245 422 245 422 269 438 c 128,-1,45
 293 454 293 454 317.5 462.5 c 128,-1,46
 342 471 342 471 364 468 c 1,47,48
 373 468 373 468 381 466.5 c 128,-1,49
 389 465 389 465 395.5 459.5 c 128,-1,50
 402 454 402 454 406 444 c 128,-1,51
 410 434 410 434 410 418 c 256,52,53
 410 402 410 402 400 390.5 c 0,54,55
 390 378 390 378 382 370 c 1,56,57
 380 390 380 390 375.5 403 c 128,-1,58
 371 416 371 416 356 416 c 1,59,60
 331 408 331 408 301.5 392 c 128,-1,61
 272 376 272 376 247.5 354 c 128,-1,62
 223 332 223 332 208 304 c 0,63,64
 192 276 192 276 196 244 c 1,65,66
 196 215 196 215 203.5 197 c 128,-1,67
 211 179 211 179 223 169.5 c 128,-1,68
 235 160 235 160 250.5 157 c 128,-1,69
 266 154 266 154 281 154 c 0,70,71
 305 154 305 154 328 165 c 128,-1,72
 351 176 351 176 373 189 c 128,-1,73
 395 202 395 202 416 213 c 0,74,75
 438 224 438 224 458 224 c 0,76,77
 466 224 466 224 472 220 c 128,-1,78
 478 216 478 216 475 197 c 0,79,80
 473 185 473 185 460 173.5 c 128,-1,81
 447 162 447 162 428 151.5 c 128,-1,82
 409 141 409 141 386 131.5 c 128,-1,83
 363 122 363 122 342 116 c 128,-1,84
 321 110 321 110 303.5 106 c 128,-1,85
 286 102 286 102 278 102 c 0,86,87
 259 102 259 102 237.5 108.5 c 128,-1,88
 216 115 216 115 197 130 c 128,-1,89
 178 145 178 145 166 169.5 c 128,-1,90
 154 194 154 194 154 231 c 1,40,41
EndSplineSet
EndChar

StartChar: guillemotleft
Encoding: 171 171 109
Width: 672
VWidth: 768
Flags: HW
LayerCount: 2
Fore
SplineSet
79 214 m 1,0,1
 109 237 109 237 149 269.5 c 128,-1,2
 189 302 189 302 230.5 334.5 c 128,-1,3
 272 367 272 367 310.5 395 c 128,-1,4
 349 423 349 423 376 438 c 1,5,6
 383 437 383 437 387.5 431 c 128,-1,7
 392 425 392 425 394.5 417 c 128,-1,8
 397 409 397 409 396.5 400.5 c 128,-1,9
 396 392 396 392 393 386 c 1,10,-1
 172 218 l 1,11,12
 186 211 186 211 212 199 c 128,-1,13
 238 187 238 187 270.5 171 c 128,-1,14
 303 155 303 155 338 136.5 c 128,-1,15
 373 118 373 118 404 97 c 1,16,17
 402 95 402 95 400 88.5 c 128,-1,18
 398 82 398 82 394.5 75 c 128,-1,19
 391 68 391 68 388 62 c 128,-1,20
 385 56 385 56 383 56 c 1,21,22
 365 67 365 67 338.5 77.5 c 128,-1,23
 312 88 312 88 281 99 c 128,-1,24
 250 110 250 110 218.5 122.5 c 128,-1,25
 187 135 187 135 159 149 c 128,-1,26
 131 163 131 163 110 178.5 c 128,-1,27
 89 194 89 194 79 214 c 1,0,1
298 236 m 1,28,29
 328 259 328 259 368 291 c 128,-1,30
 408 323 408 323 449.5 355.5 c 128,-1,31
 491 388 491 388 529.5 416 c 128,-1,32
 568 444 568 444 595 459 c 1,33,34
 602 458 602 458 606 452 c 128,-1,35
 610 446 610 446 613 438 c 128,-1,36
 616 430 616 430 615.5 421 c 128,-1,37
 615 412 615 412 612 407 c 1,38,-1
 392 239 l 1,39,40
 406 232 406 232 432 220 c 128,-1,41
 458 208 458 208 490 192 c 128,-1,42
 522 176 522 176 557 157.5 c 128,-1,43
 592 139 592 139 623 118 c 1,44,45
 621 116 621 116 618.5 110 c 128,-1,46
 616 104 616 104 613 96.5 c 128,-1,47
 610 89 610 89 607 82.5 c 128,-1,48
 604 76 604 76 602 76 c 1,49,50
 584 87 584 87 557.5 98 c 128,-1,51
 531 109 531 109 500.5 120 c 128,-1,52
 470 131 470 131 438 143.5 c 128,-1,53
 406 156 406 156 378 170 c 128,-1,54
 350 184 350 184 329 200 c 128,-1,55
 308 216 308 216 298 236 c 1,28,29
EndSplineSet
EndChar

StartChar: logicalnot
Encoding: 172 172 110
Width: 575
VWidth: 768
Flags: HW
LayerCount: 2
Fore
SplineSet
537 113 m 1,0,1
 509 110 509 110 497 113.5 c 128,-1,2
 485 117 485 117 481.5 132 c 128,-1,3
 478 147 478 147 480 176.5 c 128,-1,4
 482 206 482 206 482 256 c 1,5,-1
 68 249 l 1,6,-1
 71 310 l 1,7,8
 127 308 127 308 191.5 313.5 c 128,-1,9
 256 319 256 319 320 323.5 c 128,-1,10
 384 328 384 328 443.5 329.5 c 0,11,12
 502 332 502 332 550 320 c 1,13,14
 547 288 547 288 546.5 269 c 128,-1,15
 546 250 546 250 546 238 c 2,16,-1
 546 215 l 2,17,18
 546 206 546 206 545.5 194 c 128,-1,19
 545 182 545 182 543 163 c 128,-1,20
 541 144 541 144 537 113 c 1,0,1
EndSplineSet
EndChar

StartChar: hyphen_
Encoding: 173 173 111
Width: 297
VWidth: 768
Flags: HW
LayerCount: 2
Fore
SplineSet
28 226 m 0,0,1
 28 239 28 239 39 244 c 0,2,3
 50 248 50 248 61 250 c 0,4,5
 104 256 104 256 144.5 263.5 c 0,6,7
 186 271 186 271 230 275 c 1,8,9
 249 275 249 275 261.5 268.5 c 128,-1,10
 274 262 274 262 278.5 253.5 c 128,-1,11
 283 245 283 245 277.5 235.5 c 128,-1,12
 272 226 272 226 255 221 c 1,13,-1
 75 202 l 2,14,15
 69 202 69 202 60.5 203 c 128,-1,16
 52 204 52 204 45 206.5 c 128,-1,17
 38 209 38 209 33 213.5 c 128,-1,18
 28 218 28 218 28 226 c 0,0,1
EndSplineSet
EndChar

StartChar: registered
Encoding: 174 174 112
Width: 606
VWidth: 768
Flags: HW
LayerCount: 2
Fore
SplineSet
36 178 m 0,0,1
 38 216 38 216 48 261 c 128,-1,2
 58 306 58 306 75.5 350 c 128,-1,3
 93 394 93 394 117.5 435 c 128,-1,4
 142 476 142 476 174 507.5 c 128,-1,5
 206 539 206 539 246 558 c 128,-1,6
 286 577 286 577 334 577 c 0,7,8
 397 577 397 577 442.5 552.5 c 128,-1,9
 488 528 488 528 518 488 c 128,-1,10
 548 448 548 448 562.5 397 c 128,-1,11
 577 346 577 346 577 291 c 0,12,13
 577 220 577 220 553.5 165.5 c 128,-1,14
 530 111 530 111 487 74 c 128,-1,15
 444 37 444 37 385 17.5 c 128,-1,16
 326 -2 326 -2 256 -2 c 0,17,18
 222 -2 222 -2 182 9 c 128,-1,19
 142 20 142 20 108.5 41.5 c 128,-1,20
 75 63 75 63 54 97 c 128,-1,21
 33 131 33 131 36 178 c 0,0,1
237 154 m 2,22,23
 237 150 237 150 234 148 c 128,-1,24
 231 146 231 146 227.5 146 c 128,-1,25
 224 146 224 146 220 146 c 2,26,-1
 215 146 l 2,27,28
 199 146 199 146 196 166.5 c 128,-1,29
 193 187 193 187 193.5 223 c 128,-1,30
 194 259 194 259 195 307.5 c 128,-1,31
 196 356 196 356 189 412 c 1,32,33
 193 420 193 420 198.5 421 c 128,-1,34
 204 422 204 422 208.5 419 c 128,-1,35
 213 416 213 416 217 411 c 0,36,37
 222 406 222 406 224 404 c 1,38,39
 236 414 236 414 257 419.5 c 128,-1,40
 278 425 278 425 303 426.5 c 128,-1,41
 328 428 328 428 354 425.5 c 128,-1,42
 380 423 380 423 401 417 c 128,-1,43
 422 411 422 411 436.5 402.5 c 128,-1,44
 451 394 451 394 452.5 383.5 c 128,-1,45
 454 373 454 373 439.5 360.5 c 128,-1,46
 425 348 425 348 390 334 c 0,47,48
 382 330 382 330 361 324 c 128,-1,49
 340 318 340 318 318 310.5 c 128,-1,50
 296 303 296 303 276 296.5 c 128,-1,51
 256 290 256 290 250 285 c 1,52,53
 250 282 250 282 255 279 c 2,54,-1
 283 266 l 2,55,56
 305 255 305 255 351.5 231 c 0,57,58
 398 208 398 208 481 164 c 1,59,-1
 488 158 l 2,60,61
 492 155 492 155 495 151 c 1,62,63
 530 211 530 211 530 301 c 1,64,65
 532 415 532 415 475 475.5 c 128,-1,66
 418 536 418 536 310 530 c 1,67,68
 279 535 279 535 251.5 515.5 c 128,-1,69
 224 496 224 496 199.5 463 c 128,-1,70
 175 430 175 430 155 388 c 128,-1,71
 135 346 135 346 120.5 304.5 c 128,-1,72
 106 263 106 263 98.5 227.5 c 128,-1,73
 91 192 91 192 91 172 c 0,74,75
 91 132 91 132 106.5 107 c 128,-1,76
 122 82 122 82 148 68.5 c 128,-1,77
 174 55 174 55 206 50 c 128,-1,78
 238 45 238 45 271 45 c 0,79,80
 418 45 418 45 484 134 c 1,81,82
 478 132 478 132 472.5 133 c 0,83,84
 468 134 468 134 464 134 c 0,85,86
 455 134 455 134 429 149.5 c 128,-1,87
 403 165 403 165 369.5 186 c 128,-1,88
 336 207 336 207 300.5 227.5 c 128,-1,89
 265 248 265 248 237 256 c 1,90,-1
 237 154 l 2,22,23
230 376 m 0,91,92
 226 372 226 372 225 363 c 128,-1,93
 224 354 224 354 225.5 345 c 128,-1,94
 227 336 227 336 230 328 c 128,-1,95
 233 320 233 320 237 316 c 1,96,97
 242 314 242 314 261.5 319 c 128,-1,98
 281 324 281 324 305.5 332 c 128,-1,99
 330 340 330 340 354.5 349.5 c 128,-1,100
 379 359 379 359 393.5 369 c 128,-1,101
 408 379 408 379 409 386.5 c 128,-1,102
 410 394 410 394 387 398 c 1,103,-1
 350 398 l 2,104,105
 327 398 327 398 302.5 396.5 c 128,-1,106
 278 395 278 395 258 390.5 c 128,-1,107
 238 386 238 386 230 376 c 0,91,92
EndSplineSet
EndChar

StartChar: macron
Encoding: 175 175 113
Width: 297
VWidth: 768
Flags: HW
LayerCount: 2
Fore
SplineSet
28 524 m 0,0,1
 28 537 28 537 39 542 c 128,-1,2
 50 547 50 547 61 548 c 0,3,4
 104 554 104 554 144.5 561 c 0,5,6
 186 568 186 568 230 573 c 1,7,8
 249 573 249 573 261.5 566.5 c 128,-1,9
 274 560 274 560 278.5 551.5 c 128,-1,10
 283 543 283 543 277.5 533.5 c 128,-1,11
 272 524 272 524 255 519 c 1,12,-1
 75 500 l 2,13,14
 69 500 69 500 60.5 501 c 128,-1,15
 52 502 52 502 45 504.5 c 128,-1,16
 38 507 38 507 33 511.5 c 128,-1,17
 28 516 28 516 28 524 c 0,0,1
EndSplineSet
EndChar

StartChar: degree
Encoding: 176 176 114
Width: 210
VWidth: 768
Flags: HW
LayerCount: 2
Fore
SplineSet
23 328 m 0,0,1
 23 360 23 360 34.5 378.5 c 128,-1,2
 46 397 46 397 63 404.5 c 128,-1,3
 80 412 80 412 100.5 409.5 c 128,-1,4
 121 407 121 407 139 396.5 c 128,-1,5
 157 386 157 386 169.5 369 c 128,-1,6
 182 352 182 352 184 332 c 1,7,8
 184 285 184 285 165 269.5 c 128,-1,9
 146 254 146 254 107 254 c 0,10,11
 95 254 95 254 80.5 258 c 128,-1,12
 66 262 66 262 53 271.5 c 128,-1,13
 40 281 40 281 31.5 295 c 128,-1,14
 23 309 23 309 23 328 c 0,0,1
140 347 m 1,15,16
 124 364 124 364 106 368 c 128,-1,17
 88 372 88 372 75.5 365 c 128,-1,18
 63 358 63 358 60 342 c 128,-1,19
 57 326 57 326 71 302 c 1,20,21
 88 288 88 288 104.5 286.5 c 128,-1,22
 121 285 121 285 131.5 292.5 c 128,-1,23
 142 300 142 300 145 314.5 c 128,-1,24
 148 329 148 329 140 347 c 1,15,16
EndSplineSet
EndChar

StartChar: plusminus
Encoding: 177 177 115
Width: 503
VWidth: 768
Flags: HW
LayerCount: 2
Fore
SplineSet
67 20 m 0,0,1
 67 33 67 33 77.5 37.5 c 128,-1,2
 88 42 88 42 100 44 c 0,3,4
 117 46 117 46 151.5 51.5 c 0,5,6
 186 56 186 56 227 64 c 1,7,8
 225 84 225 84 223 108.5 c 128,-1,9
 221 133 221 133 217.5 157.5 c 128,-1,10
 214 182 214 182 209 206 c 128,-1,11
 204 230 204 230 197 250 c 1,12,13
 177 250 177 250 158.5 245 c 128,-1,14
 140 240 140 240 120.5 234.5 c 128,-1,15
 101 229 101 229 81.5 223.5 c 128,-1,16
 62 218 62 218 40 218 c 0,17,18
 29 218 29 218 23 231 c 128,-1,19
 17 244 17 244 17 259 c 1,20,-1
 197 296 l 1,21,-1
 197 452 l 2,22,23
 197 459 197 459 201 462 c 128,-1,24
 205 465 205 465 210 467 c 128,-1,25
 215 469 215 469 220.5 469.5 c 128,-1,26
 226 470 226 470 230 470 c 0,27,28
 246 470 246 470 251 464 c 128,-1,29
 256 458 256 458 260 436 c 0,30,31
 262 429 262 429 264 411.5 c 128,-1,32
 266 394 266 394 269 374 c 128,-1,33
 272 354 272 354 273.5 336.5 c 128,-1,34
 275 319 275 319 276 312 c 1,35,-1
 451 332 l 1,36,37
 451 310 451 310 449 300 c 128,-1,38
 447 290 447 290 431.5 284.5 c 128,-1,39
 416 279 416 279 379.5 273.5 c 0,40,41
 342 268 342 268 274 256 c 1,42,43
 270 236 270 236 272.5 214.5 c 128,-1,44
 275 193 275 193 279 169.5 c 128,-1,45
 283 146 283 146 287 122.5 c 0,46,47
 291 98 291 98 292 76 c 1,48,49
 337 84 337 84 375.5 90.5 c 128,-1,50
 414 97 414 97 434 99 c 1,51,52
 453 99 453 99 465.5 92.5 c 128,-1,53
 478 86 478 86 482.5 77.5 c 128,-1,54
 487 69 487 69 481.5 59.5 c 128,-1,55
 476 50 476 50 459 45 c 1,56,-1
 114 -4 l 1,57,58
 108 -4 108 -4 100 -3.5 c 128,-1,59
 92 -3 92 -3 84.5 -0.5 c 128,-1,60
 77 2 77 2 72 7 c 128,-1,61
 67 12 67 12 67 20 c 0,0,1
EndSplineSet
EndChar

StartChar: acute
Encoding: 180 180 118
Width: 165
VWidth: 768
Flags: HW
LayerCount: 2
Fore
SplineSet
88 567 m 2,0,1
 98 579 98 579 107 582.5 c 128,-1,2
 116 586 116 586 122 583.5 c 128,-1,3
 128 581 128 581 131.5 574 c 128,-1,4
 135 567 135 567 135 559 c 1,5,6
 133 550 133 550 129.5 543 c 128,-1,7
 126 536 126 536 118 526 c 128,-1,8
 110 516 110 516 94 502 c 128,-1,9
 78 488 78 488 52 467 c 1,10,-1
 23 494 l 1,11,-1
 88 567 l 2,0,1
EndSplineSet
EndChar

StartChar: mu
Encoding: 181 181 119
Width: 471
VWidth: 768
Flags: HW
LayerCount: 2
Fore
SplineSet
418 3 m 0,0,1
 413 -21 413 -21 402.5 -24.5 c 128,-1,2
 392 -28 392 -28 372 -16 c 0,3,4
 370 -15 370 -15 370 -6.5 c 128,-1,5
 370 2 370 2 370 11.5 c 128,-1,6
 370 21 370 21 369.5 28.5 c 0,7,8
 370 36 370 36 368 35 c 0,9,10
 335 9 335 9 291.5 5 c 128,-1,11
 248 1 248 1 208 10.5 c 128,-1,12
 168 20 168 20 136.5 38 c 0,13,14
 104 56 104 56 94 74 c 1,15,16
 93 54 93 54 94.5 33 c 128,-1,17
 96 12 96 12 97 -8 c 128,-1,18
 98 -28 98 -28 97.5 -46 c 128,-1,19
 97 -64 97 -64 92 -77 c 0,20,21
 87 -92 87 -92 75 -99 c 128,-1,22
 63 -106 63 -106 40 -99 c 1,23,24
 42 -91 42 -91 40.5 -60.5 c 128,-1,25
 39 -30 39 -30 36.5 13.5 c 128,-1,26
 34 57 34 57 32.5 108.5 c 128,-1,27
 31 160 31 160 31 211 c 128,-1,28
 31 262 31 262 34 307 c 128,-1,29
 37 352 37 352 44 382 c 0,30,31
 52 414 52 414 67 418 c 128,-1,32
 82 422 82 422 106 400 c 1,33,34
 105 365 105 365 102 335 c 128,-1,35
 99 305 99 305 96.5 276.5 c 128,-1,36
 94 248 94 248 95 217.5 c 128,-1,37
 96 187 96 187 103 150 c 1,38,39
 115 130 115 130 137.5 114 c 128,-1,40
 160 98 160 98 187 87 c 128,-1,41
 214 76 214 76 243 71.5 c 128,-1,42
 272 67 272 67 297 70.5 c 128,-1,43
 322 74 322 74 340.5 88.5 c 128,-1,44
 359 103 359 103 365 129 c 1,45,46
 372 171 372 171 372 206.5 c 128,-1,47
 372 242 372 242 369 271 c 128,-1,48
 366 300 366 300 362 323 c 128,-1,49
 358 346 358 346 358.5 362.5 c 128,-1,50
 359 379 359 379 365.5 389 c 0,51,52
 372 400 372 400 388 404 c 1,53,54
 400 391 400 391 408.5 362.5 c 128,-1,55
 417 334 417 334 422 297 c 128,-1,56
 427 260 427 260 428.5 218 c 128,-1,57
 430 176 430 176 429 135 c 128,-1,58
 428 94 428 94 425 59.5 c 128,-1,59
 422 25 422 25 418 3 c 0,0,1
EndSplineSet
EndChar

StartChar: paragraph
Encoding: 182 182 120
Width: 363
VWidth: 768
Flags: HW
LayerCount: 2
Fore
SplineSet
328 -1 m 1,0,1
 326 -1 326 -1 315 0 c 0,2,3
 304 2 304 2 290 2 c 0,4,5
 288 2 288 2 288.5 31 c 128,-1,6
 289 60 289 60 289.5 104 c 128,-1,7
 290 148 290 148 291 199 c 128,-1,8
 292 250 292 250 293.5 294.5 c 128,-1,9
 295 339 295 339 295 368.5 c 128,-1,10
 295 398 295 398 293 398 c 0,11,12
 289 398 289 398 287.5 398.5 c 128,-1,13
 286 399 286 399 283 399 c 0,14,15
 281 399 281 399 279.5 369.5 c 128,-1,16
 278 340 278 340 277 296 c 128,-1,17
 276 252 276 252 275 200.5 c 128,-1,18
 274 149 274 149 274 105 c 0,19,20
 274 62 274 62 273 32 c 1,21,-1
 273 2 l 1,22,23
 267 2 267 2 258 1.5 c 128,-1,24
 249 1 249 1 240.5 3.5 c 128,-1,25
 232 6 232 6 226 14 c 128,-1,26
 220 22 220 22 221 38 c 0,27,28
 222 45 222 45 223 58 c 128,-1,29
 224 71 224 71 224 88 c 128,-1,30
 224 105 224 105 224.5 123 c 128,-1,31
 225 141 225 141 225.5 157.5 c 128,-1,32
 226 174 226 174 226 187 c 128,-1,33
 226 200 226 200 226 206 c 1,34,35
 138 223 138 223 89 253.5 c 128,-1,36
 40 284 40 284 25 317 c 128,-1,37
 10 350 10 350 25 381 c 128,-1,38
 40 412 40 412 82 431 c 128,-1,39
 124 450 124 450 190 451.5 c 128,-1,40
 256 453 256 453 342 427 c 1,41,-1
 328 -1 l 1,0,1
EndSplineSet
EndChar

StartChar: periodcentered
Encoding: 183 183 121
Width: 135
VWidth: 768
Flags: HW
LayerCount: 2
Fore
SplineSet
14 225 m 1,0,1
 18 247 18 247 31 256 c 128,-1,2
 44 265 44 265 57.5 263 c 128,-1,3
 71 261 71 261 82.5 250.5 c 128,-1,4
 94 240 94 240 95 224 c 1,5,6
 95 202 95 202 86 195 c 0,7,8
 76 188 76 188 58 188 c 0,9,10
 52 188 52 188 45 190.5 c 128,-1,11
 38 193 38 193 31 197.5 c 128,-1,12
 24 202 24 202 19 209 c 128,-1,13
 14 216 14 216 14 225 c 1,0,1
EndSplineSet
EndChar

StartChar: cedilla
Encoding: 184 184 122
Width: 255
VWidth: 768
Flags: HW
LayerCount: 2
Fore
SplineSet
40 -172 m 1,0,1
 70 -175 70 -175 100 -170 c 128,-1,2
 130 -165 130 -165 152 -156.5 c 128,-1,3
 174 -148 174 -148 185 -137.5 c 128,-1,4
 196 -127 196 -127 190.5 -118.5 c 128,-1,5
 185 -110 185 -110 158 -107 c 128,-1,6
 131 -104 131 -104 77 -108 c 1,7,8
 66 -108 66 -108 59.5 -97 c 128,-1,9
 53 -86 53 -86 49.5 -70 c 128,-1,10
 46 -54 46 -54 45.5 -37 c 128,-1,11
 45 -20 45 -20 45 -7 c 1,12,13
 42 19 42 19 48.5 24 c 128,-1,14
 55 29 55 29 63 24.5 c 128,-1,15
 71 20 71 20 77 10.5 c 0,16,17
 84 1 84 1 80 -2 c 1,18,19
 80 -15 80 -15 79.5 -26.5 c 128,-1,20
 79 -38 79 -38 80.5 -47 c 128,-1,21
 82 -56 82 -56 86 -61.5 c 128,-1,22
 90 -67 90 -67 98 -67 c 1,23,24
 142 -63 142 -63 170 -68.5 c 128,-1,25
 198 -74 198 -74 212 -86 c 128,-1,26
 226 -98 226 -98 228.5 -115 c 128,-1,27
 231 -132 231 -132 222.5 -149 c 128,-1,28
 214 -166 214 -166 197.5 -181.5 c 128,-1,29
 181 -197 181 -197 157.5 -207 c 128,-1,30
 134 -217 134 -217 104.5 -218.5 c 128,-1,31
 75 -220 75 -220 43 -209 c 0,32,33
 41 -209 41 -209 40.5 -204.5 c 128,-1,34
 40 -200 40 -200 40.5 -193.5 c 128,-1,35
 41 -187 41 -187 41.5 -180.5 c 128,-1,36
 42 -174 42 -174 40 -172 c 1,0,1
EndSplineSet
EndChar

StartChar: guillemotright
Encoding: 187 187 125
Width: 627
VWidth: 768
Flags: HW
LayerCount: 2
Fore
SplineSet
110 45 m 1,0,1
 78 57 78 57 68.5 70 c 128,-1,2
 59 83 59 83 64.5 96.5 c 128,-1,3
 70 110 70 110 88 124.5 c 128,-1,4
 106 139 106 139 130 154 c 128,-1,5
 154 169 154 169 181 184.5 c 128,-1,6
 208 200 208 200 232 215 c 128,-1,7
 256 230 256 230 273 246 c 128,-1,8
 290 262 290 262 295 278 c 1,9,-1
 46 371 l 1,10,-1
 94 417 l 1,11,12
 125 395 125 395 152 382.5 c 128,-1,13
 179 370 179 370 204.5 362.5 c 128,-1,14
 230 355 230 355 254 350 c 128,-1,15
 278 345 278 345 302 338.5 c 128,-1,16
 326 332 326 332 350 321 c 128,-1,17
 374 310 374 310 400 292 c 1,18,19
 376 263 376 263 339 233 c 128,-1,20
 302 203 302 203 261 172.5 c 128,-1,21
 220 142 220 142 180 110 c 128,-1,22
 140 78 140 78 110 45 c 1,0,1
323 71 m 1,23,24
 291 83 291 83 281.5 96.5 c 128,-1,25
 272 110 272 110 278 123 c 128,-1,26
 284 136 284 136 302 150.5 c 128,-1,27
 320 165 320 165 344 180 c 128,-1,28
 368 195 368 195 395 210.5 c 128,-1,29
 422 226 422 226 445.5 241 c 128,-1,30
 469 256 469 256 486 272.5 c 0,31,32
 503 288 503 288 508 304 c 1,33,-1
 260 398 l 1,34,-1
 307 443 l 1,35,36
 338 421 338 421 365 408.5 c 128,-1,37
 392 396 392 396 417 388.5 c 128,-1,38
 442 381 442 381 466 376 c 128,-1,39
 490 371 490 371 514 364.5 c 128,-1,40
 538 358 538 358 562 347.5 c 128,-1,41
 586 337 586 337 613 318 c 1,42,43
 589 289 589 289 551.5 259.5 c 128,-1,44
 514 230 514 230 473.5 199 c 128,-1,45
 433 168 433 168 393 136 c 128,-1,46
 353 104 353 104 323 71 c 1,23,24
EndSplineSet
EndChar

StartChar: Aring
Encoding: 197 197 135
Width: 615
VWidth: 768
Flags: HW
LayerCount: 2
Fore
SplineSet
190 702 m 0,0,1
 190 734 190 734 201.5 752 c 128,-1,2
 213 770 213 770 230.5 777.5 c 128,-1,3
 248 785 248 785 268 783 c 128,-1,4
 288 781 288 781 306 770.5 c 128,-1,5
 324 760 324 760 337 743 c 128,-1,6
 350 726 350 726 352 705 c 1,7,8
 352 658 352 658 332 642 c 0,9,10
 325 638 325 638 318 634 c 1,11,12
 326 626 326 626 334 617 c 0,13,14
 352 596 352 596 365.5 571 c 0,15,16
 378 546 378 546 388 518 c 2,17,-1
 409 463 l 2,18,19
 419 435 419 435 430.5 408 c 128,-1,20
 442 381 442 381 460 358 c 0,21,22
 466 349 466 349 477.5 346 c 128,-1,23
 489 343 489 343 503 342.5 c 128,-1,24
 517 342 517 342 531.5 343 c 128,-1,25
 546 344 546 344 558 342.5 c 128,-1,26
 570 341 570 341 578 336.5 c 128,-1,27
 586 332 586 332 586 320 c 1,28,29
 589 304 589 304 583 296.5 c 128,-1,30
 577 289 577 289 566 286.5 c 128,-1,31
 555 284 555 284 541 284 c 128,-1,32
 527 284 527 284 515.5 285 c 128,-1,33
 504 286 504 286 496.5 285.5 c 0,34,35
 488 284 488 284 490 280 c 0,36,37
 499 252 499 252 510 218.5 c 128,-1,38
 521 185 521 185 534.5 151.5 c 128,-1,39
 548 118 548 118 564 86.5 c 128,-1,40
 580 55 580 55 598 32 c 1,41,42
 594 28 594 28 584.5 19 c 128,-1,43
 575 10 575 10 565 2.5 c 128,-1,44
 555 -5 555 -5 546.5 -10.5 c 128,-1,45
 538 -16 538 -16 536 -14 c 2,46,-1
 404 266 l 1,47,-1
 148 202 l 1,48,49
 144 187 144 187 138 163 c 128,-1,50
 132 139 132 139 123.5 111.5 c 128,-1,51
 115 84 115 84 103.5 57.5 c 128,-1,52
 92 31 92 31 78 13 c 0,53,54
 75 9 75 9 65.5 9.5 c 128,-1,55
 56 10 56 10 46.5 14 c 128,-1,56
 37 18 37 18 29.5 23 c 128,-1,57
 22 28 22 28 24 32 c 0,58,59
 32 52 32 52 48 94.5 c 128,-1,60
 64 137 64 137 84 190.5 c 128,-1,61
 104 244 104 244 126 303.5 c 128,-1,62
 148 363 148 363 168 416.5 c 128,-1,63
 188 470 188 470 203.5 512.5 c 0,64,65
 218 555 218 555 226 576 c 0,66,67
 232 593 232 593 234.5 607.5 c 0,68,69
 238 622 238 622 242 633 c 1,70,71
 230 637 230 637 220 645 c 0,72,73
 207 655 207 655 198.5 669 c 128,-1,74
 190 683 190 683 190 702 c 0,0,1
280 546 m 1,75,76
 276 512 276 512 263.5 476 c 128,-1,77
 251 440 251 440 235.5 404 c 128,-1,78
 220 368 220 368 204.5 335 c 128,-1,79
 189 302 189 302 177 274 c 1,80,81
 204 274 204 274 231 279.5 c 128,-1,82
 258 285 258 285 283.5 293.5 c 128,-1,83
 309 302 309 302 333 312 c 128,-1,84
 357 322 357 322 379 330 c 1,85,86
 377 340 377 340 372.5 358.5 c 128,-1,87
 368 377 368 377 361.5 398.5 c 128,-1,88
 355 420 355 420 347 443 c 128,-1,89
 339 466 339 466 329 486.5 c 128,-1,90
 319 507 319 507 306.5 522.5 c 128,-1,91
 294 538 294 538 280 546 c 1,75,76
308 721 m 1,92,93
 292 738 292 738 274 742 c 128,-1,94
 256 746 256 746 243 738.5 c 128,-1,95
 230 731 230 731 227 715 c 128,-1,96
 224 699 224 699 238 676 c 1,97,98
 255 662 255 662 271.5 660 c 128,-1,99
 288 658 288 658 298.5 666 c 128,-1,100
 309 674 309 674 312.5 688.5 c 128,-1,101
 316 703 316 703 308 721 c 1,92,93
EndSplineSet
EndChar

StartChar: AE
Encoding: 198 198 136
Width: 841
VWidth: 768
Flags: HW
LayerCount: 2
Fore
SplineSet
372 3 m 1,0,1
 360 5 360 5 351 6.5 c 128,-1,2
 342 8 342 8 340 10 c 1,3,-1
 317 236 l 1,4,-1
 152 212 l 1,5,6
 148 197 148 197 142 172.5 c 128,-1,7
 136 148 136 148 127 121 c 128,-1,8
 118 94 118 94 107 67 c 128,-1,9
 96 40 96 40 82 22 c 0,10,11
 79 18 79 18 70.5 19 c 128,-1,12
 62 20 62 20 52.5 23.5 c 128,-1,13
 43 27 43 27 35.5 32 c 128,-1,14
 28 37 28 37 28 41 c 0,15,16
 27 58 27 58 37 95.5 c 128,-1,17
 47 133 47 133 63.5 181.5 c 128,-1,18
 80 230 80 230 101 284 c 128,-1,19
 122 338 122 338 144 389 c 128,-1,20
 166 440 166 440 186 481.5 c 128,-1,21
 206 523 206 523 220 547 c 1,22,23
 240 591 240 591 262.5 612 c 128,-1,24
 285 633 285 633 306.5 636.5 c 128,-1,25
 328 640 328 640 346 629.5 c 0,26,27
 364 618 364 618 376 598 c 1,28,29
 396 593 396 593 425 591.5 c 128,-1,30
 454 590 454 590 487 589.5 c 128,-1,31
 520 589 520 589 555.5 589.5 c 128,-1,32
 591 590 591 590 624 588.5 c 128,-1,33
 657 587 657 587 684.5 583.5 c 128,-1,34
 712 580 712 580 731 574 c 1,35,-1
 731 527 l 1,36,37
 705 523 705 523 672 524.5 c 128,-1,38
 639 526 639 526 601.5 527 c 128,-1,39
 564 528 564 528 524 527 c 128,-1,40
 484 526 484 526 447 518 c 1,41,42
 440 487 440 487 437 466.5 c 128,-1,43
 434 446 434 446 433 430.5 c 128,-1,44
 432 415 432 415 432.5 401.5 c 128,-1,45
 433 388 433 388 434 372.5 c 128,-1,46
 435 357 435 357 436 336.5 c 128,-1,47
 437 316 437 316 437 287 c 1,48,49
 485 287 485 287 519.5 290.5 c 128,-1,50
 554 294 554 294 586 298.5 c 128,-1,51
 618 303 618 303 652.5 306.5 c 128,-1,52
 687 310 687 310 734 310 c 1,53,-1
 734 259 l 1,54,-1
 444 224 l 1,55,-1
 449 70 l 1,56,57
 495 70 495 70 531 71 c 128,-1,58
 567 72 567 72 596.5 74 c 128,-1,59
 626 76 626 76 651 78 c 128,-1,60
 676 80 676 80 702 81.5 c 128,-1,61
 728 83 728 83 758 84.5 c 128,-1,62
 788 86 788 86 825 86 c 1,63,64
 829 84 829 84 828 77 c 128,-1,65
 827 70 827 70 820.5 61 c 128,-1,66
 814 52 814 52 802 44.5 c 128,-1,67
 790 37 790 37 773 32 c 1,68,69
 669 21 669 21 566 14.5 c 128,-1,70
 463 8 463 8 372 0 c 1,71,-1
 372 3 l 1,0,1
320 550 m 1,72,73
 298 517 298 517 276 482 c 128,-1,74
 254 447 254 447 235 412 c 128,-1,75
 216 377 216 377 202 344 c 0,76,77
 188 312 188 312 181 284 c 1,78,79
 208 284 208 284 226 286 c 128,-1,80
 244 288 244 288 259 291 c 128,-1,81
 274 294 274 294 289.5 296.5 c 128,-1,82
 305 299 305 299 327 301 c 1,83,84
 323 317 323 317 324.5 342.5 c 128,-1,85
 326 368 326 368 327 400.5 c 128,-1,86
 328 433 328 433 328 471 c 128,-1,87
 328 509 328 509 320 550 c 1,72,73
EndSplineSet
EndChar

StartChar: Ccedilla
Encoding: 199 199 137
Width: 679
VWidth: 768
Flags: HW
LayerCount: 2
Fore
SplineSet
248 -166 m 1,0,1
 278 -169 278 -169 307.5 -163.5 c 128,-1,2
 337 -158 337 -158 359 -149.5 c 128,-1,3
 381 -141 381 -141 392.5 -130.5 c 128,-1,4
 404 -120 404 -120 398 -112 c 128,-1,5
 392 -104 392 -104 365 -100.5 c 128,-1,6
 338 -97 338 -97 284 -101 c 1,7,8
 273 -101 273 -101 266.5 -90 c 128,-1,9
 260 -79 260 -79 257 -63 c 128,-1,10
 254 -47 254 -47 253 -30 c 128,-1,11
 252 -13 252 -13 252 0 c 1,12,13
 216 4 216 4 182 16 c 0,14,15
 136 33 136 33 99.5 64 c 128,-1,16
 63 95 63 95 41.5 138.5 c 128,-1,17
 20 182 20 182 20 234 c 0,18,19
 20 311 20 311 48 381.5 c 128,-1,20
 76 452 76 452 124 506 c 128,-1,21
 172 560 172 560 238 591.5 c 128,-1,22
 304 623 304 623 380 623 c 0,23,24
 411 623 411 623 431.5 619.5 c 128,-1,25
 452 616 452 616 465 605.5 c 128,-1,26
 478 595 478 595 483.5 574.5 c 128,-1,27
 489 554 489 554 489 520 c 1,28,29
 445 564 445 564 397.5 575 c 128,-1,30
 350 586 350 586 305 573 c 128,-1,31
 260 560 260 560 219.5 526.5 c 128,-1,32
 179 493 179 493 150.5 448.5 c 128,-1,33
 122 404 122 404 107 351.5 c 128,-1,34
 92 299 92 299 98 249 c 1,35,36
 98 202 98 202 114.5 166 c 128,-1,37
 131 130 131 130 160 107 c 128,-1,38
 189 84 189 84 228 72.5 c 128,-1,39
 267 61 267 61 311 61 c 1,40,41
 367 65 367 65 409 79.5 c 128,-1,42
 451 94 451 94 485.5 114 c 128,-1,43
 520 134 520 134 552 158 c 128,-1,44
 584 182 584 182 620 204 c 1,45,46
 627 204 627 204 633.5 203 c 128,-1,47
 640 202 640 202 646 200 c 128,-1,48
 652 198 652 198 656 193 c 128,-1,49
 660 188 660 188 660 179 c 1,50,51
 622 146 622 146 579 113 c 128,-1,52
 536 80 536 80 487.5 54 c 0,53,54
 440 28 440 28 386 13 c 1,55,56
 336 -1 336 -1 286 -1 c 1,57,58
 286 -12 286 -12 286 -20 c 1,59,60
 286 -32 286 -32 287.5 -41 c 128,-1,61
 289 -50 289 -50 293 -55 c 128,-1,62
 297 -60 297 -60 305 -60 c 1,63,64
 349 -56 349 -56 377 -61.5 c 128,-1,65
 405 -67 405 -67 419.5 -79.5 c 128,-1,66
 434 -92 434 -92 436 -108.5 c 128,-1,67
 438 -125 438 -125 430 -142.5 c 128,-1,68
 422 -160 422 -160 405 -175 c 128,-1,69
 388 -190 388 -190 364 -200 c 128,-1,70
 340 -210 340 -210 311 -211.5 c 0,71,72
 282 -212 282 -212 250 -202 c 0,73,74
 248 -202 248 -202 248 -197.5 c 128,-1,75
 248 -193 248 -193 248 -186.5 c 128,-1,76
 248 -180 248 -180 249 -174 c 128,-1,77
 250 -168 250 -168 248 -166 c 1,0,1
EndSplineSet
EndChar

StartChar: Eth
Encoding: 208 208 146
Width: 654
VWidth: 768
Flags: HW
LayerCount: 2
Fore
SplineSet
9 206 m 0,0,1
 9 219 9 219 20 223.5 c 128,-1,2
 31 228 31 228 42 230 c 0,3,4
 49 231 49 231 55.5 231.5 c 128,-1,5
 62 232 62 232 68 233 c 1,6,-1
 68 598 l 1,7,-1
 81 598 l 2,8,9
 91 598 91 598 101 596 c 128,-1,10
 111 594 111 594 119.5 589.5 c 128,-1,11
 128 585 128 585 130 576 c 1,12,13
 150 583 150 583 182.5 589 c 128,-1,14
 215 595 215 595 254 597.5 c 128,-1,15
 293 600 293 600 336.5 599 c 128,-1,16
 380 598 380 598 422 591 c 128,-1,17
 464 584 464 584 501.5 569.5 c 128,-1,18
 539 555 539 555 568 531.5 c 128,-1,19
 597 508 597 508 614 475 c 128,-1,20
 631 442 631 442 631 397 c 1,21,22
 635 356 635 356 618 315.5 c 128,-1,23
 601 275 601 275 569.5 237.5 c 128,-1,24
 538 200 538 200 495 166.5 c 128,-1,25
 452 133 452 133 404.5 105 c 128,-1,26
 357 77 357 77 307 55.5 c 128,-1,27
 257 34 257 34 212 22 c 128,-1,28
 167 10 167 10 129.5 7 c 128,-1,29
 92 4 92 4 68 13 c 1,30,-1
 68 182 l 1,31,-1
 56 182 l 2,32,33
 50 182 50 182 42 182.5 c 128,-1,34
 34 183 34 183 27 185.5 c 128,-1,35
 20 188 20 188 14.5 193 c 128,-1,36
 9 198 9 198 9 206 c 0,0,1
568 389 m 1,37,38
 563 435 563 435 537.5 465.5 c 128,-1,39
 512 496 512 496 474 513.5 c 128,-1,40
 436 531 436 531 391 537.5 c 128,-1,41
 346 544 346 544 301 542.5 c 128,-1,42
 256 541 256 541 215.5 533 c 128,-1,43
 175 525 175 525 147 514 c 1,44,-1
 147 246 l 1,45,-1
 178 250 l 2,46,47
 194 252 194 252 211 254 c 1,48,49
 230 254 230 254 243 248 c 128,-1,50
 256 242 256 242 260 233 c 128,-1,51
 264 224 264 224 259 215 c 128,-1,52
 254 206 254 206 236 200 c 1,53,-1
 147 190 l 1,54,-1
 147 67 l 1,55,56
 178 67 178 67 221 79.5 c 128,-1,57
 264 92 264 92 311 114.5 c 128,-1,58
 358 137 358 137 404 168.5 c 128,-1,59
 450 200 450 200 486.5 235.5 c 128,-1,60
 523 271 523 271 545.5 310 c 128,-1,61
 568 349 568 349 568 389 c 1,37,38
EndSplineSet
EndChar

StartChar: multiply
Encoding: 215 215 153
Width: 451
VWidth: 768
Flags: HW
LayerCount: 2
Fore
SplineSet
77 92 m 1,0,1
 80 94 80 94 94.5 109.5 c 128,-1,2
 109 125 109 125 126.5 146 c 128,-1,3
 144 167 144 167 161 188.5 c 128,-1,4
 178 210 178 210 185 224 c 1,5,6
 153 260 153 260 128 288 c 0,7,8
 118 300 118 300 107.5 311 c 128,-1,9
 97 322 97 322 89 331 c 128,-1,10
 81 340 81 340 76 346 c 1,11,-1
 71 352 l 1,12,-1
 111 394 l 1,13,14
 131 368 131 368 144.5 352 c 128,-1,15
 158 336 158 336 166 325 c 128,-1,16
 174 314 174 314 179.5 306 c 128,-1,17
 185 298 185 298 190.5 291.5 c 128,-1,18
 196 285 196 285 203.5 277.5 c 128,-1,19
 211 270 211 270 223 259 c 1,20,21
 232 271 232 271 243.5 288 c 128,-1,22
 255 305 255 305 267.5 324.5 c 128,-1,23
 280 344 280 344 294 363 c 128,-1,24
 308 382 308 382 322 398 c 1,25,26
 338 398 338 398 347 387 c 128,-1,27
 356 376 356 376 356 367 c 1,28,29
 344 341 344 341 331 321.5 c 128,-1,30
 318 302 318 302 306 287 c 128,-1,31
 294 272 294 272 284 257.5 c 0,32,33
 274 242 274 242 268 226 c 1,34,35
 284 215 284 215 302 197 c 128,-1,36
 320 179 320 179 336.5 161 c 128,-1,37
 353 143 353 143 366.5 127 c 0,38,39
 380 112 380 112 385 104 c 1,40,41
 385 101 385 101 382 95.5 c 128,-1,42
 379 90 379 90 374.5 85 c 128,-1,43
 370 80 370 80 365.5 75 c 128,-1,44
 361 70 361 70 357 68 c 1,45,46
 344 75 344 75 330 90.5 c 128,-1,47
 316 106 316 106 300.5 125.5 c 128,-1,48
 285 145 285 145 268 164 c 128,-1,49
 251 183 251 183 233 196 c 1,50,51
 223 185 223 185 208.5 166.5 c 128,-1,52
 194 148 194 148 178 129.5 c 128,-1,53
 162 111 162 111 147 94.5 c 128,-1,54
 132 78 132 78 122 70 c 1,55,56
 118 69 118 69 111.5 71 c 128,-1,57
 105 73 105 73 98.5 76 c 128,-1,58
 92 79 92 79 85.5 83.5 c 128,-1,59
 79 88 79 88 77 92 c 1,0,1
EndSplineSet
EndChar

StartChar: Oslash
Encoding: 216 216 154
Width: 643
VWidth: 768
Flags: HW
LayerCount: 2
Fore
SplineSet
104 8 m 1,0,1
 106 14 106 14 122 42 c 0,2,3
 126 50 126 50 131 57 c 1,4,5
 117 65 117 65 106 75 c 0,6,7
 66 107 66 107 43.5 157.5 c 128,-1,8
 21 208 21 208 21 280 c 0,9,10
 21 344 21 344 43 398 c 128,-1,11
 65 452 65 452 103.5 489.5 c 128,-1,12
 142 527 142 527 194.5 548 c 0,13,14
 248 569 248 569 308 569 c 0,15,16
 366 569 366 569 421 554 c 0,17,18
 434 550 434 550 448 546 c 1,19,20
 462 568 462 568 473 584 c 0,21,22
 491 611 491 611 494 614 c 1,23,24
 502 610 502 610 496 585 c 0,25,26
 491 564 491 564 478 533 c 1,27,28
 500 523 500 523 519 509 c 0,29,30
 562 478 562 478 588 430.5 c 0,31,32
 614 382 614 382 614 316 c 0,33,34
 614 162 614 162 541.5 88 c 128,-1,35
 469 14 469 14 318 14 c 0,36,37
 254 14 254 14 200 28 c 0,38,39
 191 30 191 30 182 34 c 1,40,41
 180 32 180 32 178 29 c 0,42,43
 146 -10 146 -10 121 -32 c 1,44,45
 114 -32 114 -32 110 -27 c 128,-1,46
 106 -22 106 -22 105 -15 c 128,-1,47
 104 -8 104 -8 104 -2 c 2,48,-1
 104 8 l 1,0,1
320 74 m 256,49,50
 376 74 376 74 421.5 91.5 c 128,-1,51
 467 109 467 109 499.5 140 c 128,-1,52
 532 171 532 171 549.5 214 c 128,-1,53
 567 257 567 257 567 310 c 256,54,55
 567 362 567 362 544.5 399 c 128,-1,56
 522 436 522 436 486 460 c 0,57,58
 471 470 471 470 454 478 c 1,59,60
 444 456 444 456 431 431 c 0,61,62
 406 381 406 381 376 327.5 c 128,-1,63
 346 274 346 274 312 219.5 c 128,-1,64
 278 165 278 165 244 116 c 0,65,66
 234 101 234 101 224 87 c 1,67,68
 264 74 264 74 320 74 c 256,49,50
98 296 m 0,69,70
 98 184 98 184 153 129 c 0,71,72
 160 122 160 122 168 116 c 1,73,74
 194 156 194 156 226 208 c 0,75,76
 260 261 260 261 296 315.5 c 128,-1,77
 332 370 332 370 366 422 c 0,78,79
 390 460 390 460 412 492 c 1,80,81
 408 493 408 493 404 494 c 0,82,83
 358 504 358 504 310 505 c 0,84,85
 268 505 268 505 229.5 488.5 c 128,-1,86
 191 472 191 472 162 444 c 128,-1,87
 133 416 133 416 115.5 378 c 128,-1,88
 98 340 98 340 98 296 c 0,69,70
EndSplineSet
EndChar

StartChar: Thorn
Encoding: 222 222 160
Width: 485
VWidth: 768
Flags: HW
LayerCount: 2
Fore
SplineSet
99 23 m 2,0,1
 99 13 99 13 91.5 7.5 c 128,-1,2
 84 2 84 2 74.5 1 c 128,-1,3
 65 0 65 0 55.5 4.5 c 0,4,5
 46 10 46 10 42 20 c 1,6,-1
 40 167 l 1,7,-1
 32 634 l 1,8,9
 29 655 29 655 40.5 664.5 c 128,-1,10
 52 674 52 674 67 674 c 128,-1,11
 82 674 82 674 94 666 c 128,-1,12
 106 658 106 658 104 644 c 1,13,-1
 108 410 l 1,14,15
 137 448 137 448 175.5 480.5 c 128,-1,16
 214 513 214 513 255 534.5 c 128,-1,17
 296 556 296 556 335 564 c 128,-1,18
 374 572 374 572 404.5 561.5 c 128,-1,19
 435 551 435 551 453.5 520.5 c 128,-1,20
 472 490 472 490 472 436 c 0,21,22
 472 398 472 398 454.5 362 c 128,-1,23
 437 326 437 326 407.5 293 c 128,-1,24
 378 260 378 260 340 233 c 128,-1,25
 302 206 302 206 260.5 187.5 c 128,-1,26
 219 169 219 169 178.5 160 c 128,-1,27
 138 151 138 151 104 155 c 1,28,-1
 99 23 l 2,0,1
418 427 m 1,29,30
 410 464 410 464 383 477 c 128,-1,31
 356 490 356 490 320 483.5 c 128,-1,32
 284 477 284 477 245 454.5 c 128,-1,33
 206 432 206 432 174.5 398 c 128,-1,34
 143 364 143 364 124.5 322 c 128,-1,35
 106 280 106 280 112 236 c 1,36,37
 108 224 108 224 122 219.5 c 128,-1,38
 136 215 136 215 161.5 219.5 c 128,-1,39
 187 224 187 224 220.5 239 c 128,-1,40
 254 254 254 254 289.5 279 c 128,-1,41
 325 304 325 304 358.5 340.5 c 128,-1,42
 392 377 392 377 418 427 c 1,29,30
EndSplineSet
EndChar

StartChar: germandbls
Encoding: 223 223 161
Width: 682
VWidth: 768
Flags: HW
LayerCount: 2
Fore
SplineSet
137 -136 m 1,0,-1
 73 -136 l 1,1,2
 79 -95 79 -95 81 -41.5 c 128,-1,3
 83 12 83 12 82.5 71.5 c 128,-1,4
 82 131 82 131 80 195 c 128,-1,5
 78 259 78 259 75.5 321 c 128,-1,6
 73 383 73 383 70.5 441.5 c 128,-1,7
 68 500 68 500 68 548 c 2,8,-1
 68 562 l 2,9,10
 68 572 68 572 75 584 c 128,-1,11
 82 596 82 596 99 608 c 128,-1,12
 116 620 116 620 148 625 c 0,13,14
 200 634 200 634 252.5 633 c 128,-1,15
 305 632 305 632 351.5 623.5 c 128,-1,16
 398 615 398 615 434.5 599.5 c 128,-1,17
 471 584 471 584 492.5 562.5 c 128,-1,18
 514 541 514 541 517 515.5 c 128,-1,19
 520 490 520 490 498.5 462.5 c 128,-1,20
 477 435 477 435 427.5 405.5 c 128,-1,21
 378 376 378 376 295 348 c 1,22,23
 410 342 410 342 482 325 c 128,-1,24
 554 308 554 308 590.5 285 c 128,-1,25
 627 262 627 262 632.5 234 c 128,-1,26
 638 206 638 206 620 176 c 128,-1,27
 602 146 602 146 564 117 c 128,-1,28
 526 88 526 88 476 63.5 c 128,-1,29
 426 39 426 39 368 20.5 c 128,-1,30
 310 2 310 2 250 -8 c 1,31,-1
 244 64 l 1,32,33
 351 80 351 80 419.5 106.5 c 128,-1,34
 488 133 488 133 518.5 162.5 c 128,-1,35
 549 192 549 192 543.5 220.5 c 128,-1,36
 538 249 538 249 497 269 c 128,-1,37
 456 289 456 289 382 296 c 0,38,39
 308 304 308 304 201 290 c 1,40,-1
 196 388 l 1,41,42
 236 396 236 396 276.5 407 c 128,-1,43
 317 418 317 418 349.5 431.5 c 128,-1,44
 382 445 382 445 402.5 461.5 c 128,-1,45
 423 478 423 478 423 498 c 0,46,47
 423 515 423 515 411.5 527.5 c 128,-1,48
 400 540 400 540 382.5 548.5 c 128,-1,49
 365 557 365 557 343 562.5 c 128,-1,50
 321 568 321 568 299.5 571 c 128,-1,51
 278 574 278 574 259 575.5 c 128,-1,52
 240 577 240 577 229 577 c 2,53,-1
 209 577 l 2,54,55
 193 577 193 577 175.5 575.5 c 128,-1,56
 158 574 158 574 142 571 c 128,-1,57
 126 568 126 568 123 561 c 1,58,-1
 137 -136 l 1,0,-1
EndSplineSet
EndChar

StartChar: ae
Encoding: 230 230 168
Width: 886
VWidth: 768
Flags: HW
LayerCount: 2
Fore
SplineSet
394 155 m 1,0,1
 372 121 372 121 343.5 94 c 128,-1,2
 315 67 315 67 281 47.5 c 128,-1,3
 247 28 247 28 206.5 19 c 128,-1,4
 166 10 166 10 122 14 c 1,5,6
 106 14 106 14 88 18 c 128,-1,7
 70 22 70 22 55 30 c 128,-1,8
 40 38 40 38 30 51.5 c 0,9,10
 20 66 20 66 20 86 c 1,11,12
 12 128 12 128 23.5 171 c 128,-1,13
 35 214 35 214 60 254 c 128,-1,14
 85 294 85 294 121 328 c 128,-1,15
 157 362 157 362 197.5 386 c 128,-1,16
 238 410 238 410 281.5 420 c 128,-1,17
 325 430 325 430 365 423 c 1,18,19
 396 423 396 423 413 402.5 c 128,-1,20
 430 382 430 382 439 349 c 0,21,22
 447 321 447 321 449 286 c 1,23,24
 462 308 462 308 478 328 c 0,25,26
 516 372 516 372 568.5 398 c 128,-1,27
 621 424 621 424 683 423 c 0,28,29
 693 423 693 423 711 420 c 128,-1,30
 729 417 729 417 749 410.5 c 128,-1,31
 769 404 769 404 788 394.5 c 128,-1,32
 807 385 807 385 821.5 371.5 c 128,-1,33
 836 358 836 358 843.5 341 c 0,34,35
 852 324 852 324 848 303 c 1,36,37
 817 281 817 281 776.5 273 c 128,-1,38
 736 265 736 265 694.5 261.5 c 128,-1,39
 653 258 653 258 613.5 255.5 c 128,-1,40
 574 253 574 253 544 241.5 c 128,-1,41
 514 230 514 230 498 206 c 128,-1,42
 482 182 482 182 488 136 c 1,43,44
 499 95 499 95 525 75.5 c 128,-1,45
 551 56 551 56 585.5 51.5 c 128,-1,46
 620 47 620 47 658.5 55 c 128,-1,47
 697 63 697 63 734 75.5 c 128,-1,48
 771 88 771 88 803.5 102.5 c 128,-1,49
 836 117 836 117 856 126 c 1,50,51
 866 126 866 126 873 119 c 128,-1,52
 880 112 880 112 880 102 c 1,53,54
 861 70 861 70 822.5 44.5 c 128,-1,55
 784 19 784 19 736 3 c 128,-1,56
 688 -13 688 -13 636 -16.5 c 128,-1,57
 584 -20 584 -20 538 -9 c 0,58,59
 497 1 497 1 465 25 c 1,60,61
 468 15 468 15 470 6 c 1,62,-1
 414 6 l 1,63,64
 410 32 410 32 408 51 c 128,-1,65
 406 70 406 70 405 87 c 128,-1,66
 404 104 404 104 401 119.5 c 128,-1,67
 398 135 398 135 394 155 c 1,0,1
337 356 m 1,68,69
 308 358 308 358 276.5 348 c 128,-1,70
 245 338 245 338 216.5 319.5 c 128,-1,71
 188 301 188 301 162.5 275.5 c 128,-1,72
 137 250 137 250 118.5 223 c 128,-1,73
 100 196 100 196 90 169.5 c 128,-1,74
 80 143 80 143 81.5 120.5 c 128,-1,75
 83 98 83 98 98 82.5 c 0,76,77
 113 68 113 68 145 62 c 1,78,79
 190 63 190 63 231.5 84.5 c 128,-1,80
 273 106 273 106 305.5 139 c 128,-1,81
 338 172 338 172 360 210 c 128,-1,82
 382 248 382 248 388 280 c 128,-1,83
 394 312 394 312 382.5 334 c 128,-1,84
 371 356 371 356 337 356 c 1,68,69
676 367 m 0,85,86
 662 367 662 367 643 364 c 128,-1,87
 624 361 624 361 606 353.5 c 128,-1,88
 588 346 588 346 575 334 c 128,-1,89
 562 322 562 322 562 303 c 1,90,-1
 748 334 l 1,91,92
 736 352 736 352 716.5 359.5 c 128,-1,93
 697 367 697 367 676 367 c 0,85,86
EndSplineSet
EndChar

StartChar: ccedilla
Encoding: 231 231 169
Width: 607
VWidth: 768
Flags: HW
LayerCount: 2
Fore
SplineSet
160 -172 m 1,0,1
 190 -175 190 -175 219.5 -170 c 128,-1,2
 249 -165 249 -165 271 -156.5 c 128,-1,3
 293 -148 293 -148 304.5 -137.5 c 128,-1,4
 316 -127 316 -127 310 -118.5 c 128,-1,5
 304 -110 304 -110 277 -107 c 128,-1,6
 250 -104 250 -104 196 -108 c 1,7,8
 185 -108 185 -108 178.5 -97 c 128,-1,9
 172 -86 172 -86 169 -70 c 128,-1,10
 166 -54 166 -54 165 -37 c 128,-1,11
 164 -20 164 -20 164 -7 c 1,12,13
 162 2 162 2 163 8 c 1,14,15
 127 16 127 16 96 32 c 0,16,17
 64 49 64 49 42 77.5 c 128,-1,18
 20 106 20 106 20 148 c 1,19,20
 17 182 17 182 33 216 c 128,-1,21
 49 250 49 250 77 281.5 c 128,-1,22
 105 313 105 313 143 339.5 c 128,-1,23
 181 366 181 366 223 385 c 128,-1,24
 265 404 265 404 308 413 c 128,-1,25
 351 422 351 422 389 418 c 1,26,27
 403 418 403 418 417.5 417 c 128,-1,28
 432 416 432 416 443 410 c 128,-1,29
 454 404 454 404 460.5 392.5 c 0,30,31
 467 382 467 382 467 362 c 0,32,33
 467 352 467 352 462.5 344.5 c 128,-1,34
 458 337 458 337 450.5 330 c 128,-1,35
 443 323 443 323 435 318 c 0,36,37
 427 314 427 314 420 308 c 1,38,39
 418 318 418 318 415.5 327.5 c 128,-1,40
 413 337 413 337 408.5 344 c 128,-1,41
 404 351 404 351 396 355 c 128,-1,42
 388 359 388 359 375 359 c 1,43,44
 331 350 331 350 279.5 332 c 128,-1,45
 228 314 228 314 185 288 c 128,-1,46
 142 262 142 262 115.5 230.5 c 128,-1,47
 89 199 89 199 95 162 c 1,48,49
 95 129 95 129 108 108.5 c 128,-1,50
 121 88 121 88 141.5 77 c 128,-1,51
 162 66 162 66 188.5 62 c 128,-1,52
 215 58 215 58 243 58 c 0,53,54
 286 58 286 58 326 71 c 128,-1,55
 366 84 366 84 404 100 c 128,-1,56
 442 116 442 116 479 128.5 c 128,-1,57
 516 141 516 141 551 141 c 0,58,59
 557 141 557 141 563.5 140.5 c 128,-1,60
 570 140 570 140 575 136.5 c 128,-1,61
 580 133 580 133 582 126.5 c 128,-1,62
 584 120 584 120 581 109 c 1,63,64
 577 95 577 95 554.5 81.5 c 128,-1,65
 532 68 532 68 498.5 56 c 128,-1,66
 465 44 465 44 425.5 33.5 c 128,-1,67
 386 23 386 23 349 15.5 c 128,-1,68
 312 8 312 8 282.5 4 c 0,69,70
 252 0 252 0 238 0 c 0,71,72
 220 0 220 0 200 2 c 1,73,74
 201 -1 201 -1 199 -2 c 1,75,76
 199 -15 199 -15 198.5 -26.5 c 128,-1,77
 198 -38 198 -38 199.5 -47 c 128,-1,78
 201 -56 201 -56 205 -61.5 c 0,79,80
 210 -67 210 -67 218 -67 c 1,81,82
 262 -63 262 -63 289.5 -68.5 c 128,-1,83
 317 -74 317 -74 331.5 -86 c 128,-1,84
 346 -98 346 -98 348 -115 c 128,-1,85
 350 -132 350 -132 342 -149 c 128,-1,86
 334 -166 334 -166 317 -181.5 c 128,-1,87
 300 -197 300 -197 276.5 -207 c 128,-1,88
 253 -217 253 -217 223.5 -218.5 c 128,-1,89
 194 -220 194 -220 162 -209 c 0,90,91
 160 -209 160 -209 160 -204.5 c 128,-1,92
 160 -200 160 -200 160 -193.5 c 128,-1,93
 160 -187 160 -187 161 -180.5 c 128,-1,94
 162 -174 162 -174 160 -172 c 1,0,1
EndSplineSet
EndChar

StartChar: igrave
Encoding: 236 236 174
Width: 145
VWidth: 768
Flags: HW
LayerCount: 2
Fore
SplineSet
110 440 m 1,0,1
 117 348 117 348 122 244 c 0,2,3
 126 140 126 140 130 34 c 1,4,5
 126 19 126 19 115 12.5 c 128,-1,6
 104 6 104 6 90 5.5 c 128,-1,7
 76 5 76 5 64.5 9.5 c 128,-1,8
 53 14 53 14 50 22 c 1,9,-1
 50 440 l 1,10,-1
 110 440 l 1,0,1
124 552 m 1,11,-1
 108 512 l 1,12,13
 84 528 84 528 70 538.5 c 128,-1,14
 56 549 56 549 47.5 557.5 c 128,-1,15
 39 566 39 566 34.5 573 c 128,-1,16
 30 580 30 580 27 590 c 1,17,18
 25 600 25 600 26.5 608.5 c 128,-1,19
 28 617 28 617 32.5 622 c 128,-1,20
 37 627 37 627 44 626 c 0,21,22
 51 626 51 626 61 614 c 1,23,-1
 124 552 l 1,11,-1
EndSplineSet
EndChar

StartChar: iacute
Encoding: 237 237 175
Width: 145
VWidth: 768
Flags: HW
LayerCount: 2
Fore
SplineSet
110 440 m 1,0,1
 117 348 117 348 122 244 c 0,2,3
 126 140 126 140 130 34 c 1,4,5
 126 19 126 19 115 12.5 c 128,-1,6
 104 6 104 6 90 5.5 c 128,-1,7
 76 5 76 5 64.5 9.5 c 128,-1,8
 53 14 53 14 50 22 c 1,9,-1
 50 440 l 1,10,-1
 110 440 l 1,0,1
95 599 m 2,11,12
 105 611 105 611 114 615 c 128,-1,13
 123 619 123 619 129 616.5 c 128,-1,14
 135 614 135 614 138.5 606.5 c 128,-1,15
 142 599 142 599 142 591 c 1,16,17
 140 582 140 582 137 575 c 128,-1,18
 134 568 134 568 125.5 558 c 128,-1,19
 117 548 117 548 101.5 534 c 128,-1,20
 86 520 86 520 60 500 c 1,21,-1
 31 526 l 1,22,-1
 95 599 l 2,11,12
EndSplineSet
EndChar

